<svg width="61" height="61" viewBox="0 0 61 61" fill="none" xmlns="http://www.w3.org/2000/svg">
<path d="M30.5 0C13.6816 0 0 13.6816 0 30.5C0 47.3184 13.6816 61 30.5 61C47.3184 61 61 47.3184 61 30.5C61 13.6816 47.3184 0 30.5 0ZM43.8438 33.0415H33.0415V43.8438C33.0415 45.2469 31.9032 46.3853 30.5 46.3853C29.0968 46.3853 27.9585 45.2469 27.9585 43.8438V33.0415H17.1562C15.7531 33.0415 14.6147 31.9032 14.6147 30.5C14.6147 29.0968 15.7531 27.9585 17.1562 27.9585H27.9585V17.1562C27.9585 15.7531 29.0968 14.6147 30.5 14.6147C31.9032 14.6147 33.0415 15.7531 33.0415 17.1562V27.9585H43.8438C45.2469 27.9585 46.3853 29.0968 46.3853 30.5C46.3853 31.9032 45.2469 33.0415 43.8438 33.0415Z" fill="#140064"/>
</svg>
