<svg width="273" height="40" viewBox="0 0 273 40" fill="none" xmlns="http://www.w3.org/2000/svg">
<path fill-rule="evenodd" clip-rule="evenodd" d="M27 40C36.3888 40 44 31.0457 44 20C44 8.9543 36.3888 0 27 0H273V40H27Z" fill="#EFEAFF"/>
<circle cx="17" cy="20" r="16.4205" fill="white" stroke="#7545FF" stroke-width="1.15909"/>
<path d="M13.2803 17.9969C14.0571 17.2201 14.0571 15.9563 13.2803 15.1795L10.5485 12.4477C10.1306 12.0298 9.55134 11.818 8.95974 11.8667C8.37944 11.9145 7.85457 12.2103 7.51975 12.6783C7.45024 12.7754 7.38313 12.8739 7.31738 12.9733L12.8106 18.4666L13.2803 17.9969Z" fill="#7545FF"/>
<path d="M24.5521 26.4521L21.8203 23.7202C21.0436 22.9436 19.7797 22.9435 19.0029 23.7202L18.5332 24.1899L24.0267 29.6834C24.126 29.6177 24.2244 29.5503 24.3215 29.4808C24.7894 29.146 25.0852 28.6211 25.1331 28.0408C25.1818 27.4491 24.97 26.87 24.5521 26.4521Z" fill="#7545FF"/>
<path d="M16.6556 25.2428C16.1234 25.2428 15.6232 25.0355 15.2469 24.6593L12.3409 21.7533C11.9647 21.3771 11.7574 20.8768 11.7574 20.3446C11.7574 20.0424 11.8245 19.7504 11.9512 19.4856L6.63859 14.173C5.8913 15.7421 5.5606 17.5 5.69704 19.2646C5.8809 21.6424 6.9063 23.876 8.58443 25.5541L11.4462 28.4158C13.1242 30.0939 15.3579 31.1193 17.7357 31.3032C17.9955 31.3233 18.2551 31.3333 18.5141 31.3333C20.0138 31.3333 21.4892 30.9989 22.8273 30.3617L17.5146 25.049C17.2498 25.1757 16.9579 25.2428 16.6556 25.2428Z" fill="#7545FF"/>
<path d="M19.0371 8.66663C18.6704 8.66663 18.373 8.96395 18.373 9.33069C18.373 9.69743 18.6704 9.99475 19.0371 9.99475C23.4311 9.99475 27.0059 13.5695 27.0059 17.9635C27.0059 18.3303 27.3032 18.6276 27.6699 18.6276C28.0367 18.6276 28.334 18.3303 28.334 17.9635C28.334 12.8372 24.1634 8.66663 19.0371 8.66663Z" fill="#7545FF"/>
<path d="M19.0371 17.9629C19.0371 17.9629 19.0371 17.9631 19.0371 17.9635C19.0371 18.3302 19.3344 18.6276 19.7012 18.6276C20.0679 18.6276 20.3652 18.3302 20.3652 17.9635C20.3652 17.2312 19.7694 16.6354 19.0371 16.6354C18.6704 16.6354 18.373 16.9324 18.373 17.2991C18.373 17.6659 18.6703 17.9629 19.0371 17.9629Z" fill="#7545FF"/>
<path d="M19.0371 15.3073C20.5018 15.3073 21.6934 16.4988 21.6934 17.9635C21.6934 18.3302 21.9907 18.6276 22.3574 18.6276C22.7242 18.6276 23.0215 18.3302 23.0215 17.9635C23.0215 15.7665 21.2341 13.9791 19.0371 13.9791C18.6704 13.9791 18.373 14.2764 18.373 14.6432C18.373 15.0099 18.6704 15.3073 19.0371 15.3073Z" fill="#7545FF"/>
<path d="M19.0371 11.3229C18.6704 11.3229 18.373 11.6202 18.373 11.9869C18.373 12.3537 18.6704 12.651 19.0371 12.651C21.9664 12.651 24.3496 15.0342 24.3496 17.9635C24.3496 18.3302 24.6469 18.6276 25.0137 18.6276C25.3804 18.6276 25.6777 18.3302 25.6777 17.9635C25.6777 14.3019 22.6988 11.3229 19.0371 11.3229Z" fill="#7545FF"/>
</svg>
