<svg width="44" height="44" viewBox="0 0 44 44" fill="none" xmlns="http://www.w3.org/2000/svg">
<circle cx="22" cy="22" r="21.25" fill="white" stroke="#7545FF" stroke-width="1.5"/>
<path d="M17.1865 19.4077C18.1917 18.4024 18.1917 16.7669 17.1865 15.7616L13.6512 12.2263C13.1104 11.6855 12.3607 11.4115 11.5951 11.4745C10.8442 11.5363 10.1649 11.9191 9.73161 12.5247C9.64166 12.6504 9.5548 12.7779 9.46973 12.9065L16.5787 20.0154L17.1865 19.4077Z" fill="#7545FF"/>
<path d="M31.7735 30.3495L28.2382 26.8142C27.2331 25.8091 25.5974 25.8089 24.5922 26.8142L23.9844 27.422L31.0936 34.5312C31.2222 34.4461 31.3495 34.3589 31.4751 34.269C32.0807 33.8358 32.4635 33.1565 32.5254 32.4055C32.5884 31.6398 32.3144 30.8904 31.7735 30.3495Z" fill="#7545FF"/>
<path d="M21.5545 28.7849C20.8658 28.7849 20.2185 28.5167 19.7315 28.0297L15.9709 24.2691C15.4839 23.7822 15.2157 23.1347 15.2157 22.4461C15.2157 22.0549 15.3025 21.6771 15.4665 21.3344L8.59135 14.4592C7.62427 16.4898 7.1963 18.7648 7.37287 21.0484C7.6108 24.1255 8.93779 27.0161 11.1095 29.1877L14.8129 32.8911C16.9845 35.0628 19.8752 36.3898 22.9523 36.6277C23.2886 36.6538 23.6245 36.6666 23.9597 36.6666C25.9004 36.6666 27.8098 36.234 29.5414 35.4093L22.6662 28.5341C22.3235 28.6981 21.9457 28.7849 21.5545 28.7849Z" fill="#7545FF"/>
<path d="M24.6367 7.33325C24.1621 7.33325 23.7773 7.71802 23.7773 8.19263C23.7773 8.66723 24.1621 9.052 24.6367 9.052C30.323 9.052 34.9492 13.6782 34.9492 19.3645C34.9492 19.8391 35.334 20.2239 35.8086 20.2239C36.2832 20.2239 36.668 19.8391 36.668 19.3645C36.668 12.7305 31.2708 7.33325 24.6367 7.33325Z" fill="#7545FF"/>
<path d="M24.6367 19.3637C24.6367 19.3637 24.6367 19.364 24.6367 19.3645C24.6367 19.8391 25.0215 20.2239 25.4961 20.2239C25.9707 20.2239 26.3555 19.8391 26.3555 19.3645C26.3555 18.4168 25.5844 17.6458 24.6367 17.6458C24.1621 17.6458 23.7773 18.0301 23.7773 18.5047C23.7773 18.9793 24.1621 19.3637 24.6367 19.3637Z" fill="#7545FF"/>
<path d="M24.6367 15.927C26.5322 15.927 28.0742 17.4691 28.0742 19.3645C28.0742 19.8391 28.459 20.2239 28.9336 20.2239C29.4082 20.2239 29.793 19.8391 29.793 19.3645C29.793 16.5213 27.4799 14.2083 24.6367 14.2083C24.1621 14.2083 23.7773 14.593 23.7773 15.0676C23.7773 15.5422 24.1621 15.927 24.6367 15.927Z" fill="#7545FF"/>
<path d="M24.6367 10.7708C24.1621 10.7708 23.7773 11.1555 23.7773 11.6301C23.7773 12.1047 24.1621 12.4895 24.6367 12.4895C28.4276 12.4895 31.5117 15.5736 31.5117 19.3645C31.5117 19.8391 31.8965 20.2239 32.3711 20.2239C32.8457 20.2239 33.2305 19.8391 33.2305 19.3645C33.2305 14.6259 29.3753 10.7708 24.6367 10.7708Z" fill="#7545FF"/>
</svg>
