<svg width="235" height="235" viewBox="0 0 235 235" fill="none" xmlns="http://www.w3.org/2000/svg">
<path d="M228.281 32.1267C224.824 28.6637 219.214 28.6577 215.757 32.1121L109.506 138.083L71.1703 96.4474C67.8578 92.8518 62.2573 92.6186 58.6556 95.9306C55.0567 99.2431 54.8263 104.846 58.1388 108.445L102.718 156.859C104.351 158.634 106.636 159.664 109.045 159.714C109.109 159.717 109.172 159.717 109.234 159.717C111.575 159.717 113.827 158.787 115.487 157.134L228.263 44.6529C231.729 41.199 231.735 35.5898 228.281 32.1267Z" fill="#0CDE47"/>
<path d="M228.281 32.1267C224.824 28.6637 219.214 28.6577 215.757 32.1121L109.506 138.083L71.1703 96.4474C67.8578 92.8518 62.2573 92.6186 58.6556 95.9306C55.0567 99.2431 54.8263 104.846 58.1388 108.445L102.718 156.859C104.351 158.634 106.636 159.664 109.045 159.714C109.109 159.717 109.172 159.717 109.234 159.717C111.575 159.717 113.827 158.787 115.487 157.134L228.263 44.6529C231.729 41.199 231.735 35.5898 228.281 32.1267Z" fill="url(#paint0_linear)"/>
<path d="M226.143 108.643C221.251 108.643 217.286 112.608 217.286 117.5C217.286 172.524 172.524 217.286 117.5 217.286C62.4788 217.286 17.7136 172.524 17.7136 117.5C17.7136 62.4788 62.4788 17.7136 117.5 17.7136C122.392 17.7136 126.357 13.7489 126.357 8.85702C126.357 3.96471 122.392 0 117.5 0C52.7098 0 0 52.7098 0 117.5C0 182.287 52.7098 235 117.5 235C182.287 235 235 182.287 235 117.5C235 112.608 231.035 108.643 226.143 108.643Z" fill="#0CDE47"/>
<path d="M226.143 108.643C221.251 108.643 217.286 112.608 217.286 117.5C217.286 172.524 172.524 217.286 117.5 217.286C62.4788 217.286 17.7136 172.524 17.7136 117.5C17.7136 62.4788 62.4788 17.7136 117.5 17.7136C122.392 17.7136 126.357 13.7489 126.357 8.85702C126.357 3.96471 122.392 0 117.5 0C52.7098 0 0 52.7098 0 117.5C0 182.287 52.7098 235 117.5 235C182.287 235 235 182.287 235 117.5C235 112.608 231.035 108.643 226.143 108.643Z" fill="url(#paint1_linear)"/>
<defs>
<linearGradient id="paint0_linear" x1="277.875" y1="225.289" x2="135.241" y2="10.2517" gradientUnits="userSpaceOnUse">
<stop stop-color="#231FFF"/>
<stop offset="1" stop-color="white" stop-opacity="0"/>
</linearGradient>
<linearGradient id="paint1_linear" x1="298.1" y1="353.36" x2="20.4574" y2="42.0792" gradientUnits="userSpaceOnUse">
<stop stop-color="#231FFF"/>
<stop offset="1" stop-color="white" stop-opacity="0"/>
</linearGradient>
</defs>
</svg>
