<svg width="126" height="182" viewBox="0 0 126 182" fill="none" xmlns="http://www.w3.org/2000/svg">
<ellipse cx="61.5337" cy="167.551" rx="44.3784" ry="14.4488" fill="#FF2C78" fill-opacity="0.1"/>
<ellipse cx="63.3439" cy="64.5701" rx="62.506" ry="64.5701" fill="#FF2C78"/>
<path d="M45.6467 57.9013L53.9882 43.5626H61.9481L49.9538 63.2442L62.2207 83.2529H54.179L45.6467 68.6962L37.0871 83.2529H29.0727L41.3669 63.2442L29.3453 43.5626H37.3052L45.6467 57.9013ZM74.5967 83.2529H67.7272V43.5626H74.5967V83.2529ZM90.3529 83.2529H83.4834V43.5626H90.3529V83.2529Z" fill="white"/>
<path d="M74.9909 116.916C74.0401 115.67 75.025 113.794 76.5918 113.769C81.5154 113.689 89.8103 112.872 95.2867 108.691C100.943 104.373 104.609 95.691 106.344 90.7005C106.869 89.1896 108.939 88.8014 109.91 90.0728C110.245 90.5123 110.376 91.0682 110.242 91.6046C109.458 94.7394 106.18 105.894 97.9478 112.178C89.6472 118.514 78.9554 117.878 76.1353 117.577C75.6754 117.528 75.2716 117.283 74.9909 116.916Z" fill="white"/>
</svg>
