<svg width="127" height="182" viewBox="0 0 127 182" fill="none" xmlns="http://www.w3.org/2000/svg">
<ellipse cx="63.0474" cy="167.551" rx="44.3784" ry="14.4488" fill="#7545FF" fill-opacity="0.1"/>
<ellipse cx="63.4963" cy="64.5701" rx="62.506" ry="64.5701" fill="#7545FF"/>
<path d="M37.8829 57.9013L46.2244 43.5626H54.1843L42.1899 63.2442L54.4569 83.2529H46.4152L37.8829 68.6962L29.3233 83.2529H21.3089L33.6031 63.2442L21.5815 43.5626H29.5414L37.8829 57.9013ZM66.8328 83.2529H59.9633V43.5626H66.8328V83.2529ZM82.589 83.2529H75.7195V43.5626H82.589V83.2529ZM105.733 61.4178H116.091V67.4695H105.733V79.273H99.2993V67.4695H88.886V61.4178H99.2993V50.3776H105.733V61.4178Z" fill="white"/>
<path d="M78.1069 116.244C77.0851 115.056 77.959 113.126 79.5217 113.009C84.4322 112.642 92.6653 111.343 97.8886 106.851C103.284 102.21 106.437 93.3289 107.878 88.2457C108.314 86.7068 110.358 86.1985 111.401 87.4112C111.762 87.8304 111.925 88.3777 111.822 88.921C111.222 92.0962 108.6 103.423 100.748 110.176C92.8314 116.985 82.1208 116.974 79.2879 116.838C78.8259 116.816 78.4086 116.595 78.1069 116.244Z" fill="white"/>
</svg>
