<svg width="126" height="182" viewBox="0 0 126 182" fill="none" xmlns="http://www.w3.org/2000/svg">
<ellipse cx="62.506" cy="64.5701" rx="62.506" ry="64.5701" fill="#7545FF"/>
<ellipse cx="60.8911" cy="167.551" rx="44.3784" ry="14.4488" fill="#7545FF" fill-opacity="0.1"/>
<path d="M55.5277 57.9013L63.8692 43.5626H71.8291L59.8348 63.2442L72.1017 83.2529H64.0601L55.5277 68.6962L46.9681 83.2529H38.9537L51.2479 63.2442L39.2263 43.5626H47.1862L55.5277 57.9013ZM84.4777 83.2529H77.6082V43.5626H84.4777V83.2529Z" fill="white"/>
<path d="M70.4187 118.359C69.5644 117.045 70.6878 115.248 72.2521 115.341C77.1676 115.632 85.5005 115.442 91.2761 111.686C97.2421 107.806 101.551 99.4243 103.657 94.5786C104.294 93.1116 106.388 92.8804 107.26 94.2213C107.561 94.6848 107.65 95.249 107.476 95.7737C106.458 98.8405 102.349 109.717 93.6672 115.362C84.913 121.056 74.2995 119.616 71.51 119.104C71.0551 119.021 70.6709 118.746 70.4187 118.359Z" fill="white"/>
</svg>
