<svg width="463" height="518" viewBox="0 0 463 518" fill="none" xmlns="http://www.w3.org/2000/svg">
<path fill-rule="evenodd" clip-rule="evenodd" d="M462.842 145C459.184 64.302 392.601 0 311 0C243.215 0 185.793 44.3716 166.195 105.654C161.521 105.221 156.787 105 152 105C68.0527 105 0 173.053 0 257C0 340.947 68.0527 409 152 409C156.382 409 160.72 408.815 165.007 408.451C183.378 471.74 241.787 518 311 518C394.947 518 463 449.947 463 366C463 365.332 462.996 364.666 462.987 364H463V152V145H462.842Z" fill="#00C2FF"/>
<path fill-rule="evenodd" clip-rule="evenodd" d="M462.842 145C459.184 64.302 392.601 0 311 0C243.215 0 185.793 44.3716 166.195 105.654C161.521 105.221 156.787 105 152 105C68.0527 105 0 173.053 0 257C0 340.947 68.0527 409 152 409C156.382 409 160.72 408.815 165.007 408.451C183.378 471.74 241.787 518 311 518C394.947 518 463 449.947 463 366C463 365.332 462.996 364.666 462.987 364H463V152V145H462.842Z" fill="url(#paint0_linear)"/>
<defs>
<linearGradient id="paint0_linear" x1="231.5" y1="0" x2="231.5" y2="518" gradientUnits="userSpaceOnUse">
<stop stop-color="#00D1FF"/>
<stop offset="1" stop-color="white" stop-opacity="0"/>
</linearGradient>
</defs>
</svg>
