<svg width="37" height="37" viewBox="0 0 37 37" fill="none" xmlns="http://www.w3.org/2000/svg">
<circle cx="18.6128" cy="18.6103" r="18.1284" fill="#140064"/>
<path d="M17.0416 9.85761H20.2688V10.4011H21.4342V9.78152C21.4344 9.18019 20.9458 8.69092 20.3454 8.69092H16.965C16.3645 8.69092 15.876 9.18019 15.876 9.78152V10.4011H17.0416V9.85761Z" fill="white"/>
<path d="M24.3235 15.5317H12.9879C12.6773 15.5317 12.4328 15.8013 12.4578 16.1163L13.4055 28.0357C13.4583 28.7011 14.004 29.2136 14.6595 29.2136H22.6517C23.3073 29.2136 23.8529 28.7011 23.9057 28.0355L24.8534 16.1163C24.8786 15.8013 24.6341 15.5317 24.3235 15.5317ZM15.7327 27.9422C15.72 27.943 15.7073 27.9435 15.6948 27.9435C15.3783 27.9435 15.1125 27.6927 15.0928 27.367L14.4989 17.5818C14.4785 17.2432 14.7317 16.9518 15.0644 16.931C15.3961 16.9105 15.6838 17.1674 15.7043 17.5062L16.298 27.2914C16.3186 27.63 16.0654 27.9213 15.7327 27.9422ZM19.2662 27.3293C19.2662 27.6684 18.9959 27.9433 18.6624 27.9433C18.3289 27.9433 18.0586 27.6684 18.0586 27.3293V17.5439C18.0586 17.2047 18.3289 16.9298 18.6624 16.9298C18.9958 16.9298 19.2662 17.2047 19.2662 17.5439V27.3293ZM22.8124 17.5801L22.2454 27.3653C22.2266 27.6916 21.9605 27.9433 21.6433 27.9433C21.6314 27.9433 21.6193 27.943 21.6073 27.9424C21.2744 27.9223 21.0204 27.6317 21.0401 27.2931L21.607 17.5078C21.6265 17.1692 21.9113 16.9108 22.2451 16.9308C22.578 16.9507 22.832 17.2415 22.8124 17.5801Z" fill="white"/>
<path d="M26.5393 13.5389L26.1363 12.2518C26.03 11.9125 25.7318 11.6836 25.3959 11.6836H11.9157C11.58 11.6836 11.2816 11.9125 11.1755 12.2518L10.7724 13.5389C10.6947 13.7872 10.7959 14.0404 10.9847 14.1666C11.0616 14.218 11.1527 14.2489 11.2528 14.2489H26.059C26.1591 14.2489 26.2503 14.218 26.3271 14.1665C26.5159 14.0402 26.6171 13.787 26.5393 13.5389Z" fill="white"/>
</svg>
