<svg width="10" height="13" viewBox="0 0 10 13" fill="none" xmlns="http://www.w3.org/2000/svg">
<path d="M3.77529 0.694249H5.71096V1.01768H6.40999V0.648972C6.41008 0.291142 6.11707 0 5.75691 0H3.72935C3.36918 0 3.07617 0.291142 3.07617 0.648972V1.01768H3.77529V0.694249Z" fill="white"/>
<path d="M8.14353 4.07068H1.3444C1.1581 4.07068 1.01143 4.23106 1.02645 4.41851L1.59487 11.5114C1.62655 11.9074 1.95384 12.2123 2.34704 12.2123H7.1408C7.534 12.2123 7.86128 11.9074 7.89296 11.5113L8.46139 4.41851C8.47649 4.23106 8.32983 4.07068 8.14353 4.07068ZM2.99072 11.4558C2.98312 11.4563 2.97552 11.4565 2.96801 11.4565C2.77814 11.4565 2.61875 11.3073 2.60694 11.1135L2.25073 5.29062C2.23846 5.08913 2.39034 4.91572 2.58992 4.90334C2.78885 4.89115 2.96142 5.04404 2.97369 5.24563L3.32981 11.0685C3.34217 11.27 3.19029 11.4433 2.99072 11.4558ZM5.11016 11.0911C5.11016 11.2928 4.94802 11.4565 4.74799 11.4565C4.54796 11.4565 4.38582 11.2928 4.38582 11.0911V5.26808C4.38582 5.06621 4.54796 4.9026 4.74799 4.9026C4.94793 4.9026 5.11016 5.06621 5.11016 5.26808V11.0911ZM7.2372 5.2896L6.89709 11.1125C6.88583 11.3067 6.72617 11.4565 6.53593 11.4565C6.52879 11.4565 6.52156 11.4563 6.51433 11.4559C6.31466 11.444 6.16232 11.271 6.17413 11.0695L6.51415 5.24655C6.52586 5.04506 6.69669 4.89133 6.89691 4.90325C7.09658 4.91507 7.24892 5.08811 7.2372 5.2896Z" fill="white"/>
<path d="M9.47283 2.88481L9.23108 2.11888C9.16733 1.91697 8.98848 1.78076 8.78701 1.78076H0.701531C0.50016 1.78076 0.321214 1.91697 0.257565 2.11888L0.0158069 2.88481C-0.0308138 3.03253 0.0298582 3.1832 0.143107 3.25834C0.189262 3.28892 0.243885 3.30732 0.303906 3.30732H9.18473C9.24475 3.30732 9.29947 3.28892 9.34553 3.25824C9.45878 3.1831 9.51945 3.03243 9.47283 2.88481Z" fill="white"/>
</svg>
