<svg width="136" height="128" viewBox="0 0 136 128" fill="none" xmlns="http://www.w3.org/2000/svg">
<path d="M2.19336 2.1936H133.806V10.9678H2.19336V2.1936Z" fill="#7545FF" fill-opacity="0.2"/>
<path d="M67.9994 125.032C70.4223 125.032 72.3865 123.068 72.3865 120.645C72.3865 118.222 70.4223 116.258 67.9994 116.258C65.5765 116.258 63.6123 118.222 63.6123 120.645C63.6123 123.068 65.5765 125.032 67.9994 125.032Z" fill="#7545FF" fill-opacity="0.2"/>
<path d="M133.806 0H2.19355C1.61178 0 1.05385 0.231105 0.642475 0.642475C0.231105 1.05385 0 1.61178 0 2.19355V10.9677C0 11.5495 0.231105 12.1074 0.642475 12.5188C1.05385 12.9302 1.61178 13.1613 2.19355 13.1613H4.3871V100.903C4.38971 103.229 5.31497 105.46 6.95988 107.105C8.6048 108.75 10.835 109.675 13.1613 109.677H65.8064V114.443C64.3429 114.96 63.1094 115.979 62.3239 117.318C61.5384 118.656 61.2516 120.23 61.5141 121.76C61.7766 123.29 62.5716 124.678 63.7584 125.678C64.9453 126.679 66.4477 127.228 68 127.228C69.5523 127.228 71.0547 126.679 72.2416 125.678C73.4284 124.678 74.2234 123.29 74.4859 121.76C74.7484 120.23 74.4616 118.656 73.6761 117.318C72.8906 115.979 71.6571 114.96 70.1936 114.443V109.677H122.839C125.165 109.674 127.395 108.749 129.04 107.104C130.684 105.459 131.61 103.229 131.613 100.903V13.1613H133.806C134.388 13.1613 134.946 12.9302 135.358 12.5188C135.769 12.1074 136 11.5495 136 10.9677V2.19355C136 1.61178 135.769 1.05385 135.358 0.642475C134.946 0.231105 134.388 0 133.806 0ZM68 122.839C67.5662 122.839 67.1421 122.71 66.7813 122.469C66.4206 122.228 66.1395 121.885 65.9734 121.485C65.8074 121.084 65.764 120.643 65.8486 120.217C65.9332 119.792 66.1422 119.401 66.4489 119.094C66.7557 118.787 67.1466 118.578 67.5721 118.494C67.9976 118.409 68.4386 118.453 68.8394 118.619C69.2403 118.785 69.5828 119.066 69.8239 119.426C70.0649 119.787 70.1936 120.211 70.1936 120.645C70.1927 121.227 69.9614 121.784 69.5502 122.195C69.139 122.607 68.5815 122.838 68 122.839ZM127.226 100.903C127.224 102.066 126.762 103.181 125.939 104.004C125.117 104.826 124.002 105.289 122.839 105.29H13.1613C11.9982 105.289 10.8832 104.826 10.0608 104.004C9.23842 103.181 8.77572 102.066 8.77419 100.903V13.1613H127.226V100.903ZM131.613 8.77419H4.3871V4.3871H131.613V8.77419Z" fill="#7545FF" fill-opacity="0.2"/>
<path d="M21.9348 81.161H39.4831C40.0649 81.161 40.6229 80.9299 41.0342 80.5185C41.4456 80.1071 41.6767 79.5492 41.6767 78.9674C41.6767 78.3857 41.4456 77.8277 41.0342 77.4164C40.6229 77.005 40.0649 76.7739 39.4831 76.7739H24.1283V65.8061H30.709C31.2907 65.8061 31.8487 65.575 32.26 65.1637C32.6714 64.7523 32.9025 64.1944 32.9025 63.6126C32.9025 63.0308 32.6714 62.4729 32.26 62.0615C31.8487 61.6502 31.2907 61.419 30.709 61.419H24.1283V50.4513H39.4831C40.0649 50.4513 40.6229 50.2202 41.0342 49.8088C41.4456 49.3975 41.6767 48.8395 41.6767 48.2578C41.6767 47.676 41.4456 47.1181 41.0342 46.7067C40.6229 46.2953 40.0649 46.0642 39.4831 46.0642H21.9348C21.353 46.0642 20.7951 46.2953 20.3837 46.7067C19.9723 47.1181 19.7412 47.676 19.7412 48.2578V78.9674C19.7412 79.5492 19.9723 80.1071 20.3837 80.5185C20.7951 80.9299 21.353 81.161 21.9348 81.161Z" fill="#7545FF" fill-opacity="0.2"/>
<path d="M46.0646 61.4196H54.8388C55.4206 61.4196 55.9785 61.1885 56.3899 60.7771C56.8013 60.3657 57.0324 59.8078 57.0324 59.226C57.0324 58.6443 56.8013 58.0863 56.3899 57.6749C55.9785 57.2636 55.4206 57.0325 54.8388 57.0325H46.0646C45.4829 57.0325 44.9249 57.2636 44.5136 57.6749C44.1022 58.0863 43.8711 58.6443 43.8711 59.226C43.8711 59.8078 44.1022 60.3657 44.5136 60.7771C44.9249 61.1885 45.4829 61.4196 46.0646 61.4196Z" fill="#7545FF" fill-opacity="0.2"/>
<path d="M46.0646 67.9999H54.8388C55.4206 67.9999 55.9785 67.7688 56.3899 67.3574C56.8013 66.946 57.0324 66.3881 57.0324 65.8063C57.0324 65.2246 56.8013 64.6666 56.3899 64.2553C55.9785 63.8439 55.4206 63.6128 54.8388 63.6128H46.0646C45.4829 63.6128 44.9249 63.8439 44.5136 64.2553C44.1022 64.6666 43.8711 65.2246 43.8711 65.8063C43.8711 66.3881 44.1022 66.946 44.5136 67.3574C44.9249 67.7688 45.4829 67.9999 46.0646 67.9999Z" fill="#7545FF" fill-opacity="0.2"/>
<path d="M63.6125 81.161C64.1943 81.161 64.7522 80.9299 65.1636 80.5185C65.5749 80.1071 65.806 79.5492 65.806 78.9674V64.7093C65.806 63.8367 66.1527 62.9998 66.7698 62.3827C67.3868 61.7657 68.2237 61.419 69.0964 61.419C69.969 61.419 70.8059 61.7657 71.423 62.3827C72.04 62.9998 72.3867 63.8367 72.3867 64.7093V78.9674C72.3867 79.5492 72.6178 80.1071 73.0292 80.5185C73.4405 80.9299 73.9985 81.161 74.5802 81.161C75.162 81.161 75.7199 80.9299 76.1313 80.5185C76.5427 80.1071 76.7738 79.5492 76.7738 78.9674V64.7093C76.7738 63.8367 77.1204 62.9998 77.7375 62.3827C78.3545 61.7657 79.1915 61.419 80.0641 61.419C80.9368 61.419 81.7737 61.7657 82.3907 62.3827C83.0078 62.9998 83.3544 63.8367 83.3544 64.7093V78.9674C83.3544 79.5492 83.5855 80.1071 83.9969 80.5185C84.4083 80.9299 84.9662 81.161 85.548 81.161C86.1297 81.161 86.6877 80.9299 87.0991 80.5185C87.5104 80.1071 87.7415 79.5492 87.7415 78.9674V64.7093C87.7426 63.1837 87.2888 61.6924 86.4381 60.4259C85.5874 59.1595 84.3785 58.1754 82.9657 57.5995C81.553 57.0235 80.0006 56.8818 78.5069 57.1925C77.0133 57.5032 75.6461 58.2521 74.5802 59.3437C73.4116 58.1455 71.8826 57.363 70.2272 57.1159C68.5719 56.8688 66.8811 57.1706 65.4134 57.9752C65.1468 57.5918 64.7649 57.3035 64.3231 57.1523C63.8813 57.001 63.4028 56.9946 62.9572 57.1341C62.5116 57.2736 62.1221 57.5516 61.8455 57.9278C61.5688 58.3039 61.4194 58.7585 61.4189 59.2255V78.9674C61.4189 79.5492 61.65 80.1071 62.0614 80.5185C62.4728 80.9299 63.0307 81.161 63.6125 81.161Z" fill="#7545FF" fill-opacity="0.2"/>
<path d="M98.7088 81.1615H105.289C105.871 81.1615 106.429 80.9304 106.84 80.519C107.252 80.1077 107.483 79.5497 107.483 78.968C107.483 78.3862 107.252 77.8283 106.84 77.4169C106.429 77.0055 105.871 76.7744 105.289 76.7744H98.7088C97.5457 76.773 96.4306 76.3104 95.6081 75.4879C94.7857 74.6655 94.323 73.5504 94.3217 72.3873V65.8067C94.323 64.6436 94.7857 63.5285 95.6081 62.706C96.4306 61.8836 97.5457 61.4209 98.7088 61.4196H105.289C105.871 61.4196 106.429 61.1885 106.84 60.7771C107.252 60.3657 107.483 59.8078 107.483 59.226C107.483 58.6443 107.252 58.0863 106.84 57.6749C106.429 57.2636 105.871 57.0325 105.289 57.0325H98.7088C96.3825 57.0351 94.1523 57.9603 92.5074 59.6053C90.8624 61.2502 89.9372 63.4804 89.9346 65.8067V72.3873C89.9372 74.7136 90.8624 76.9438 92.5074 78.5887C94.1523 80.2336 96.3825 81.1589 98.7088 81.1615Z" fill="#7545FF" fill-opacity="0.2"/>
<path d="M109.678 54.839H114.065C114.647 54.839 115.205 54.6079 115.616 54.1965C116.027 53.7851 116.259 53.2272 116.259 52.6454C116.259 52.0637 116.027 51.5057 115.616 51.0943C115.205 50.683 114.647 50.4519 114.065 50.4519H111.871V49.6139L115.046 48.0266C115.41 47.8444 115.717 47.5644 115.931 47.2179C116.145 46.8714 116.259 46.4721 116.259 46.0648V41.6777C116.259 41.0959 116.027 40.538 115.616 40.1266C115.205 39.7152 114.647 39.4841 114.065 39.4841H109.678C109.096 39.4841 108.538 39.7152 108.127 40.1266C107.715 40.538 107.484 41.0959 107.484 41.6777C107.484 42.2594 107.715 42.8174 108.127 43.2288C108.538 43.6401 109.096 43.8712 109.678 43.8712H111.871V44.7092L108.697 46.2965C108.333 46.4787 108.026 46.7587 107.812 47.1052C107.598 47.4517 107.484 47.851 107.484 48.2583V52.6454C107.484 53.2272 107.715 53.7851 108.127 54.1965C108.538 54.6079 109.096 54.839 109.678 54.839Z" fill="#7545FF" fill-opacity="0.2"/>
</svg>
