<svg width="49" height="49" viewBox="0 0 49 49" fill="none" xmlns="http://www.w3.org/2000/svg">
<circle r="24.5" transform="matrix(-1 0 0 1 24.5 24.5)" fill="#CDC0FF"/>
<path d="M19.7519 29.3588C20.1889 29.0118 20.3881 28.8511 20.3495 28.8769C21.609 27.8358 22.5987 26.9811 23.3184 26.3128C24.051 25.6445 24.6679 24.944 25.1692 24.2114C25.6704 23.4788 25.921 22.7655 25.921 22.0715C25.921 21.5445 25.799 21.1332 25.5548 20.8376C25.3106 20.542 24.9443 20.3942 24.4559 20.3942C23.9675 20.3942 23.5819 20.5806 23.2991 20.9533C23.0292 21.3132 22.8943 21.8273 22.8943 22.4956H19.7133C19.739 21.4031 19.9704 20.4906 20.4073 19.758C20.8572 19.0254 21.442 18.4856 22.1617 18.1386C22.8943 17.7916 23.704 17.6181 24.5908 17.6181C26.1203 17.6181 27.2706 18.0101 28.0417 18.7941C28.8257 19.5781 29.2177 20.5999 29.2177 21.8594C29.2177 23.2346 28.7486 24.5134 27.8104 25.6959C26.8721 26.8654 25.6769 28.0093 24.2245 29.1275H29.4298V31.8072H19.7519V29.3588Z" fill="white"/>
</svg>
