<svg width="694" height="706" viewBox="0 0 694 706" fill="none" xmlns="http://www.w3.org/2000/svg">
<path d="M657.355 366.39C657.009 407.412 622.985 438.68 605.511 475.257C588.802 510.232 579.828 549.37 555.677 579.219C530.996 609.723 500.2 636.184 464.158 649.961C428.539 663.576 389.18 655.122 351.181 657.384C312.966 659.66 273.12 678.444 237.468 663.458C201.516 648.347 186.699 603.445 158.019 576.194C130.774 550.307 89.6384 539.293 71.5923 505.846C53.5369 472.381 65.7077 430.491 59.0966 392.846C52.3177 354.246 24.4324 317.853 31.8496 279.546C39.2475 241.339 79.642 220.72 98.8763 187.4C119.031 152.486 117.715 102.946 148.385 77.6701C178.73 52.6619 222.667 55.4381 261.517 53.3633C297.295 51.4526 331.878 62.2328 367.585 65.9637C404.305 69.8005 443.502 59.3032 476.928 75.8711C510.393 92.4585 531.418 127.509 553.831 158.278C575.617 188.186 590.802 221.637 607.366 254.936C625.639 291.669 657.701 325.225 657.355 366.39Z" fill="#00FFD1"/>
<path d="M657.355 366.39C657.009 407.412 622.985 438.68 605.511 475.257C588.802 510.232 579.828 549.37 555.677 579.219C530.996 609.723 500.2 636.184 464.158 649.961C428.539 663.576 389.18 655.122 351.181 657.384C312.966 659.66 273.12 678.444 237.468 663.458C201.516 648.347 186.699 603.445 158.019 576.194C130.774 550.307 89.6384 539.293 71.5923 505.846C53.5369 472.381 65.7077 430.491 59.0966 392.846C52.3177 354.246 24.4324 317.853 31.8496 279.546C39.2475 241.339 79.642 220.72 98.8763 187.4C119.031 152.486 117.715 102.946 148.385 77.6701C178.73 52.6619 222.667 55.4381 261.517 53.3633C297.295 51.4526 331.878 62.2328 367.585 65.9637C404.305 69.8005 443.502 59.3032 476.928 75.8711C510.393 92.4585 531.418 127.509 553.831 158.278C575.617 188.186 590.802 221.637 607.366 254.936C625.639 291.669 657.701 325.225 657.355 366.39Z" fill="url(#paint0_linear)"/>
<defs>
<linearGradient id="paint0_linear" x1="103.73" y1="502.138" x2="413.194" y2="351.762" gradientUnits="userSpaceOnUse">
<stop stop-color="#5AF823"/>
<stop offset="1" stop-color="white" stop-opacity="0"/>
</linearGradient>
</defs>
</svg>
