<svg width="81" height="82" viewBox="0 0 81 82" fill="none" xmlns="http://www.w3.org/2000/svg">
<path d="M73.0891 33.248H76.253H79.4169C78.4471 26.4613 73.7266 20.8042 67.223 18.6368L63.5972 17.4283L69.9251 15.8463L73.089 14.2642L71.0134 12.6031C67.2372 9.58148 62.5451 7.93632 57.7074 7.93632H57.2692C59.5583 6.79091 61.3081 5.3798 63.5972 4.23455C59.1693 0.692452 48.7838 -0.346771 40.5005 7.93632C32.1747 -0.389499 21.5327 0.788984 17.4039 4.09212C19.6929 5.23753 21.4427 6.79091 23.7318 7.93632H23.2936C18.4559 7.93632 13.7638 9.58164 9.98766 12.6031L7.9119 14.2642L14.2398 15.8463L17.4037 17.4283L13.7779 18.6368C7.27447 20.804 2.55374 26.4613 1.58398 33.248H4.74802H7.9119L5.59751 35.5624C3.02833 38.1316 1.58398 41.6181 1.58398 45.252V45.9038H4.74802H7.9119L7.07983 47.0144C4.60401 50.3144 3.74662 54.5556 4.74802 58.5597L7.9119 56.9776L11.0758 55.3956C10.0744 59.3996 10.9318 63.6409 13.4076 66.9409L14.2397 68.0515L21.9724 61.374C22.7688 62.546 24.4042 62.9631 25.6915 62.1048C27.9452 60.602 29.9527 59.2636 31.0086 58.5595C31.0086 59.8076 31.6968 60.9562 32.7977 61.5447C33.8988 62.1348 35.234 62.07 36.2734 61.377L38.746 59.7301C39.8075 59.0213 41.1933 59.0213 42.2549 59.7301L44.7275 61.377C45.7669 62.07 47.102 62.1347 48.2031 61.5447C49.3042 60.9562 49.9923 59.8078 49.9923 58.5595C50.8541 59.1341 48.6265 57.6488 55.3093 62.1048C56.616 62.9764 58.2487 62.5224 59.0285 61.374L66.7612 68.0515L67.5933 66.9409C70.0691 63.6409 70.9265 59.3996 69.9251 55.3956L73.089 56.9776L76.2528 58.5597C77.2542 54.5556 76.3969 50.3144 73.921 47.0144L73.089 45.9038H76.2528H79.4167V45.252C79.4167 41.6183 77.9724 38.1316 75.4032 35.5624L73.0891 33.248Z" fill="white"/>
<path d="M31.009 49.5962C34.7948 49.5962 37.8638 46.5272 37.8638 42.7414C37.8638 38.9557 34.7948 35.8867 31.009 35.8867C27.2233 35.8867 24.1543 38.9557 24.1543 42.7414C24.1543 46.5272 27.2233 49.5962 31.009 49.5962Z" fill="#7545FF" fill-opacity="0.2"/>
<path d="M49.9924 49.595C53.7782 49.595 56.8472 46.526 56.8472 42.7402C56.8472 38.9545 53.7782 35.8855 49.9924 35.8855C46.2067 35.8855 43.1377 38.9545 43.1377 42.7402C43.1377 46.526 46.2067 49.595 49.9924 49.595Z" fill="#7545FF" fill-opacity="0.2"/>
<path d="M60.9698 45.7106C60.3544 44.4784 60.008 43.1478 59.9051 41.7905C59.8402 40.9584 59.8671 40.1167 59.9779 39.2815C61.2877 29.3958 53.5946 20.592 43.5966 20.592H37.4047C27.4067 20.592 19.7136 29.3958 21.0234 39.2815C21.316 41.4819 21.025 43.7237 20.0315 45.7106C19.0285 47.715 19.4224 50.137 21.0076 51.7221L23.265 53.9795C23.6715 53.353 24.1445 52.7678 24.6808 52.2315C26.5127 50.3996 28.9363 49.2921 31.5008 49.0992L31.496 49.0486C27.8357 49.3357 24.6808 46.4356 24.6808 42.7397C24.6808 39.2451 27.5141 36.4118 31.0088 36.4118C33.3501 36.4118 35.3956 37.6836 36.4904 39.5756C37.7057 41.6813 37.6239 44.3552 36.1709 46.4003L36.7167 49.1291C36.7895 49.493 36.9129 49.8364 37.0773 50.1527C37.7276 51.404 39.0326 52.2315 40.5007 52.2315C41.9688 52.2315 43.2739 51.4041 43.9241 50.1527C44.0887 49.8364 44.212 49.493 44.2848 49.1291L44.8306 46.4003C44.0966 45.3672 43.6646 44.1033 43.6646 42.7397C43.6646 39.2432 46.4993 36.4118 49.9925 36.4118C53.5017 36.4118 56.3204 39.2609 56.3204 42.7397C56.3204 46.487 53.0925 49.3559 49.4894 49.047L49.4847 49.0977C52.0555 49.2891 54.4838 50.3948 56.3204 52.2315C56.8567 52.7678 57.3298 53.3531 57.7363 53.9795L59.9937 51.7221C61.5787 50.1369 61.9728 47.7149 60.9698 45.7106Z" fill="white"/>
<path d="M44.5118 31.666H36.4912C35.6175 31.666 34.9092 32.3743 34.9092 33.248C34.9092 34.1217 35.6175 34.8301 36.4912 34.8301H44.5118C45.3854 34.8301 46.0938 34.1217 46.0938 33.248C46.0938 32.3742 45.3853 31.666 44.5118 31.666Z" fill="#7545FF" fill-opacity="0.2"/>
<path d="M79.4175 34.8299C79.8761 34.8299 80.3121 34.6308 80.6128 34.2844C80.9131 33.938 81.0486 33.4783 80.9837 33.0242C80.4662 29.4033 78.954 26.0049 76.6103 23.1966C74.5922 20.7783 72.0336 18.8885 69.1463 17.672C71.3753 17.0938 69.4972 17.7468 73.7971 15.6795C74.2796 15.4383 74.6059 14.9677 74.6627 14.4314C74.7196 13.8949 74.4991 13.3665 74.078 13.0294L72.0023 11.3683C69.1566 9.09124 65.7967 7.5347 62.25 6.8134C62.9153 6.40258 63.5818 6.01186 64.3055 5.64979C64.7878 5.40846 65.114 4.93783 65.1708 4.40152C65.2276 3.86521 65.007 3.33666 64.5857 2.99975C61.8681 0.825399 57.675 -0.268421 53.3695 0.0741889C50.0433 0.338624 45.2133 1.56189 40.4995 5.76246C31.9161 -1.85107 21.1548 -0.934176 16.4157 2.85716C15.9945 3.19408 15.774 3.72247 15.8308 4.25894C15.8875 4.7954 16.2136 5.26588 16.6962 5.50721C17.4607 5.8897 18.1652 6.32488 18.8737 6.78855C15.2816 7.49893 11.8778 9.06481 8.99938 11.3681L6.92409 13.0293C6.45457 13.405 6.23872 14.0144 6.36706 14.602C6.4954 15.1894 6.94562 15.6534 7.52908 15.7993L13.108 17.1939C6.12367 19.5922 1.06491 25.7043 0.0188831 33.0241C-0.0459992 33.4781 0.089304 33.9378 0.38982 34.2842C0.690177 34.6306 1.12631 34.8139 1.58508 34.8139H4.10741C-0.543377 39.8119 0.0486339 45.6505 0.00321637 45.9035C0.00321637 46.7772 0.711541 47.4697 1.58524 47.4697H4.86733C2.83715 50.9096 2.23168 55.0139 3.21441 58.9431C3.33088 59.4085 3.65229 59.7961 4.08811 59.9966C4.52393 60.1971 5.02732 60.1889 5.45649 59.9743L9.09227 58.1563C8.84239 64.6705 12.6383 68.3819 12.9748 68.9995C13.5267 69.736 14.584 69.8448 15.2748 69.2483L21.9423 63.4906C22.9305 64.1079 24.1598 64.3181 25.3516 63.9815C26.4185 65.9148 27.8042 67.6755 29.4278 69.1608V79.4412C29.4278 80.3149 30.1361 81.0232 31.0098 81.0232H49.9934C50.8671 81.0232 51.5754 80.3149 51.5754 79.4412V69.1608C53.2003 67.674 54.5863 65.9126 55.6534 63.9783C56.8071 64.2975 58.048 64.1134 59.0584 63.4882L65.7285 69.2482C66.4257 69.8503 67.4815 69.7291 68.0285 68.9994C68.3451 68.4177 72.1602 64.6605 71.9109 58.1561L75.5467 59.9741C75.9757 60.1887 76.4793 60.1969 76.9151 59.9964C77.3509 59.7958 77.6723 59.4084 77.7888 58.943C78.7715 55.0138 78.1659 50.9246 76.136 47.4854H79.418C80.2917 47.4854 81 46.7772 81 45.9034V45.2515C81 41.4069 79.5102 37.6391 76.8958 34.8295H79.4175V34.8299ZM22.5922 39.0738C21.4088 30.1441 28.3645 22.174 37.4053 22.174H43.5971C52.6412 22.174 59.5931 30.1468 58.4102 39.0736C58.3599 39.4525 58.326 39.8313 58.3069 40.2086H57.4859C56.4156 37.0637 53.407 34.8299 49.9931 34.8299C47.4972 34.8299 45.1526 36.0226 43.6685 37.9937H37.3341C35.8507 36.0231 33.5056 34.8299 31.0093 34.8299C27.1895 34.8299 23.9937 37.5516 23.2586 41.1578H22.7101C22.7232 40.4716 22.6856 39.7755 22.5922 39.0738ZM58.8755 50.6035L57.8902 51.5888C57.7441 51.4263 57.594 51.2675 57.4394 51.1131C56.6302 50.304 55.7181 49.6184 54.7339 49.0672C56.4979 47.7421 57.6902 45.697 57.8752 43.3726H58.5278C58.7356 44.4399 59.0771 45.4606 59.5556 46.4186C60.2546 47.8158 59.9815 49.4977 58.8755 50.6035ZM35.7551 42.7398C35.7551 45.3694 33.625 47.4857 31.0092 47.4857C28.3922 47.4857 26.2633 45.3566 26.2633 42.7398C26.2633 40.123 28.3924 37.9939 31.0092 37.9939C33.5807 37.9939 35.7551 40.0747 35.7551 42.7398ZM38.4812 49.423C38.3819 49.2318 38.3102 49.0288 38.2682 48.8191L37.8474 46.7152C38.5499 45.5114 38.9191 44.1509 38.9191 42.7396C38.9191 42.2065 38.864 41.6607 38.7582 41.1418H42.2439C42.1381 41.6607 42.083 42.2065 42.083 42.7396C42.083 44.1506 42.4522 45.5108 43.1547 46.715L42.7339 48.8191C42.6919 49.0288 42.6203 49.2318 42.5206 49.4235C42.1276 50.1797 41.3536 50.6496 40.5008 50.6496C39.6483 50.6496 38.8745 50.1797 38.4812 49.423ZM49.6131 47.4699C47.2016 47.2812 45.2469 45.2623 45.2469 42.7398C45.2469 40.0803 47.4158 37.9939 49.9928 37.9939C52.5472 37.9939 54.7387 40.0787 54.7387 42.7398C54.7388 45.5207 52.3418 47.7036 49.6131 47.4699ZM21.447 46.4182C21.7815 45.7491 22.05 45.0476 22.2528 44.3217H23.2586C23.6515 46.2501 24.7485 47.9253 26.2682 49.0669C25.2843 49.6181 24.372 50.3035 23.5629 51.1129C23.4083 51.2675 23.2583 51.4261 23.1121 51.5886L22.1268 50.6034C21.0208 49.4977 20.7477 47.8158 21.447 46.4182ZM32.5912 77.8595V71.5154C35.0738 72.9808 37.7623 73.7462 40.501 73.7462C43.2398 73.7462 45.9286 72.9806 48.4109 71.5156V77.8595H32.5912ZM40.501 70.5825C35.2775 70.5825 30.6072 66.9643 28.0964 62.4029L30.1035 61.0648C30.5582 61.8435 31.2247 62.4974 32.0511 62.9391C33.6692 63.8061 35.6234 63.712 37.1508 62.6938L39.6251 61.0458C40.1573 60.6903 40.8448 60.6905 41.3785 61.0467L43.8506 62.6931C45.3787 63.7118 47.3329 63.8061 48.9493 62.9397C49.7764 62.4976 50.4435 61.8434 50.8983 61.0644L52.9055 62.4028C50.3976 66.9594 45.7292 70.5825 40.501 70.5825ZM56.1874 60.7885C56.0336 60.6858 56.9428 61.2922 50.8706 57.2432C50.3851 56.9196 49.7608 56.8894 49.2465 57.1646C48.732 57.4397 48.4109 57.9759 48.4109 58.5594C48.4109 59.2259 48.0458 59.8352 47.4564 60.1502C46.8696 60.4648 46.1604 60.4303 45.605 60.0602L43.1338 58.4142C41.5345 57.3465 39.4678 57.3465 37.8696 58.4133L35.3963 60.0607C34.8417 60.4303 34.1325 60.4648 33.544 60.1494C32.9561 59.8353 32.591 59.2261 32.591 58.5594C32.591 57.9759 32.2699 57.4397 31.7555 57.1646C31.2412 56.8894 30.617 56.9194 30.1314 57.2432C24.3477 61.0994 24.6355 60.9782 24.2113 60.9782C23.6398 60.9782 23.0991 60.5318 23.0991 59.8692C23.0991 55.0532 26.8157 51.0382 31.6216 50.6765C33.0911 50.5638 34.5888 50.8135 35.9817 51.3976C36.9844 52.9 38.6648 53.8135 40.5008 53.8135C42.3367 53.8135 44.0176 52.8999 45.0199 51.3976C46.4092 50.8154 47.9029 50.5656 49.3674 50.6752C54.1987 51.0351 57.9025 55.0657 57.9025 59.8694C57.9027 60.7584 56.9243 61.2797 56.1874 60.7885ZM77.7991 44.3217H73.0897C72.4906 44.3217 71.9429 44.66 71.675 45.1958C71.4071 45.7317 71.4645 46.3729 71.8237 46.8522L72.6565 47.9636C74.449 50.3529 75.2801 53.2659 75.0459 56.1867L70.6334 53.9806C70.0806 53.7043 69.4179 53.7749 68.936 54.1616C68.4541 54.5482 68.2413 55.1801 68.3913 55.7796C69.2558 59.2368 68.57 62.85 66.5099 65.7436L60.9338 60.9284C61.0202 60.5859 61.0671 60.2313 61.0671 59.8695C61.0671 58.2357 60.7498 56.6414 60.1239 55.1303C59.9992 54.8296 59.8599 54.534 59.7112 54.243L61.1131 52.841C63.1838 50.7703 63.695 47.6205 62.3858 45.004C61.9045 44.0403 61.6092 42.983 61.5018 41.8579C61.5027 41.8354 61.5051 41.8134 61.5051 41.7908C61.5051 41.6818 61.494 41.5754 61.473 41.4727C61.4355 40.8244 61.4579 40.1591 61.5467 39.4895C62.9806 28.6675 54.5521 19.0103 43.597 19.0103H37.4051C26.4851 19.0103 18.0166 28.6303 19.4555 39.4902C19.7192 41.4724 19.4291 43.3787 18.6171 45.0028C17.3075 47.6204 17.8188 50.7702 19.8893 52.8409L21.2895 54.2409C20.4009 55.9789 19.9355 57.901 19.9355 59.8692C19.9355 60.2308 19.9824 60.5856 20.0688 60.928L14.4927 65.7436C12.4326 62.8506 11.7466 59.2371 12.6113 55.7796C12.7613 55.1801 12.5484 54.5484 12.0666 54.1616C11.5845 53.775 10.9216 53.7044 10.3692 53.9806L5.95672 56.1869C5.51346 50.6626 8.87879 47.409 9.17867 46.8522C9.5379 46.3729 9.5955 45.7317 9.32743 45.1958C9.05935 44.66 8.51165 44.3217 7.91268 44.3217H3.20302C3.67033 38.3762 7.91157 35.7838 9.03103 34.3665C9.48346 33.9141 9.61876 33.2334 9.37379 32.6425C9.12898 32.0513 8.55216 31.666 7.9122 31.666H3.51002C4.89708 26.2621 8.89319 21.9324 14.2789 20.1377L17.9047 18.9291C18.5117 18.7267 18.937 18.1787 18.9824 17.5405C19.0278 16.9021 18.6842 16.2997 18.112 16.0134C13.7693 13.8601 15.8421 14.6338 11.4037 13.5064C14.8124 10.9309 19.0132 9.51835 23.2942 9.51835H23.7324C24.4659 9.51835 25.1033 9.01401 25.272 8.30015C25.4407 7.58629 25.0962 6.84995 24.4402 6.52174C23.3844 5.99335 22.4435 5.36478 21.4476 4.69918C21.1634 4.50913 20.8763 4.31749 20.584 4.12632C24.9237 2.45632 32.7846 2.45663 39.3828 9.05516C40.0006 9.67296 41.0023 9.67296 41.6201 9.05516C45.9954 4.67988 50.561 3.47149 53.621 3.2281C56.0629 3.03377 58.4909 3.4017 60.4385 4.21399C60.151 4.39281 59.8682 4.57164 59.5882 4.74903C58.5843 5.38456 57.6361 5.98464 56.5627 6.52174C55.9066 6.84995 55.5622 7.58629 55.7309 8.30015C55.8996 9.01417 56.5369 9.51835 57.2705 9.51835H57.7087C65.1281 9.51835 70.083 13.9057 70.1718 13.9549L69.3742 14.3537L63.2148 15.8936C62.5325 16.0642 62.0447 16.6647 62.0178 17.3675C61.9909 18.0705 62.431 18.7065 63.0984 18.9291L66.7243 20.1378C72.1099 21.9324 76.1058 26.2622 77.493 31.6661H73.0905C72.4507 31.6661 71.8739 32.0516 71.6289 32.6427C71.384 33.2338 71.5194 33.9142 71.9717 34.3667L74.2861 36.6811C76.3218 38.7171 77.5742 41.4605 77.7991 44.3217Z" fill="#7545FF" fill-opacity="0.2"/>
<path d="M34.1738 28.5022H46.8297C47.7033 28.5022 48.4117 27.7938 48.4117 26.9202C48.4117 26.0465 47.7033 25.3381 46.8297 25.3381H34.1738C33.3001 25.3381 32.5918 26.0465 32.5918 26.9202C32.5918 27.794 33.3 28.5022 34.1738 28.5022Z" fill="#7545FF" fill-opacity="0.2"/>
</svg>
