<svg width="129" height="129" viewBox="0 0 129 129" fill="none" xmlns="http://www.w3.org/2000/svg">
<path d="M82.2732 46.554L63.5966 27.8774C62.5548 26.8358 60.866 26.8358 59.8239 27.8774L38.4794 49.2219C37.4379 50.2637 37.4379 51.9525 38.4794 52.9946L57.156 71.6712C58.1978 72.7127 59.8867 72.7127 60.9287 71.6712L82.2732 50.3267C83.3148 49.2846 83.3148 47.5958 82.2732 46.554Z" fill="#7545FF" fill-opacity="0.1"/>
<path d="M127.339 0.205429C126.335 -0.211298 125.179 0.0177252 124.41 0.785924L0.789498 124.41C-0.261358 125.458 -0.263373 127.16 0.784711 128.21C1.29011 128.717 1.97666 129.001 2.69218 129H126.313C127.797 129 129 127.797 129 126.312V2.68866C128.999 1.60099 128.344 0.620896 127.339 0.205429Z" fill="#7545FF" fill-opacity="0.1"/>
<path d="M24.1914 86.0017C22.7072 86.0017 21.5039 84.7984 21.5039 83.3142V72.5645C21.5039 71.0803 22.7072 69.877 24.1914 69.877C25.6756 69.877 26.8789 71.0803 26.8789 72.5645V76.8267L38.4131 65.2924C39.4806 64.2615 41.182 64.2909 42.2132 65.3584C43.219 66.3999 43.219 68.0509 42.2132 69.0922L26.0888 85.2166C25.5851 85.7195 24.9029 86.0017 24.1914 86.0017Z" fill="#7545FF" fill-opacity="0.1"/>
<path d="M34.9411 86.0012H24.1914C22.7072 86.0012 21.5039 84.7979 21.5039 83.3137C21.5039 81.8295 22.7072 80.6262 24.1914 80.6262H34.9411C36.4253 80.6262 37.6286 81.8295 37.6286 83.3137C37.6286 84.7979 36.4253 86.0012 34.9411 86.0012Z" fill="#7545FF" fill-opacity="0.1"/>
<path d="M72.5635 96.7511C71.0793 96.7511 69.876 95.5478 69.876 94.0636V72.5644C69.876 71.0802 71.0793 69.877 72.5635 69.877C74.0477 69.877 75.251 71.0802 75.251 72.5644V87.5763L78.723 84.1042C79.7905 83.073 81.4919 83.1028 82.5231 84.1702C83.5291 85.2118 83.5291 86.8628 82.5231 87.9043L74.4609 95.9665C73.9572 96.4686 73.275 96.7508 72.5635 96.7511Z" fill="#FAFAFA"/>
<path d="M72.5639 96.7513C71.8507 96.7525 71.1661 96.4703 70.6613 95.9664L62.599 87.9042C61.5681 86.8368 61.5976 85.1354 62.6651 84.1042C63.7066 83.0984 65.3576 83.0984 66.3989 84.1042L74.4611 92.1664C75.5089 93.2175 75.5064 94.9191 74.4553 95.967C73.9532 96.4678 73.2732 96.7497 72.5639 96.7513Z" fill="#FAFAFA"/>
<path d="M126.313 129H2.69228C1.20807 129.003 0.00277555 127.802 4.17009e-06 126.318C-0.00125555 125.602 0.282937 124.915 0.789596 124.41L124.41 0.7895C125.458 -0.261358 127.16 -0.263374 128.21 0.784713C128.717 1.29011 129.001 1.97666 129 2.69218V126.313C129 127.797 127.797 129 126.313 129ZM9.17957 123.625H123.625V9.17949L9.17957 123.625Z" fill="#7545FF" fill-opacity="0.1"/>
<path d="M59.045 72.4524C58.3369 72.4536 57.6573 72.1734 57.156 71.6732L38.4794 52.9957C37.4379 51.9539 37.4379 50.2649 38.4794 49.2228L59.8239 27.8774C60.8657 26.8358 62.5546 26.8358 63.5966 27.8774L82.2732 46.5548C83.3148 47.5967 83.3148 49.2856 82.2732 50.3277L60.9287 71.6732C60.4285 72.1719 59.7511 72.4521 59.045 72.4524ZM44.1411 51.1069L59.045 66.0114L76.617 48.4386L61.7132 33.5341L44.1411 51.1069Z" fill="#7545FF" fill-opacity="0.1"/>
<path d="M24.4491 86.0002C22.9828 86.0002 21.7939 84.8113 21.7939 83.345V72.7246C21.7939 71.2582 22.9828 70.0694 24.4491 70.0694C25.9155 70.0694 27.1043 71.2582 27.1043 72.7246V76.9355L38.4998 65.5399C39.5545 64.5214 41.2354 64.5505 42.2542 65.6051C43.2478 66.6341 43.2478 68.2653 42.2542 69.294L26.3237 85.2245C25.8261 85.7214 25.152 86.0002 24.4491 86.0002Z" fill="#7545FF" fill-opacity="0.1"/>
<path d="M35.0473 85.9999H24.4447C22.9808 85.9999 21.7939 84.813 21.7939 83.3492C21.7939 81.8853 22.9808 80.6985 24.4447 80.6985H35.0473C36.5112 80.6985 37.6981 81.8853 37.6981 83.3492C37.6981 84.813 36.5112 85.9999 35.0473 85.9999Z" fill="#7545FF" fill-opacity="0.1"/>
</svg>
