<svg width="44" height="44" viewBox="0 0 44 44" fill="none" xmlns="http://www.w3.org/2000/svg">
<circle cx="22" cy="22" r="21.25" fill="white" stroke="#7545FF" stroke-width="1.5"/>
<path d="M32.7762 14.8002C31.7222 11.392 28.9464 8.61619 25.5382 7.56217C24.3436 7.19319 23.1138 7 21.9192 7C19.4772 7 17.1232 7.75542 15.1556 9.23119C12.2392 11.3744 10.5 14.8002 10.5 18.4192C10.5 20.9138 11.2906 23.2856 12.7838 25.2707L21.9192 36.9827L31.0545 25.2707C33.2856 22.2841 33.9181 18.4719 32.7762 14.8002ZM21.9192 24.568C18.5286 24.568 15.7704 21.8098 15.7704 18.4192C15.7704 15.0286 18.5286 12.2704 21.9192 12.2704C25.3098 12.2704 28.068 15.0286 28.068 18.4192C28.068 21.8098 25.3098 24.568 21.9192 24.568Z" fill="#807DFB"/>
<path d="M31.0543 25.2707L21.9189 36.9827V24.568C25.3096 24.568 28.0677 21.8098 28.0677 18.4192C28.0677 15.0286 25.3096 12.2704 21.9189 12.2704V7C23.1136 7 24.3433 7.19325 25.5379 7.56217C28.9461 8.61619 31.7219 11.392 32.7759 14.8002C33.9179 18.4719 33.2854 22.2841 31.0543 25.2707Z" fill="#7545FF"/>
</svg>
