<?xml version="1.0" encoding="UTF-8" standalone="no"?>
<!DOCTYPE svg PUBLIC "-//W3C//DTD SVG 1.1//EN" "http://www.w3.org/Graphics/SVG/1.1/DTD/svg11.dtd">
<svg width="100%" height="100%" viewBox="0 0 1967 1905" version="1.1" xmlns="http://www.w3.org/2000/svg" xmlns:xlink="http://www.w3.org/1999/xlink" xml:space="preserve" xmlns:serif="http://www.serif.com/" style="fill-rule:evenodd;clip-rule:evenodd;stroke-linejoin:round;stroke-miterlimit:2;">
    <g transform="matrix(4.16667,0,0,4.16667,0,0)">
        <path d="M402.209,224.784C494.22,277.906 494.22,364.035 402.208,417.158C310.197,470.28 161.018,470.281 69.007,417.158C-23.003,364.036 -23.002,277.907 69.008,224.785C161.02,171.662 310.199,171.662 402.209,224.784Z" style="fill:rgb(234,235,234);fill-rule:nonzero;"/>
        <path d="M370.924,368.171C355.473,359.251 355.473,344.789 370.924,335.869C386.373,326.95 411.422,326.95 426.871,335.87C442.321,344.79 442.321,359.251 426.871,368.171C411.422,377.091 386.373,377.091 370.924,368.171Z" style="fill:rgb(215,217,217);fill-rule:nonzero;"/>
        <path d="M56.679,369.409L16.038,345.945C13.747,344.622 13.747,342.477 16.038,341.155L252.428,204.675C254.719,203.352 258.433,203.352 260.725,204.675L301.367,228.138C303.658,229.461 303.658,231.606 301.367,232.928L64.976,369.409C62.685,370.732 58.97,370.732 56.679,369.409Z" style="fill:rgb(215,217,217);fill-rule:nonzero;"/>
        <path d="M202.761,327.591L237.698,307.39C241.299,305.311 243.1,302.586 243.1,299.861C243.1,297.135 243.115,295.001 243.115,295.001L206.866,274.561C204.945,273.452 203.388,270.756 203.388,268.537L203.388,225.463L142.366,260.726L142.363,303.8C142.363,306.017 143.92,308.714 145.841,309.823L176.677,327.592C183.88,331.75 195.557,331.749 202.761,327.591Z" style="fill:rgb(0,178,167);fill-rule:nonzero;"/>
        <path d="M189.718,330.71C184.998,330.71 180.278,329.67 176.677,327.592L157.015,316.262L157.015,311.427L153.421,309.344L157.012,311.418L157.02,311.413L176.672,322.733C180.274,324.813 184.996,325.853 189.717,325.853C189.917,325.853 190.116,325.851 190.315,325.847L190.315,330.676C194.832,330.595 199.31,329.591 202.764,327.583L216.41,319.699L202.761,327.591C199.159,329.67 194.439,330.71 189.718,330.71ZM193.129,325.67C196.657,325.289 200.028,324.311 202.757,322.736L226.493,309.02L202.764,322.744C200.031,324.317 196.657,325.299 193.129,325.67ZM243.108,296.258L243.108,295.306C243.111,295.248 243.113,295.189 243.114,295.131C243.113,295.321 243.111,295.715 243.108,296.258Z" style="fill:rgb(0,92,77);fill-rule:nonzero;"/>
        <path d="M148.803,306.413C148.079,305.677 147.474,304.737 147.077,303.753C147.475,304.735 148.081,305.676 148.803,306.413Z" style="fill:rgb(0,92,77);fill-rule:nonzero;"/>
        <path d="M157.015,316.265L145.831,309.821C143.924,308.716 142.357,306.026 142.357,303.797L142.357,298.413L142.363,298.41L142.363,303.8C142.363,306.017 143.92,308.714 145.841,309.823L157.015,316.262L157.015,316.265Z" style="fill:rgb(146,149,150);fill-rule:nonzero;"/>
        <path d="M157.015,316.262L145.841,309.823C143.92,308.714 142.363,306.017 142.363,303.8L142.363,298.41L146.572,295.98L146.572,301.375C146.572,302.139 146.757,302.96 147.077,303.753C147.474,304.737 148.079,305.677 148.803,306.413C149.19,306.808 149.611,307.145 150.05,307.399L153.421,309.344L157.015,311.427L157.015,316.262Z" style="fill:rgb(0,60,49);fill-rule:nonzero;"/>
        <path d="M146.573,301.375C146.573,303.593 148.129,306.29 150.05,307.399L176.672,322.733C183.875,326.892 195.553,326.893 202.757,322.736L237.712,302.537C244.916,298.38 244.917,291.639 237.714,287.481L211.075,272.135C209.154,271.026 207.597,268.329 207.597,266.112L207.597,232.454L146.573,267.717L146.573,301.375Z" style="fill:rgb(0,178,167);fill-rule:nonzero;"/>
        <path d="M189.717,325.853C184.996,325.853 180.274,324.813 176.672,322.733L157.02,311.413L218.158,276.23L218.158,276.225L211.075,272.135C209.154,271.026 207.597,268.329 207.597,266.112C207.597,268.329 209.154,271.026 211.075,272.135L237.714,287.481C241.315,289.56 243.116,292.285 243.115,295.009C243.115,295.109 243.113,295.207 243.108,295.306L243.108,295.005C243.108,297.736 241.301,300.467 237.707,302.534L226.493,309.02L202.757,322.736C200.028,324.311 196.657,325.289 193.129,325.67C192.199,325.768 191.258,325.824 190.315,325.836L190.315,325.847C190.116,325.851 189.917,325.853 189.717,325.853Z" style="fill:rgb(0,169,144);fill-rule:nonzero;"/>
        <path d="M157.012,311.418L153.421,309.344L152.03,308.539L157.02,311.413L157.012,311.418Z" style="fill:rgb(0,36,31);fill-rule:nonzero;"/>
        <path d="M148.818,306.428C148.813,306.423 148.808,306.418 148.803,306.413C148.081,305.676 147.475,304.735 147.077,303.753C147.049,303.681 147.021,303.609 146.994,303.537C147.39,304.604 148.037,305.635 148.818,306.428Z" style="fill:rgb(0,36,31);fill-rule:nonzero;"/>
        <path d="M153.421,309.344L150.05,307.399C149.611,307.145 149.19,306.808 148.803,306.413C148.808,306.418 148.813,306.423 148.818,306.428C149.201,306.817 149.616,307.148 150.05,307.399L152.03,308.539L153.421,309.344ZM147.077,303.753C146.757,302.96 146.572,302.139 146.572,301.375L146.572,295.98L146.573,295.98L146.573,301.375C146.573,302.07 146.725,302.811 146.994,303.537C147.021,303.609 147.049,303.681 147.077,303.753Z" style="fill:rgb(0,14,12);fill-rule:nonzero;"/>
        <path d="M207.597,266.112L207.597,260.748L207.597,266.112Z" style="fill:rgb(103,107,108);fill-rule:nonzero;"/>
        <path d="M157.02,311.413L152.03,308.539L150.05,307.399C149.616,307.148 149.201,306.817 148.818,306.428C148.037,305.635 147.39,304.604 146.994,303.537C146.725,302.811 146.573,302.07 146.573,301.375L146.573,295.98L207.597,260.748L207.597,266.112C207.597,268.329 209.154,271.026 211.075,272.135L218.158,276.225L218.158,276.23L157.02,311.413Z" style="fill:rgb(0,77,65);fill-rule:nonzero;"/>
        <path d="M243.108,295.005L243.108,299.864C243.108,302.594 241.301,305.305 237.707,307.394L202.764,327.583C199.31,329.591 194.832,330.595 190.315,330.676L190.315,325.836C194.832,325.776 199.31,324.732 202.764,322.744L237.707,302.534C241.301,300.467 243.108,297.736 243.108,295.005Z" style="fill:rgb(0,178,167);fill-rule:nonzero;"/>
        <path d="M190.315,330.676L190.315,325.836C194.832,325.776 199.31,324.732 202.764,322.744L237.707,302.534C241.301,300.467 243.108,297.736 243.108,295.005L243.108,299.864C243.108,302.594 241.301,305.305 237.707,307.394L202.764,327.583C199.31,329.591 194.832,330.595 190.315,330.676Z" style="fill:rgb(0,119,101);fill-rule:nonzero;"/>
        <path d="M48.591,343.21C50.843,344.509 54.615,344.44 57.016,343.054C87.017,325.733 263.016,224.122 293.014,206.804C295.414,205.418 297.359,202.048 297.359,199.275L297.359,8.362C297.359,5.589 295.534,2.288 293.282,0.988C291.029,-0.313 287.258,-0.243 284.856,1.143L48.863,137.393C46.462,138.779 44.515,142.15 44.515,144.923L44.513,335.836C44.513,338.608 46.338,341.909 48.591,343.21Z" style="fill:rgb(0,178,167);fill-rule:nonzero;"/>
        <path d="M57.018,343.049L293.014,206.8C295.415,205.413 297.361,202.042 297.361,199.27L297.361,8.356C297.361,5.584 295.415,4.46 293.014,5.846L57.02,142.096C54.62,143.482 52.673,146.853 52.673,149.626L52.67,340.539C52.67,343.311 54.617,344.435 57.018,343.049Z" style="fill:rgb(0,178,167);fill-rule:nonzero;"/>
        <path d="M52.67,327.76L52.673,149.626C52.673,149.271 52.705,148.907 52.766,148.539C52.867,147.938 53.042,147.324 53.277,146.722C53.731,145.577 54.412,144.474 55.228,143.576C55.776,142.975 56.382,142.468 57.02,142.1L139.661,94.384L293.014,5.846C293.712,5.443 294.371,5.253 294.955,5.253C294.988,5.253 295.02,5.253 295.052,5.254C295.243,5.262 295.426,5.289 295.598,5.337C295.6,5.338 295.602,5.338 295.604,5.339L295.605,5.339C296.671,5.639 297.361,6.705 297.361,8.356L297.361,37.358L289.2,42.07L289.199,20.482C289.199,19.302 288.612,18.62 287.756,18.62C287.405,18.62 287.009,18.734 286.591,18.976L63.434,147.815C61.994,148.646 60.826,150.669 60.826,152.333L60.824,305.988C60.824,307.168 61.412,307.85 62.268,307.85C62.618,307.85 63.014,307.736 63.433,307.494L82.098,296.718L82.098,310.77L52.67,327.76Z" style="fill:rgb(0,119,101);fill-rule:nonzero;"/>
        <path d="M56.377,348.011C53.968,349.075 50.635,349.035 48.587,347.85C46.338,346.545 44.511,343.252 44.511,340.461L44.511,323.078L52.663,327.797L52.663,345.18C52.663,347.71 54.269,348.854 56.377,348.011Z" style="fill:rgb(0,178,167);fill-rule:nonzero;"/>
        <path d="M52.534,348.776C51.077,348.776 49.657,348.469 48.587,347.85C46.338,346.545 44.511,343.252 44.511,340.461L44.511,323.078L52.663,327.797L52.663,345.18C52.663,347.155 53.642,348.285 55.074,348.285C55.477,348.285 55.915,348.196 56.377,348.011C55.227,348.519 53.865,348.776 52.534,348.776Z" style="fill:rgb(0,119,101);fill-rule:nonzero;"/>
        <path d="M52.663,327.797L52.67,345.173C52.67,347.945 54.617,349.069 57.018,347.683L293.014,211.434C295.415,210.048 297.361,206.676 297.361,203.904L297.361,186.49L52.663,327.797Z" style="fill:rgb(0,178,167);fill-rule:nonzero;"/>
        <path d="M52.67,327.792L52.67,327.76L52.67,327.792L52.663,327.797" style="fill:rgb(0,169,144);fill-rule:nonzero;"/>
        <path d="M52.67,327.792L52.67,327.76L82.098,310.77L82.098,310.799L52.67,327.792Z" style="fill:rgb(0,77,65);fill-rule:nonzero;"/>
        <path d="M55.076,348.277C53.65,348.276 52.67,347.139 52.67,345.173L52.67,327.792L82.098,310.799L82.098,317.891C82.098,319.07 82.606,320.124 83.382,320.535C83.439,320.566 83.557,320.631 83.72,320.722C84.593,321.216 86.595,322.377 87.269,322.74C87.503,322.867 87.761,322.938 88.038,322.938C88.352,322.938 88.691,322.847 89.043,322.643L289.694,206.732L292.151,211.932L207.597,260.748L146.573,295.98L146.572,295.98L142.363,298.41L142.357,298.413L57.018,347.683C56.32,348.086 55.66,348.277 55.076,348.277Z" style="fill:rgb(0,169,144);fill-rule:nonzero;"/>
        <path d="M60.824,305.988L60.826,152.333C60.826,150.669 61.994,148.646 63.434,147.815L286.591,18.976C288.032,18.144 289.199,18.819 289.199,20.482L289.207,174.14C289.207,175.803 288.039,177.826 286.598,178.658L63.433,307.494C61.992,308.325 60.824,307.651 60.824,305.988Z" style="fill:rgb(0,178,167);fill-rule:nonzero;"/>
        <path d="M60.824,305.988L60.826,152.333C60.826,150.669 61.994,148.646 63.434,147.815L286.591,18.976C288.032,18.144 289.199,18.819 289.199,20.482L289.207,174.14C289.207,175.803 288.039,177.826 286.598,178.658L63.433,307.494C61.992,308.325 60.824,307.651 60.824,305.988Z" style="fill:rgb(12,43,52);fill-rule:nonzero;"/>
        <path d="M175.013,262.674C172.76,263.974 170.933,267.137 170.933,269.739C170.933,272.34 172.76,273.394 175.013,272.093C177.266,270.792 179.092,267.629 179.092,265.028C179.092,262.427 177.265,261.373 175.013,262.674Z" style="fill:rgb(0,178,167);fill-rule:nonzero;"/>
        <path d="M44.513,241.368L44.515,144.923L44.514,241.367L44.513,241.368Z" style="fill:rgb(68,71,72);fill-rule:nonzero;"/>
        <path d="M44.513,323.079L44.511,323.078L44.513,241.368L44.514,241.367L44.513,323.079Z" style="fill:rgb(62,66,67);fill-rule:nonzero;"/>
        <path d="M52.663,327.797L44.513,323.079L44.514,241.367L44.515,144.923C44.515,143.537 45.013,141.992 45.796,140.626L50.476,143.324L53.946,145.328C53.947,145.327 53.947,145.326 53.948,145.325C53.69,145.775 53.464,146.245 53.277,146.722C53.039,147.324 52.864,147.937 52.766,148.539C52.703,148.906 52.668,149.269 52.663,149.622L52.663,327.797Z" style="fill:rgb(0,65,54);fill-rule:nonzero;"/>
        <path d="M52.766,148.539C52.864,147.937 53.039,147.324 53.277,146.722C53.042,147.324 52.867,147.938 52.766,148.539Z" style="fill:rgb(0,20,18);fill-rule:nonzero;"/>
        <path d="M45.798,140.622L45.793,140.619C46.079,140.133 46.402,139.668 46.755,139.238C46.403,139.667 46.081,140.133 45.798,140.622ZM47.447,138.482C47.449,138.48 47.451,138.478 47.453,138.477C47.451,138.478 47.449,138.48 47.447,138.482ZM47.456,138.473C47.748,138.19 48.054,137.933 48.37,137.709C48.054,137.933 47.748,138.19 47.456,138.473ZM295.563,3.163C294.918,2.253 294.141,1.489 293.304,1C294.141,1.486 294.918,2.251 295.563,3.163ZM291.743,0.364C290.985,0.158 290.156,0.056 289.317,0.056C288.629,0.056 287.935,0.125 287.267,0.261C287.935,0.124 288.629,0.056 289.317,0.056C290.156,0.056 290.984,0.158 291.743,0.364Z" style="fill:rgb(168,171,171);fill-rule:nonzero;"/>
        <path d="M53.948,145.325L50.476,143.324L45.798,140.622C46.081,140.133 46.403,139.667 46.755,139.238C46.975,138.971 47.206,138.717 47.447,138.482C47.449,138.48 47.451,138.478 47.453,138.477C47.454,138.475 47.455,138.474 47.456,138.473C47.748,138.19 48.054,137.933 48.37,137.709C48.533,137.594 48.699,137.488 48.868,137.391L284.856,1.144C285.566,0.735 286.394,0.44 287.267,0.261C287.935,0.125 288.629,0.056 289.317,0.056C290.156,0.056 290.985,0.158 291.743,0.364C292.303,0.516 292.826,0.724 293.286,0.99C293.292,0.993 293.298,0.997 293.304,1C294.141,1.489 294.918,2.253 295.563,3.163C296.496,4.482 297.153,6.108 297.316,7.642C297.145,6.397 296.51,5.593 295.605,5.339L295.604,5.339C295.602,5.338 295.6,5.338 295.598,5.337C295.426,5.289 295.243,5.261 295.052,5.254C295.019,5.253 294.986,5.253 294.953,5.253C294.368,5.253 293.708,5.442 293.009,5.842L139.661,94.384L57.02,142.096C56.381,142.465 55.774,142.975 55.228,143.576C54.752,144.098 54.32,144.69 53.948,145.325Z" style="fill:rgb(0,169,144);fill-rule:nonzero;"/>
        <path d="M55.228,143.576C55.774,142.975 56.381,142.465 57.02,142.096L139.661,94.384L57.02,142.1C56.382,142.468 55.776,142.975 55.228,143.576ZM295.605,5.339L295.604,5.339L295.605,5.339ZM295.598,5.337C295.426,5.289 295.243,5.262 295.052,5.254C295.243,5.261 295.426,5.289 295.598,5.337Z" style="fill:rgb(0,77,65);fill-rule:nonzero;"/>
        <path d="M53.946,145.328L50.476,143.324L53.948,145.325C53.947,145.326 53.947,145.327 53.946,145.328Z" style="fill:rgb(0,40,33);fill-rule:nonzero;"/>
        <path d="M310.053,31.134C309.484,30.793 308.709,30.805 307.835,31.31L85.147,159.896C83.464,160.868 82.1,163.228 82.1,165.171L82.102,317.889C82.102,319.073 82.609,320.119 83.386,320.537C83.885,320.804 86.501,322.327 87.278,322.745C87.777,323.012 88.386,323.022 89.043,322.643L311.724,194.006C313.408,193.037 314.773,190.677 314.773,188.734L314.773,35.275C314.773,34.274 314.41,33.579 313.829,33.274C313.282,32.988 310.613,31.471 310.053,31.134Z" style="fill:rgb(0,178,167);fill-rule:nonzero;"/>
        <path d="M88.037,322.438C87.186,322.438 86.494,321.388 86.494,320.097L86.494,167.379C86.494,165.629 87.775,163.411 89.29,162.535L311.976,33.949C312.372,33.721 312.756,33.6 313.087,33.6C313.83,33.6 314.273,34.226 314.273,35.275L314.273,188.734C314.273,190.484 312.992,192.7 311.475,193.573L88.793,322.21C88.531,322.361 88.277,322.438 88.037,322.438Z" style="fill:rgb(249,249,249);fill-rule:nonzero;"/>
        <path d="M313.088,33.1C312.678,33.1 312.216,33.234 311.726,33.516L89.04,162.102C87.358,163.074 85.994,165.436 85.994,167.379L85.994,320.097C85.994,321.634 86.848,322.938 88.038,322.938C88.352,322.938 88.691,322.847 89.043,322.643L311.724,194.006C313.408,193.037 314.773,190.677 314.773,188.734L314.773,35.275C314.773,33.897 314.087,33.1 313.088,33.1ZM313.088,34.1C313.683,34.1 313.773,34.837 313.773,35.275L313.773,188.734C313.773,190.327 312.606,192.344 311.223,193.14L88.545,321.777C88.359,321.884 88.188,321.938 88.038,321.938C87.482,321.938 86.995,321.078 86.995,320.097L86.995,167.379C86.995,165.785 88.161,163.765 89.54,162.968L312.226,34.383C312.631,34.15 312.918,34.1 313.088,34.1Z" style="fill:rgb(215,217,217);fill-rule:nonzero;"/>
        <path d="M83.382,320.535C83.712,320.711 86.08,322.062 87.119,322.653C86.418,322.155 86.049,321.297 85.997,320.095L85.997,177.344L82.098,175.062L82.098,317.891C82.098,319.07 82.606,320.124 83.382,320.535Z" style="fill:rgb(234,235,234);fill-rule:nonzero;"/>
        <path d="M314.771,35.252C314.759,33.328 313.402,32.549 311.726,33.516L89.04,162.102C87.358,163.074 85.994,165.436 85.994,167.379L85.997,177.344L314.771,45.251L314.771,35.252Z" style="fill:rgb(0,178,167);fill-rule:nonzero;"/>
        <path d="M307.835,31.31C308.32,31.028 308.776,30.9 309.182,30.9C309.506,30.9 309.798,30.981 310.049,31.13C310.108,31.166 310.19,31.215 310.29,31.274C310.191,31.216 310.111,31.169 310.053,31.134C309.8,30.983 309.507,30.901 309.183,30.901C308.776,30.901 308.321,31.029 307.835,31.31Z" style="fill:white;fill-rule:nonzero;"/>
        <path d="M83.738,161.107C84.159,160.607 84.639,160.185 85.147,159.896C84.639,160.19 84.159,160.61 83.738,161.107Z" style="fill:rgb(114,127,132);fill-rule:nonzero;"/>
        <path d="M86.902,164.35L83.027,162.121C83.237,161.761 83.476,161.419 83.738,161.107C84.159,160.61 84.639,160.19 85.147,159.896L307.835,31.31C308.321,31.029 308.776,30.901 309.183,30.901C309.507,30.901 309.8,30.983 310.053,31.134C310.111,31.169 310.191,31.216 310.29,31.274C311.102,31.753 313.112,32.893 313.73,33.227C313.637,33.187 313.539,33.156 313.437,33.135C313.326,33.111 313.209,33.1 313.087,33.1C312.678,33.1 312.215,33.235 311.725,33.515L186.942,105.571L89.04,162.102C88.207,162.584 87.452,163.406 86.902,164.35Z" style="fill:rgb(73,194,191);fill-rule:nonzero;"/>
        <path d="M86.902,164.35C87.452,163.406 88.207,162.584 89.04,162.102L186.942,105.571L89.04,162.102C88.207,162.584 87.452,163.406 86.902,164.35ZM313.745,33.235C313.699,33.214 313.651,33.196 313.602,33.18C313.549,33.162 313.493,33.147 313.437,33.135C313.539,33.156 313.637,33.187 313.73,33.227C313.735,33.23 313.74,33.233 313.745,33.235Z" style="fill:rgb(230,231,229);fill-rule:nonzero;"/>
        <path d="M86.904,164.351L86.902,164.35C87.452,163.406 88.207,162.584 89.04,162.102L186.942,105.571L89.044,162.101C88.214,162.588 87.45,163.408 86.904,164.351ZM313.766,33.247C313.713,33.221 313.659,33.199 313.602,33.18C313.651,33.196 313.699,33.214 313.745,33.235C313.752,33.239 313.759,33.243 313.766,33.247Z" style="fill:rgb(73,194,191);fill-rule:nonzero;"/>
        <path d="M82.1,175.063L82.098,175.062L82.1,165.167C82.1,165.074 82.103,164.98 82.109,164.886C82.103,164.982 82.1,165.077 82.1,165.171L82.1,175.063Z" style="fill:rgb(3,34,43);fill-rule:nonzero;"/>
        <path d="M85.994,177.342L82.1,175.063L82.1,165.171C82.1,165.077 82.103,164.982 82.109,164.886C82.17,163.976 82.515,162.997 83.027,162.121L86.895,164.361C86.339,165.32 85.994,166.402 85.994,167.379L85.994,177.342Z" style="fill:rgb(0,174,157);fill-rule:nonzero;"/>
        <path d="M85.997,177.344L85.994,177.342L85.994,167.379C85.994,166.402 86.339,165.32 86.895,164.361L86.896,164.361C86.339,165.32 85.994,166.402 85.994,167.379L85.997,177.344Z" style="fill:rgb(181,184,185);fill-rule:nonzero;"/>
        <path d="M85.997,177.344L82.098,175.072L82.098,175.062L82.1,175.063L85.994,177.342L85.997,177.344Z" style="fill:rgb(195,197,197);fill-rule:nonzero;"/>
        <path d="M85.997,177.344L85.994,167.379C85.994,166.402 86.339,165.32 86.896,164.361L86.898,164.363C86.9,164.359 86.902,164.355 86.904,164.351L86.908,164.353C86.342,165.311 85.997,166.394 85.997,167.381L85.997,177.344Z" style="fill:rgb(0,174,157);fill-rule:nonzero;"/>
        <path d="M86.895,164.361L83.027,162.121L86.902,164.35C86.9,164.354 86.898,164.358 86.895,164.361Z" style="fill:rgb(36,188,177);fill-rule:nonzero;"/>
        <path d="M86.896,164.361L86.895,164.361C86.898,164.358 86.9,164.354 86.902,164.35C86.9,164.354 86.898,164.358 86.896,164.361Z" style="fill:rgb(192,194,194);fill-rule:nonzero;"/>
        <path d="M86.898,164.363L86.896,164.361C86.898,164.358 86.9,164.354 86.902,164.35L86.904,164.351C86.902,164.355 86.9,164.359 86.898,164.363Z" style="fill:rgb(36,188,177);fill-rule:nonzero;"/>
        <path d="M267.81,150.37L134.436,227.374C133.207,228.084 132.21,229.81 132.21,231.229L132.21,269.465C132.21,270.884 133.207,272.609 134.438,273.317L138.334,275.559C139.565,276.267 141.558,276.265 142.788,275.556L276.143,198.563C277.373,197.853 278.37,196.127 278.371,194.708L278.387,156.461C278.388,155.042 277.39,153.317 276.16,152.609L272.264,150.367C271.033,149.659 269.04,149.66 267.81,150.37Z" style="fill:rgb(0,178,167);fill-rule:nonzero;"/>
        <path d="M132.871,229.021L132.87,229.02C133.271,228.331 133.826,227.724 134.432,227.375L166.23,209.017L134.436,227.374C133.826,227.726 133.273,228.329 132.871,229.021ZM278.369,156.1C278.365,156.072 278.361,156.044 278.356,156.016C278.181,154.699 277.264,153.245 276.16,152.609L272.264,150.367C271.649,150.014 270.845,149.837 270.041,149.837L270.029,149.837L270.051,149.837C270.851,149.837 271.65,150.012 272.263,150.364L276.159,152.605C277.29,153.253 278.225,154.764 278.369,156.1Z" style="fill:rgb(254,254,253);fill-rule:nonzero;"/>
        <path d="M141.218,233.841L132.871,229.021C133.273,228.329 133.826,227.726 134.436,227.374L166.23,209.017L267.811,150.374C268.422,150.02 269.225,149.84 270.029,149.837L270.041,149.837C270.845,149.837 271.649,150.014 272.264,150.367L276.16,152.609C277.264,153.245 278.181,154.699 278.356,156.016C278.231,155.285 277.774,154.871 277.156,154.871C276.855,154.871 276.517,154.968 276.159,155.175L142.79,232.176C142.174,232.525 141.618,233.142 141.218,233.841Z" style="fill:rgb(103,200,199);fill-rule:nonzero;"/>
        <path d="M142.41,275.734C141.176,276.259 139.449,276.197 138.339,275.559L134.443,273.318C133.209,272.609 132.212,270.882 132.212,269.463L132.212,231.23C132.212,230.511 132.469,229.719 132.869,229.02L141.218,233.841C140.806,234.54 140.559,235.322 140.559,236.031L140.559,274.274C140.559,275.549 141.361,276.135 142.41,275.734Z" style="fill:rgb(12,43,52);fill-rule:nonzero;"/>
        <path d="M142.788,232.179L276.162,155.176C277.391,154.467 278.388,155.042 278.387,156.461L278.371,194.708C278.37,196.127 277.373,197.853 276.143,198.563L142.788,275.556C141.558,276.265 140.562,275.69 140.562,274.271L140.562,236.035C140.562,234.615 141.558,232.889 142.788,232.179Z" style="fill:rgb(0,178,167);fill-rule:nonzero;"/>
        <path d="M232.455,170.785L134.432,227.375C133.826,227.724 133.271,228.331 132.869,229.02L141.218,233.841C141.618,233.142 142.174,232.525 142.79,232.176L240.788,175.597L232.455,170.785Z" style="fill:rgb(51,88,99);fill-rule:nonzero;"/>
        <path d="M240.788,175.599L142.788,232.179C141.558,232.889 140.562,234.615 140.562,236.035L140.562,274.271C140.562,275.69 141.558,276.265 142.788,275.556L240.788,218.976L240.788,175.599Z" style="fill:rgb(35,67,76);fill-rule:nonzero;"/>
        <path d="M165.389,227.522L215.956,198.326C218.053,197.115 219.752,197.975 219.752,200.247C219.752,202.518 218.052,205.342 215.955,206.552L165.392,235.745C163.296,236.956 161.595,236.096 161.594,233.825C161.593,231.555 163.292,228.733 165.389,227.522Z" style="fill:rgb(0,178,167);fill-rule:nonzero;"/>
        <path d="M175.751,237.184L175.899,237.211C175.941,237.261 175.962,237.335 175.962,237.437L175.962,243.132C175.962,243.706 175.915,244.25 175.821,244.768C175.728,245.284 175.588,245.764 175.399,246.206C175.212,246.648 174.977,247.039 174.697,247.383C174.415,247.725 174.09,248.003 173.721,248.216C173.345,248.433 173.018,248.531 172.74,248.513C172.46,248.493 172.227,248.37 172.041,248.146C171.853,247.921 171.714,247.601 171.622,247.192C171.532,246.782 171.486,246.29 171.486,245.716L171.486,240.022C171.486,239.919 171.507,239.821 171.549,239.722C171.59,239.624 171.639,239.558 171.697,239.526L172.33,239.16L172.478,239.185C172.52,239.236 172.541,239.311 172.541,239.412L172.541,245.037C172.541,245.417 172.57,245.724 172.627,245.959C172.683,246.196 172.764,246.368 172.868,246.479C172.973,246.592 173.098,246.644 173.243,246.639C173.389,246.633 173.549,246.579 173.721,246.481C173.892,246.382 174.052,246.25 174.201,246.086C174.349,245.921 174.475,245.724 174.58,245.491C174.684,245.26 174.765,244.993 174.826,244.69C174.886,244.387 174.915,244.046 174.915,243.666L174.915,238.042C174.915,237.939 174.936,237.841 174.977,237.742C175.019,237.644 175.069,237.578 175.127,237.545L175.751,237.184Z" style="fill:rgb(249,249,249);fill-rule:nonzero;"/>
        <path d="M179.673,242.572C179.673,242.471 179.655,242.398 179.618,242.354C179.581,242.31 179.517,242.286 179.427,242.283C179.336,242.281 179.214,242.295 179.063,242.327C178.912,242.359 178.719,242.396 178.485,242.439C178.255,242.479 178.067,242.471 177.915,242.421C177.764,242.369 177.643,242.277 177.552,242.144C177.46,242.011 177.397,241.839 177.36,241.622C177.324,241.407 177.306,241.161 177.306,240.884C177.306,240.606 177.342,240.312 177.415,240.001C177.488,239.69 177.593,239.391 177.731,239.103C177.87,238.815 178.037,238.549 178.235,238.305C178.433,238.062 178.66,237.866 178.915,237.719C179.17,237.572 179.398,237.49 179.598,237.478C179.799,237.463 179.969,237.499 180.111,237.584C180.25,237.67 180.36,237.799 180.438,237.971C180.516,238.144 180.56,238.338 180.572,238.554C180.577,238.653 180.556,238.753 180.512,238.852C180.468,238.951 180.417,239.018 180.36,239.05L179.758,239.397L179.582,239.423L179.454,239.323L179.266,239.259C179.189,239.253 179.072,239.295 178.915,239.385C178.758,239.475 178.62,239.596 178.501,239.748C178.381,239.901 178.321,240.085 178.321,240.298C178.321,240.399 178.336,240.475 178.365,240.53L178.527,240.622C178.609,240.632 178.721,240.624 178.865,240.602C179.007,240.58 179.193,240.544 179.423,240.495C179.886,240.403 180.213,240.49 180.403,240.755C180.593,241.019 180.689,241.431 180.689,241.985C180.689,242.264 180.65,242.556 180.572,242.866C180.493,243.175 180.38,243.476 180.231,243.77C180.082,244.065 179.901,244.337 179.684,244.587C179.468,244.837 179.224,245.039 178.954,245.195C178.677,245.355 178.435,245.437 178.223,245.443C178.013,245.449 177.834,245.402 177.689,245.301C177.542,245.2 177.431,245.056 177.353,244.87C177.274,244.684 177.232,244.481 177.227,244.262C177.222,244.163 177.243,244.064 177.286,243.964C177.331,243.865 177.381,243.799 177.438,243.764L178.04,243.417L178.216,243.413L178.348,243.558L178.556,243.662C178.644,243.675 178.776,243.631 178.954,243.529L179.196,243.361L179.427,243.138C179.496,243.055 179.556,242.966 179.602,242.87C179.65,242.773 179.673,242.674 179.673,242.572Z" style="fill:rgb(249,249,249);fill-rule:nonzero;"/>
        <path d="M183.625,236.664C183.474,236.753 183.346,236.867 183.239,237.007C183.132,237.148 183.042,237.301 182.969,237.468C182.895,237.635 182.84,237.806 182.801,237.982C182.762,238.157 182.737,238.317 182.726,238.462L184.492,237.443C184.482,237.31 184.462,237.177 184.433,237.038C184.406,236.902 184.358,236.791 184.293,236.702C184.228,236.616 184.141,236.564 184.035,236.547C183.928,236.53 183.791,236.569 183.625,236.664ZM181.711,239.853C181.711,239.335 181.755,238.822 181.844,238.312C181.933,237.803 182.06,237.331 182.227,236.896C182.393,236.463 182.596,236.08 182.832,235.749C183.069,235.418 183.333,235.169 183.625,235C183.916,234.831 184.181,234.773 184.419,234.825C184.655,234.88 184.856,235.018 185.024,235.241C185.19,235.464 185.319,235.765 185.41,236.141C185.501,236.52 185.547,236.946 185.547,237.417L185.547,238.042C185.547,238.144 185.526,238.244 185.484,238.341C185.443,238.439 185.393,238.506 185.335,238.539L182.726,240.046C182.726,240.259 182.752,240.431 182.801,240.564C182.85,240.698 182.917,240.797 183,240.859C183.083,240.922 183.18,240.95 183.289,240.942C183.399,240.935 183.511,240.897 183.625,240.831C183.791,240.736 183.927,240.628 184.031,240.507C184.136,240.387 184.221,240.261 184.289,240.129C184.347,240.023 184.393,239.944 184.43,239.895L184.578,239.769L185.203,239.407L185.355,239.429C185.399,239.479 185.419,239.556 185.413,239.66C185.409,239.793 185.368,239.983 185.293,240.23C185.218,240.477 185.104,240.741 184.952,241.024C184.802,241.306 184.616,241.58 184.394,241.846C184.174,242.112 183.916,242.33 183.625,242.497C183.333,242.666 183.069,242.728 182.832,242.686C182.596,242.642 182.393,242.501 182.227,242.264C182.06,242.028 181.933,241.705 181.844,241.298C181.755,240.891 181.711,240.409 181.711,239.853Z" style="fill:rgb(249,249,249);fill-rule:nonzero;"/>
        <path d="M188.687,233.882C188.375,234.062 188.15,234.315 188.012,234.639C187.873,234.966 187.805,235.406 187.805,235.961L187.805,239.572C187.805,239.673 187.784,239.774 187.743,239.871C187.701,239.969 187.651,240.036 187.593,240.068L187.001,240.411L186.852,240.385C186.81,240.336 186.789,240.26 186.789,240.158L186.789,233.686C186.789,233.584 186.81,233.484 186.852,233.386C186.893,233.288 186.944,233.223 187.001,233.189L187.593,232.847L187.743,232.872C187.784,232.922 187.805,232.998 187.805,233.099L187.805,233.42C187.94,233.118 188.085,232.865 188.239,232.655C188.391,232.446 188.593,232.269 188.844,232.125L189.195,231.922L189.344,231.948C189.385,231.997 189.406,232.073 189.406,232.175L189.406,233.092C189.406,233.194 189.385,233.293 189.344,233.391C189.302,233.49 189.253,233.556 189.195,233.588L188.687,233.882Z" style="fill:rgb(249,249,249);fill-rule:nonzero;"/>
        <path d="M196.148,233.393L196.296,233.42C196.338,233.469 196.359,233.545 196.359,233.647L196.359,234.634C196.359,234.735 196.338,234.835 196.296,234.933C196.254,235.031 196.205,235.096 196.148,235.129L192.726,237.105L192.577,237.079C192.536,237.03 192.515,236.953 192.515,236.852L192.515,227.88C192.515,227.779 192.536,227.679 192.577,227.581C192.62,227.482 192.668,227.417 192.726,227.384L193.359,227.018L193.507,227.045C193.55,227.094 193.571,227.169 193.571,227.271L193.571,234.882L196.148,233.393Z" style="fill:rgb(249,249,249);fill-rule:nonzero;"/>
        <path d="M200.163,228.575C200.147,228.298 200.109,228.082 200.049,227.926C199.989,227.771 199.915,227.663 199.827,227.603C199.738,227.543 199.642,227.522 199.538,227.54C199.434,227.558 199.327,227.6 199.217,227.663C199.108,227.725 199.002,227.808 198.898,227.911C198.793,228.012 198.697,228.145 198.609,228.306C198.52,228.469 198.445,228.663 198.386,228.887C198.327,229.111 198.288,229.372 198.272,229.667C198.267,229.745 198.263,229.84 198.261,229.952C198.258,230.064 198.256,230.181 198.256,230.302C198.256,230.422 198.258,230.538 198.261,230.653C198.263,230.767 198.267,230.856 198.272,230.918C198.288,231.195 198.327,231.412 198.386,231.566C198.445,231.722 198.52,231.829 198.609,231.889C198.697,231.95 198.793,231.971 198.898,231.952C199.002,231.934 199.108,231.892 199.217,231.829C199.327,231.766 199.434,231.685 199.538,231.582C199.642,231.48 199.738,231.349 199.827,231.187C199.915,231.024 199.989,230.83 200.049,230.607C200.109,230.382 200.147,230.122 200.163,229.825C200.168,229.759 200.171,229.667 200.171,229.551L200.171,228.85C200.171,228.737 200.168,228.647 200.163,228.575ZM199.217,225.997C199.504,225.832 199.763,225.761 199.995,225.784C200.227,225.808 200.428,225.909 200.597,226.09C200.766,226.269 200.902,226.514 201.002,226.827C201.104,227.139 201.163,227.503 201.179,227.92C201.183,228 201.186,228.105 201.186,228.235L201.186,229.006C201.186,229.131 201.183,229.236 201.179,229.323C201.158,229.76 201.098,230.193 200.999,230.621C200.899,231.048 200.766,231.448 200.597,231.818C200.428,232.189 200.227,232.52 199.995,232.811C199.763,233.102 199.504,233.33 199.217,233.496C198.931,233.66 198.672,233.733 198.44,233.709C198.209,233.685 198.008,233.586 197.839,233.409C197.67,233.235 197.535,232.99 197.437,232.677C197.338,232.365 197.277,232 197.256,231.586C197.251,231.506 197.248,231.404 197.245,231.281C197.243,231.157 197.241,231.032 197.241,230.902C197.241,230.771 197.243,230.641 197.245,230.51C197.248,230.38 197.251,230.271 197.256,230.185C197.272,229.749 197.331,229.318 197.432,228.888C197.534,228.459 197.67,228.056 197.839,227.681C198.008,227.305 198.209,226.973 198.44,226.682C198.672,226.39 198.931,226.163 199.217,225.997Z" style="fill:rgb(249,249,249);fill-rule:nonzero;"/>
        <path d="M203.303,226.998C203.287,227.267 203.287,227.527 203.303,227.778C203.334,228.36 203.438,228.733 203.616,228.894C203.792,229.056 204.009,229.062 204.264,228.916C204.519,228.768 204.734,228.511 204.908,228.141C205.083,227.772 205.183,227.33 205.209,226.815C205.22,226.67 205.225,226.491 205.225,226.278C205.225,226.065 205.22,225.892 205.209,225.76C205.183,225.293 205.083,224.971 204.908,224.794C204.734,224.617 204.519,224.602 204.264,224.75C204.009,224.896 203.792,225.154 203.616,225.521C203.438,225.886 203.334,226.38 203.303,226.998ZM204.24,231.845C204.35,231.783 204.461,231.688 204.577,231.561C204.691,231.435 204.795,231.281 204.888,231.096C204.983,230.914 205.059,230.705 205.119,230.471C205.18,230.237 205.209,229.986 205.209,229.717L205.209,229.203C205.167,229.31 205.113,229.432 205.045,229.569C204.977,229.705 204.895,229.844 204.799,229.982C204.702,230.121 204.59,230.255 204.464,230.384C204.336,230.514 204.19,230.625 204.03,230.717C203.769,230.867 203.533,230.914 203.323,230.856C203.111,230.797 202.932,230.659 202.784,230.444C202.635,230.229 202.518,229.95 202.432,229.606C202.346,229.261 202.298,228.88 202.287,228.46C202.282,228.323 202.28,228.164 202.28,227.978C202.28,227.793 202.282,227.631 202.287,227.488C202.298,227.056 202.346,226.619 202.432,226.175C202.518,225.732 202.635,225.318 202.784,224.931C202.932,224.545 203.111,224.199 203.323,223.897C203.533,223.595 203.769,223.37 204.03,223.219C204.19,223.126 204.336,223.069 204.464,223.052C204.59,223.034 204.702,223.039 204.799,223.066C204.895,223.093 204.977,223.137 205.045,223.196L205.209,223.371L205.209,223.051C205.209,222.949 205.229,222.85 205.272,222.752C205.313,222.653 205.362,222.588 205.42,222.555L206.014,222.212L206.162,222.238C206.204,222.287 206.225,222.363 206.225,222.465L206.225,228.978C206.225,230.098 206.049,231.044 205.698,231.817C205.346,232.59 204.86,233.155 204.24,233.512C203.974,233.666 203.728,233.745 203.502,233.752C203.276,233.757 203.079,233.704 202.912,233.593C202.746,233.48 202.613,233.32 202.514,233.114C202.415,232.907 202.36,232.667 202.35,232.396C202.344,232.297 202.364,232.198 202.41,232.098C202.452,231.998 202.504,231.932 202.561,231.899L203.092,231.593L203.279,231.616L203.412,231.783C203.48,231.902 203.572,231.978 203.689,232.011C203.807,232.046 203.991,231.99 204.24,231.845Z" style="fill:rgb(249,249,249);fill-rule:nonzero;"/>
        <path d="M208.709,227.502C208.709,227.605 208.688,227.705 208.646,227.802C208.605,227.9 208.555,227.966 208.497,227.999L207.905,228.342L207.757,228.316C207.714,228.267 207.693,228.191 207.693,228.089L207.693,221.617C207.693,221.515 207.714,221.414 207.757,221.318C207.798,221.219 207.848,221.154 207.905,221.12L208.497,220.778L208.646,220.804C208.688,220.852 208.709,220.928 208.709,221.031L208.709,227.502ZM208.536,218.117L208.685,218.141C208.727,218.192 208.748,218.268 208.748,218.369L208.748,219.452C208.748,219.555 208.727,219.655 208.685,219.753C208.644,219.851 208.594,219.916 208.536,219.95L207.866,220.338L207.717,220.312C207.675,220.262 207.654,220.186 207.654,220.084L207.654,219.001C207.654,218.9 207.675,218.799 207.717,218.7C207.759,218.603 207.809,218.537 207.866,218.505L208.536,218.117Z" style="fill:rgb(249,249,249);fill-rule:nonzero;"/>
        <path d="M213.989,224.454C213.989,224.556 213.968,224.656 213.928,224.754C213.886,224.852 213.836,224.917 213.779,224.95L213.185,225.294L213.036,225.267C212.994,225.219 212.974,225.142 212.974,225.041L212.974,221.513C212.974,220.958 212.902,220.555 212.755,220.306C212.61,220.057 212.386,220.019 212.083,220.194C211.807,220.352 211.591,220.645 211.431,221.07C211.272,221.494 211.193,221.986 211.193,222.541L211.193,226.069C211.193,226.17 211.172,226.271 211.131,226.368C211.089,226.466 211.039,226.532 210.982,226.565L210.389,226.908L210.24,226.882C210.198,226.833 210.177,226.757 210.177,226.655L210.177,220.182C210.177,220.081 210.198,219.981 210.24,219.884C210.282,219.785 210.331,219.719 210.389,219.685L210.982,219.344L211.131,219.369C211.172,219.419 211.193,219.495 211.193,219.596L211.193,219.916C211.328,219.597 211.487,219.307 211.67,219.044C211.851,218.781 212.068,218.578 212.319,218.434C212.636,218.25 212.902,218.184 213.115,218.237C213.328,218.29 213.5,218.427 213.63,218.647C213.76,218.868 213.852,219.161 213.908,219.522C213.962,219.885 213.989,220.283 213.989,220.718L213.989,224.454Z" style="fill:rgb(249,249,249);fill-rule:nonzero;"/>
        <path d="M264.435,195.349L254.722,200.957L256.226,187.333C255.065,186.719 254.325,185.208 254.325,183.037C254.325,179.168 256.677,174.674 259.579,172.998C262.48,171.323 264.833,173.102 264.833,176.97C264.833,179.141 264.092,181.508 262.931,183.463L264.435,195.349Z" style="fill:rgb(51,88,99);fill-rule:nonzero;"/>
        <path d="M264.435,195.349L255.887,190.414L254.722,200.957L264.435,195.349Z" style="fill:rgb(35,67,76);fill-rule:nonzero;"/>
        <path d="M259.579,172.998C257.681,174.094 256.022,176.399 255.098,178.944L262.931,183.466L262.931,183.463C264.093,181.508 264.833,179.141 264.833,176.97C264.833,173.102 262.48,171.323 259.579,172.998Z" style="fill:rgb(35,67,76);fill-rule:nonzero;"/>
        <path d="M212.357,127.651C209.035,125.728 204.444,126.001 199.371,128.93C189.232,134.784 181.013,149.022 181.015,160.729C181.015,166.604 183.087,170.723 186.431,172.631C187.302,173.128 192.023,175.875 192.9,176.382C196.222,178.303 200.81,178.029 205.88,175.101C216.018,169.247 224.236,155.01 224.236,143.302C224.236,137.45 222.182,133.342 218.863,131.423L212.357,127.651Z" style="fill:rgb(0,178,167);fill-rule:nonzero;"/>
        <path d="M205.877,132.702C195.74,138.559 187.52,152.794 187.521,164.501C187.522,176.209 195.742,180.955 205.88,175.101C216.018,169.247 224.246,155.01 224.236,143.302C224.226,131.595 216.007,126.849 205.877,132.702Z" style="fill:rgb(0,178,167);fill-rule:nonzero;"/>
        <path d="M216.014,158.678L216.014,160.014C213.4,164.476 209.822,168.361 205.879,170.632C201.928,172.91 198.357,173.159 195.743,171.706L195.743,168.938C195.743,163.593 199.372,157.305 204.002,154.625L206.667,153.092C209.033,151.726 211.326,151.551 213.13,152.595C214.97,153.654 216.014,155.867 216.014,158.678Z" style="fill:rgb(0,178,167);fill-rule:nonzero;"/>
        <path d="M218.863,131.423C218.84,131.409 218.817,131.396 218.794,131.383L216.341,129.961L218.863,131.423Z" style="fill:rgb(251,252,252);"/>
        <path d="M190.198,151.926L183.693,148.153C186.917,140.194 192.73,132.764 199.372,128.929C202.318,127.23 205.101,126.425 207.567,126.425C209.348,126.425 210.963,126.845 212.356,127.652L216.341,129.961L218.794,131.383C217.415,130.602 215.822,130.195 214.068,130.195C211.603,130.195 208.822,131 205.879,132.701C205.753,132.774 205.627,132.848 205.502,132.923C205.499,132.925 205.495,132.927 205.491,132.93L205.49,132.93C199.012,136.828 193.359,144.122 190.198,151.926Z" style="fill:rgb(73,194,191);fill-rule:nonzero;"/>
        <path d="M190.2,151.927L190.198,151.926C193.359,144.122 199.012,136.828 205.49,132.93C199.014,136.829 193.361,144.124 190.2,151.927ZM205.491,132.93C205.495,132.927 205.499,132.925 205.502,132.923C205.498,132.925 205.495,132.927 205.491,132.93Z" style="fill:rgb(73,194,191);fill-rule:nonzero;"/>
        <path d="M191.469,175.552C190.887,175.214 190.193,174.81 189.506,174.411C190.189,174.808 190.881,175.21 191.469,175.552ZM184.458,171.098C182.291,168.871 181.014,165.341 181.014,160.73L181.015,160.73C181.016,165.341 182.292,168.87 184.458,171.098Z" style="fill:rgb(192,193,193);fill-rule:nonzero;"/>
        <path d="M192.63,176.224C192.368,176.073 191.958,175.835 191.469,175.552C190.881,175.21 190.189,174.808 189.506,174.411C188.161,173.63 186.841,172.864 186.43,172.63C185.711,172.22 185.051,171.708 184.458,171.098C182.292,168.87 181.016,165.341 181.015,160.73L187.521,164.505C187.521,164.94 187.533,165.366 187.555,165.782C187.827,170.804 189.709,174.394 192.63,176.224Z" style="fill:rgb(0,173,153);fill-rule:nonzero;"/>
        <path d="M192.656,176.239C192.647,176.235 192.638,176.23 192.63,176.224C189.709,174.394 187.827,170.804 187.555,165.782C187.83,170.817 189.722,174.415 192.656,176.239Z" style="fill:rgb(0,173,153);fill-rule:nonzero;"/>
        <path d="M181.015,160.73L181.014,160.73C181.014,159.966 181.05,159.191 181.118,158.409C181.05,159.191 181.015,159.965 181.015,160.729L181.015,160.73ZM181.12,158.389C181.12,158.385 181.12,158.38 181.121,158.376C181.12,158.38 181.12,158.385 181.12,158.389Z" style="fill:rgb(217,218,217);fill-rule:nonzero;"/>
        <path d="M187.521,164.505L181.015,160.73L181.015,160.729C181.015,159.965 181.05,159.191 181.118,158.409C181.118,158.402 181.119,158.396 181.12,158.389C181.12,158.385 181.12,158.38 181.121,158.376C181.417,155.029 182.321,151.541 183.693,148.153L190.198,151.926C188.998,154.889 188.157,157.925 187.767,160.876C187.766,160.884 187.766,160.891 187.765,160.898C187.764,160.902 187.764,160.906 187.763,160.91C187.604,162.125 187.521,163.326 187.521,164.501L187.521,164.505Z" style="fill:rgb(0,175,161);fill-rule:nonzero;"/>
        <path d="M187.763,160.91C187.764,160.906 187.764,160.902 187.765,160.898C187.764,160.902 187.764,160.906 187.763,160.91ZM187.767,160.876C188.157,157.925 188.998,154.889 190.198,151.926L190.2,151.927C188.998,154.89 188.158,157.926 187.767,160.876Z" style="fill:rgb(0,175,161);fill-rule:nonzero;"/>
        <path d="M203.571,152.468C202.935,152.468 202.342,152.315 201.805,152.007C200.568,151.293 199.887,149.877 199.887,148.024C199.887,144.632 202.189,140.643 205.13,138.945L205.13,138.942C206.729,138.015 208.291,137.9 209.537,138.615C210.774,139.329 211.455,140.744 211.455,142.597C211.455,145.99 209.153,149.979 206.215,151.677C205.303,152.202 204.404,152.468 203.571,152.468Z" style="fill:white;fill-rule:nonzero;"/>
        <path d="M213.13,152.595C211.326,151.551 209.033,151.726 206.667,153.092L204.002,154.625C199.372,157.305 195.743,163.593 195.743,168.938L195.743,171.706C198.357,173.159 201.928,172.91 205.879,170.632C209.822,168.361 213.4,164.476 216.014,160.014L216.014,158.678C216.014,155.867 214.97,153.654 213.13,152.595Z" style="fill:white;fill-rule:nonzero;"/>
        <path d="M418.715,325.595C418.715,325.595 420.043,313.916 425.852,304.852C431.662,295.788 439.644,290.131 447.093,289.541C454.54,288.952 460.556,295.805 452.587,300.51C444.617,305.217 430.459,310.018 423.943,327.619L418.715,325.595Z" style="fill:rgb(0,178,167);fill-rule:nonzero;"/>
        <path d="M423.943,327.619L423.402,327.409C423.61,320.538 423.855,313.088 424.082,307.942C424.62,306.892 425.208,305.856 425.852,304.852C431.662,295.788 439.644,290.131 447.093,289.541C447.395,289.517 447.696,289.506 447.992,289.506C452.554,289.506 456.359,292.251 456.359,295.413C456.36,297.113 455.26,298.932 452.587,300.51C444.617,305.217 430.459,310.018 423.943,327.619Z" style="fill:rgb(0,175,161);fill-rule:nonzero;"/>
        <path d="M420.898,322.562L420.82,322.539C420.616,322.456 420.517,322.224 420.601,322.021C428.461,302.664 443.424,294.581 450.238,293.012C450.451,292.961 450.665,293.096 450.716,293.31C450.765,293.525 450.631,293.738 450.417,293.787C443.742,295.324 429.074,303.267 421.338,322.32C421.266,322.498 421.08,322.595 420.898,322.562Z" style="fill:white;fill-rule:nonzero;"/>
        <path d="M460.684,322.791C460.01,324.311 458.35,325.103 456.806,325.725C455.269,326.342 453.586,327.015 452.752,328.452C451.07,331.356 453.83,335.439 452.026,338.266C451.268,339.451 449.86,340.076 448.475,340.325C447.324,340.54 446.153,340.538 444.986,340.636C444.425,340.625 443.869,340.584 443.327,340.508C441.726,340.275 439.989,340.2 438.522,341.019C436.215,342.317 435.506,345.231 434.104,347.478C432.424,350.168 429.453,351.929 426.331,352.354C425.293,352.491 423.364,352.678 422.307,352.089L422.09,351.95L422.07,351.931C421.926,351.767 421.743,351.559 421.665,351.446L421.624,351.377C421.215,349.871 421.883,348.304 421.909,346.749C421.912,346.651 421.913,346.56 421.907,346.467C421.843,344.659 421.792,342.862 421.75,341.058C421.666,337.74 421.628,334.414 421.65,331.093C421.674,328.935 421.414,326.574 422.326,324.542C423.338,322.307 425.85,322.258 426.801,320.065C427.181,319.192 427.383,318.255 427.751,317.371C428.849,314.779 431.513,312.915 434.331,312.778C438.718,312.554 442.655,316.107 447.037,315.784C448.172,315.695 449.278,315.35 450.396,315.144C453.95,314.479 458.057,315.49 460.056,318.497C460.891,319.754 461.295,321.411 460.684,322.791Z" style="fill:rgb(0,178,167);fill-rule:nonzero;"/>
        <path d="M421.265,344.466L421.234,344.459C421.036,344.406 420.916,344.201 420.97,344.001C427.032,321.257 450.996,317.969 456.602,318.375C456.806,318.391 456.963,318.569 456.949,318.775C456.934,318.981 456.755,319.136 456.549,319.121C451.064,318.725 427.625,321.941 421.692,344.195C421.642,344.385 421.454,344.501 421.265,344.466Z" style="fill:white;fill-rule:nonzero;"/>
        <path d="M447.891,332.941L447.692,332.836C447.633,332.776 441.521,326.75 431.385,328.242C431.181,328.27 430.989,328.132 430.959,327.927C430.929,327.722 431.071,327.532 431.275,327.502C441.803,325.954 448.161,332.246 448.224,332.31C448.37,332.457 448.368,332.693 448.222,332.839C448.132,332.928 448.007,332.962 447.891,332.941Z" style="fill:white;fill-rule:nonzero;"/>
        <path d="M363.676,50.953L366.858,52.177L366.858,45.167C366.858,39.609 371.291,38.276 376.104,41.055C380.917,43.834 384.819,50.592 384.819,56.15L384.819,57.168C385.911,56.732 387.321,56.901 388.863,57.791C392.327,59.791 395.135,64.655 395.135,68.654L395.135,69.116L399.572,71.678C401.853,72.995 403.702,76.197 403.702,78.831C403.702,81.465 401.853,82.532 399.572,81.216L363.676,60.491C361.394,59.174 359.546,55.971 359.546,53.338C359.546,50.704 361.394,49.636 363.676,50.953Z" style="fill:rgb(224,224,223);fill-rule:nonzero;"/>
        <path d="M406.266,45.411L412.036,48.742C412.007,48.485 411.987,48.229 411.987,47.979L411.987,46.307C411.987,43.333 414.075,42.127 416.651,43.614C417.694,44.217 418.654,45.171 419.431,46.287C419.852,42.548 422.787,41.155 426.351,43.212C430.205,45.437 433.329,50.848 433.329,55.298L433.329,57.798C433.329,58.95 433.116,59.921 432.738,60.695L437.53,63.461C438.959,64.286 440.117,66.293 440.117,67.943C440.117,69.592 438.959,70.261 437.53,69.436L406.266,51.386C404.838,50.561 403.68,48.555 403.68,46.905C403.68,45.255 404.838,44.586 406.266,45.411Z" style="fill:rgb(224,224,223);fill-rule:nonzero;"/>
        <path d="M383.929,197.179C379.728,204.28 375.687,210.449 372.85,213.406C367.463,215.912 354.805,219.763 349.852,220.408C348.974,220.523 348.092,220.299 347.367,219.823C345.42,218.547 343.914,218.34 341.861,217.63C340.253,217.073 339.572,216.306 339.27,216.598C338.883,216.973 338.46,218.04 339.438,219.144C339.93,219.7 340.827,220.306 341.982,221.048C341.982,221.048 338.44,221.992 335.277,221.162C330.991,220.037 328.967,222.098 331.866,226.753C332.904,228.42 336.991,231.089 345.275,230.368C347.662,230.161 351.106,229.961 354.077,229.327C362.022,227.632 370.854,225.989 376.285,224.366C377.655,223.957 380.102,222.372 381.559,220.711C390.693,210.3 393.718,202.882 397.723,196.139L397.376,185.122C390.904,184.922 387.442,191.237 383.929,197.179Z" style="fill:rgb(246,157,163);fill-rule:nonzero;"/>
        <path d="M398.494,184.922C398.494,184.922 392.842,183.72 388.593,189.156C384.146,194.845 376.286,208.508 376.286,208.508C376.286,208.508 378.865,215.359 385.804,216.485L396.951,201.428C396.951,201.428 402.23,191.004 398.494,184.922Z" style="fill:rgb(51,88,99);fill-rule:nonzero;"/>
        <rect x="415.33" y="338.483" width="7.267" height="12.958" style="fill:rgb(246,157,163);fill-rule:nonzero;"/>
        <path d="M397.399,337.792L390.137,338.052L389.772,324.339L397.399,324.079L397.399,337.792Z" style="fill:rgb(246,157,163);fill-rule:nonzero;"/>
        <path d="M423.62,226.294C423.62,233.522 422.556,291.692 422.556,291.692C422.725,293.772 424.597,297.606 424.192,305.594C423.641,316.446 422.908,344.962 422.908,344.962C422.908,344.962 419.38,347.109 414.816,345.129C414.816,345.129 408.925,305.168 407.622,294.414C406.485,285.029 403.575,253.894 403.575,253.894L399.636,290.636C399.636,290.636 400.975,296.233 400.536,302.665C400.196,307.639 397.859,333.544 397.859,333.544C397.859,333.544 394.438,335.962 389.469,334.213C389.469,334.213 385.335,295.199 385.25,290.635C385.154,285.432 387.667,226.217 387.667,226.217L423.62,226.294Z" style="fill:rgb(35,67,76);fill-rule:nonzero;"/>
        <path d="M415.33,347.705L415.33,346.622C414.634,346.938 413.018,353.358 410.135,356.097C407.843,358.275 404.716,360.79 403.92,363.218C403.093,365.743 408.275,367.137 410.417,366.742C412.905,366.283 417.218,364.458 418.301,362.766C419.384,361.075 419.891,358.579 420.77,357.339C421.65,356.099 423.679,354.715 424.154,353.28C424.415,352.492 424.105,350.765 423.738,349.306C423.401,347.968 423.036,346.496 422.597,346.622C422.596,346.785 422.597,347.447 422.597,347.447C422.069,348.056 420.609,348.66 418.964,348.727C417.9,348.769 415.321,348.55 415.33,347.705Z" style="fill:rgb(12,43,52);fill-rule:nonzero;"/>
        <path d="M390.059,335.718C389.682,335.731 389.375,336.286 388.542,337.224C387.536,338.358 385.891,339.581 384.267,340.428C381.546,341.846 376.255,344.03 373.861,345.153C372.365,345.855 372.435,347.737 373.981,348.807C375.527,349.879 379.261,350.65 383.743,349.606C386.185,349.037 389.364,346.688 391.376,346.815C393.389,346.942 397.153,346.911 398.639,345.845C400.124,344.779 399.529,342.502 399.109,340.545C398.651,338.409 398.078,335.079 397.399,335.225L397.399,335.962C396.526,337.34 392.017,337.9 390.098,336.886L390.059,335.718Z" style="fill:rgb(12,43,52);fill-rule:nonzero;"/>
        <path d="M403.575,253.894C403.575,253.894 397.766,252.19 393.455,247.851C393.455,247.851 395.408,251.659 401.215,255.203L399.973,288.013L403.575,253.894Z" style="fill:rgb(12,43,52);fill-rule:nonzero;"/>
        <path d="M419.551,186.006C419.551,186.006 425.526,187.388 425.122,198.223L423.866,215.481L423.9,241.381C418.556,247.436 394.864,246.993 386.753,240.896C386.753,240.896 387.672,210.246 388.22,198.452C388.609,190.067 390.538,185.846 398.779,184.922L408.913,185.368L419.551,186.006Z" style="fill:rgb(0,178,167);fill-rule:nonzero;"/>
        <path d="M411.916,163.482C411.916,169.706 407.071,174.751 401.097,174.751C395.121,174.751 391.584,169.567 390.276,163.482C387.885,152.353 395.121,152.213 401.097,152.213C407.071,152.213 411.916,157.259 411.916,163.482Z" style="fill:rgb(12,43,52);fill-rule:nonzero;"/>
        <path d="M417.435,168.041C417.435,168.041 415.776,176.161 415.111,177.495C414.445,178.83 413.07,179.209 413.07,179.209L413.186,173.496L417.435,168.041Z" style="fill:rgb(12,43,52);fill-rule:nonzero;"/>
        <path d="M415.353,156.408C415.353,156.408 416.543,156.11 417.807,158.085C418.891,159.778 419.137,163.581 417.435,168.041L414.309,168.415L415.353,156.408Z" style="fill:rgb(12,43,52);fill-rule:nonzero;"/>
        <path d="M416.504,158.052L420.336,158.123C420.43,157.024 419.647,156.116 418.59,156.097C417.531,156.077 416.598,156.952 416.504,158.052Z" style="fill:rgb(12,43,52);fill-rule:nonzero;"/>
        <path d="M416.973,157.144L419.812,154.412C419.111,153.6 417.907,153.553 417.123,154.307C416.339,155.061 416.271,156.331 416.973,157.144Z" style="fill:rgb(12,43,52);fill-rule:nonzero;"/>
        <path d="M413.372,168.417C413.999,168.807 414.893,167.553 415.667,166.711C416.439,165.868 418.867,165.073 420.126,167.835C421.408,170.651 419.239,173.328 417.435,174.224C414.211,175.827 413.186,173.496 413.186,173.496L412.925,186.359C408.38,193.389 398.085,193.136 401.786,186.019L401.796,182.104C401.796,182.104 398.694,182.595 397.181,182.351C394.663,181.946 393.079,179.876 392.315,177.038C391.089,172.479 390.623,168.798 391.663,159.831C392.805,150.003 403.779,149.901 409.706,153.786C415.633,157.671 413.372,168.417 413.372,168.417Z" style="fill:rgb(246,157,163);fill-rule:nonzero;"/>
        <path d="M399.691,158.296C402.313,158.034 404.905,157.5 407.533,157.306C408.101,157.265 408.682,157.24 409.233,157.389C411.246,157.932 410.986,160.273 411.306,161.907C411.856,164.723 412.313,169.494 413.372,169.516C413.687,169.522 414.887,167.45 415.667,166.711C416.172,166.232 416.258,165.199 416.367,164.56C416.566,163.394 416.675,162.211 416.765,161.032C416.84,160.033 416.94,159.017 416.936,158.015C416.932,156.892 416.953,155.747 416.674,154.65C416.42,153.653 415.953,152.907 415.271,152.13L415.071,151.907C413.778,150.513 412.129,149.469 410.378,148.746C407.865,147.71 405.141,147.297 402.438,147.02C399.734,146.743 397.009,146.593 394.346,146.046C394.19,146.014 394.025,145.981 393.877,146.038C393.645,146.127 393.544,146.396 393.498,146.639C393.263,147.874 393.818,149.223 394.854,149.934C393.043,150.078 390.962,149.134 389.216,148.661C388.922,148.582 388.589,148.507 388.327,148.664C388.147,148.773 388.041,148.972 387.977,149.173C387.829,149.637 387.862,150.138 387.928,150.621C388.123,152.049 388.609,153.458 389.489,154.598C390.755,156.24 392.839,157.72 394.893,158.131C396.517,158.457 398.033,158.461 399.691,158.296Z" style="fill:rgb(12,43,52);fill-rule:nonzero;"/>
        <path d="M401.796,182.104C401.796,182.104 407.416,180.925 409.381,179.837C410.696,179.109 411.779,177.847 412.098,177.038C412.098,177.038 411.729,178.775 410.555,180.34C409.117,182.253 401.796,183.662 401.796,183.662L401.796,182.104Z" style="fill:rgb(244,138,143);fill-rule:nonzero;"/>
        <path d="M403.146,166.954C403.146,167.627 403.651,168.171 404.272,168.169C404.895,168.168 405.399,167.62 405.399,166.948C405.399,166.274 404.895,165.73 404.272,165.732C403.651,165.734 403.146,166.281 403.146,166.954Z" style="fill:rgb(12,43,52);fill-rule:nonzero;"/>
        <path d="M404.955,162.097L407.365,163.482C407.72,162.761 407.469,161.867 406.804,161.484C406.138,161.102 405.31,161.376 404.955,162.097Z" style="fill:rgb(12,43,52);fill-rule:nonzero;"/>
        <path d="M402.305,175.057L399.733,176.062C399.988,176.83 400.77,177.227 401.48,176.949C402.19,176.672 402.559,175.825 402.305,175.057Z" style="fill:rgb(244,138,143);fill-rule:nonzero;"/>
        <path d="M392.814,163.13L395.012,161.367C394.563,160.712 393.708,160.575 393.101,161.062C392.495,161.549 392.366,162.474 392.814,163.13Z" style="fill:rgb(12,43,52);fill-rule:nonzero;"/>
        <path d="M393.779,166.62C393.779,167.293 394.284,167.837 394.906,167.835C395.528,167.834 396.032,167.287 396.032,166.614C396.032,165.94 395.528,165.396 394.906,165.398C394.284,165.4 393.779,165.947 393.779,166.62Z" style="fill:rgb(12,43,52);fill-rule:nonzero;"/>
        <path d="M399.807,165.678L399.676,172.792L395.639,171.866L399.807,165.678Z" style="fill:rgb(244,138,143);fill-rule:nonzero;"/>
        <path d="M303.874,225.223L310.139,221.607L312.621,218.6L306.357,222.217L303.874,225.223Z" style="fill:rgb(0,178,167);fill-rule:nonzero;"/>
        <path d="M303.875,225.222L304.756,224.155L306.357,222.217L306.359,222.215L307.698,223.016L303.875,225.222Z" style="fill:rgb(0,144,124);fill-rule:nonzero;"/>
        <path d="M320.922,235.065L327.185,231.449L332.421,226.815L326.157,230.431L320.922,235.065Z" style="fill:rgb(0,178,167);fill-rule:nonzero;"/>
        <path d="M320.922,235.065L320.923,235.064L320.924,235.064L320.922,235.065ZM320.933,235.059L325.015,231.442L326.157,230.431L326.159,230.43L327.477,231.191L327.185,231.449L320.933,235.059Z" style="fill:rgb(0,144,124);fill-rule:nonzero;"/>
        <path d="M388.746,247.751C386.638,233.4 378.929,219.202 369.737,213.898C365.327,211.348 361.246,211.256 357.976,213.168C357.02,213.723 353.474,215.769 352.076,216.571C351.963,216.633 351.849,216.694 351.747,216.766C351.49,216.91 351.232,217.075 350.986,217.249C350.513,217.578 350.06,217.948 349.629,218.37L349.433,218.555C349.249,218.74 349.063,218.946 348.888,219.151C348.673,219.398 348.457,219.655 348.262,219.922C347.85,220.467 347.46,221.053 347.11,221.69C346.935,221.999 346.761,222.328 346.596,222.667L295.081,192.926L288.82,196.534L288.82,200.523L289.354,200.831L289.848,201.119L289.848,201.962L288.82,202.558L288.82,204.882L296.387,220.899L303.871,225.227L306.358,222.215L312.959,226.162L316.752,232.66L320.926,235.065L326.158,230.429L332.584,234.14L334.743,243.043L345.507,249.252C346.052,251.534 346.74,253.765 347.542,255.945C347.614,256.171 347.696,256.398 347.789,256.644C351.366,266.05 357.061,274.1 363.476,277.811C364.3,278.284 365.101,278.675 365.892,278.973C366.345,279.158 366.798,279.302 367.239,279.426C367.641,279.539 368.041,279.631 368.442,279.693C369.768,279.929 371.054,279.919 372.257,279.683C372.431,279.641 372.606,279.6 372.78,279.559C373.027,279.508 373.274,279.436 373.511,279.344C373.695,279.271 373.881,279.2 374.065,279.128C374.261,279.055 374.456,278.963 374.641,278.86C374.826,278.778 375.001,278.685 375.176,278.583C375.268,278.531 375.361,278.48 375.443,278.428L375.566,278.356C376.996,277.534 380.521,275.498 381.478,274.954C386.237,272.199 389.322,265.218 389.322,255.349C389.322,252.84 389.127,250.291 388.746,247.751ZM374.183,247.562C375.557,249.309 376.558,251.875 376.772,254.379C375.399,252.632 374.398,250.066 374.183,247.562Z" style="fill:rgb(0,178,167);fill-rule:nonzero;"/>
        <path d="M382.485,251.36C380.378,237.019 372.668,222.821 363.476,217.516C359.221,215.059 355.283,214.874 352.076,216.571C351.963,216.633 351.849,216.694 351.747,216.766C351.49,216.91 351.232,217.075 350.986,217.249C350.513,217.578 350.06,217.948 349.629,218.37L349.433,218.555C349.249,218.74 349.063,218.946 348.888,219.151C348.673,219.398 348.457,219.655 348.262,219.922C347.85,220.467 347.46,221.053 347.11,221.69C346.935,221.999 346.761,222.328 346.596,222.667C345.743,224.415 345.064,226.45 344.612,228.753L288.82,196.534L288.82,200.523L289.354,200.831L289.848,201.119L289.848,201.962L288.82,202.558L288.82,204.882L296.387,220.899L303.871,225.227L306.358,222.215L312.959,226.162L316.752,232.66L320.926,235.065L326.158,230.429L332.584,234.14L334.743,243.043L345.507,249.252C346.052,251.534 346.74,253.765 347.542,255.945C347.614,256.171 347.696,256.398 347.789,256.644C351.366,266.05 357.061,274.1 363.476,277.811C364.3,278.284 365.101,278.675 365.892,278.973C366.345,279.158 366.798,279.302 367.239,279.426C367.641,279.539 368.041,279.631 368.442,279.693C369.768,279.929 371.054,279.919 372.257,279.683C372.431,279.641 372.606,279.6 372.78,279.559C373.027,279.508 373.274,279.436 373.511,279.344C373.695,279.271 373.881,279.2 374.065,279.128C374.261,279.055 374.456,278.963 374.641,278.86C374.826,278.778 375.001,278.685 375.176,278.583C375.268,278.531 375.361,278.48 375.443,278.428L375.566,278.356C380.131,275.478 383.061,268.6 383.061,258.968C383.061,256.459 382.855,253.909 382.485,251.36ZM372.346,259.668C369.875,258.241 367.871,254 367.871,250.195C367.871,246.39 369.875,244.462 372.346,245.889C374.817,247.316 376.821,251.557 376.821,255.363C376.821,259.167 374.817,261.096 372.346,259.668Z" style="fill:rgb(0,178,167);fill-rule:nonzero;"/>
        <path d="M373.917,260.138C373.429,260.138 372.9,259.986 372.349,259.667C371.666,259.273 371.02,258.667 370.441,257.916C368.923,255.937 367.871,252.952 367.871,250.195C367.871,247.98 368.55,246.401 369.605,245.75C369.957,245.533 370.35,245.42 370.774,245.42C371.264,245.42 371.794,245.571 372.349,245.891C372.415,245.929 372.482,245.97 372.548,246.012C372.882,246.228 373.206,246.495 373.517,246.804C373.748,247.035 373.969,247.29 374.179,247.567C374.394,250.065 375.402,252.635 376.769,254.382C376.787,254.526 376.799,254.67 376.807,254.812C376.816,254.996 376.821,255.179 376.821,255.361C376.821,258.313 375.612,260.138 373.917,260.138Z" style="fill:rgb(0,144,124);fill-rule:nonzero;"/>
        <path d="M370.441,257.916C368.919,255.938 367.866,252.955 367.866,250.198C367.866,247.982 368.547,246.401 369.605,245.75C368.55,246.401 367.871,247.98 367.871,250.195C367.871,252.952 368.923,255.937 370.441,257.916ZM376.821,255.361C376.821,255.179 376.816,254.996 376.807,254.812C376.818,254.997 376.821,255.18 376.821,255.359L376.821,255.361ZM373.517,246.804C373.206,246.495 372.882,246.228 372.548,246.012C372.883,246.228 373.208,246.494 373.517,246.804Z" style="fill:rgb(0,144,124);fill-rule:nonzero;"/>
        <path d="M369.659,213.852C369.653,213.849 369.647,213.846 369.642,213.843C369.647,213.846 369.653,213.849 369.659,213.852ZM369.558,213.795C367.216,212.474 364.968,211.847 362.889,211.845C364.968,211.847 367.215,212.474 369.558,213.795ZM357.999,213.155C358.005,213.151 358.011,213.148 358.016,213.144C358.011,213.148 358.005,213.151 357.999,213.155ZM362.879,211.845L362.882,211.845L362.879,211.845Z" style="fill:rgb(243,242,242);fill-rule:nonzero;"/>
        <path d="M383.048,257.862C382.997,255.711 382.801,253.536 382.485,251.36C380.378,237.019 372.668,222.821 363.476,217.516C361.057,216.12 358.74,215.457 356.602,215.457C354.98,215.457 353.46,215.839 352.076,216.571C353.474,215.769 357.02,213.723 357.976,213.168C357.984,213.163 357.991,213.159 357.999,213.155C358.005,213.151 358.011,213.148 358.016,213.144C359.488,212.293 361.124,211.846 362.879,211.845L362.889,211.845C364.968,211.847 367.216,212.474 369.558,213.795C369.586,213.811 369.614,213.827 369.642,213.843C369.647,213.846 369.653,213.849 369.659,213.852C369.685,213.867 369.711,213.883 369.737,213.898C378.929,219.202 386.638,233.4 388.746,247.751C389.127,250.291 389.322,252.84 389.322,255.349C389.322,254.985 389.308,254.618 389.301,254.252C387.154,255.491 384.981,256.745 383.048,257.862Z" style="fill:rgb(73,194,191);fill-rule:nonzero;"/>
        <path d="M383.061,258.968C383.061,268.6 380.131,275.478 375.566,278.356C376.996,277.534 380.521,275.498 381.478,274.954C386.237,272.199 389.322,265.218 389.322,255.349C389.322,254.985 389.308,254.618 389.301,254.252C387.15,255.493 384.974,256.749 383.039,257.868C383.048,258.234 383.061,258.602 383.061,258.968Z" style="fill:rgb(0,178,167);fill-rule:nonzero;"/>
        <path d="M375.566,278.356C380.131,275.478 383.061,268.6 383.061,258.968C383.061,258.602 383.048,258.234 383.039,257.868C384.974,256.749 387.15,255.493 389.301,254.252C389.308,254.618 389.322,254.985 389.322,255.349C389.322,261.687 388.05,266.834 385.879,270.435C384.669,272.442 383.181,273.968 381.478,274.954C380.521,275.498 376.996,277.534 375.566,278.356Z" style="fill:rgb(0,175,161);fill-rule:nonzero;"/>
        <path d="M344.838,233.708L289.848,201.952L289.848,201.962L288.82,202.558L289.848,201.962L289.848,201.119L344.838,232.865L344.838,233.708Z" style="fill:rgb(0,174,157);fill-rule:nonzero;"/>
        <path d="M344.838,234.901L288.82,202.558L289.848,201.962L289.848,201.952L344.838,233.708L344.838,234.901Z" style="fill:rgb(0,171,148);fill-rule:nonzero;"/>
        <path d="M369.216,274.977L369.201,274.977C367.315,274.977 365.3,274.394 363.225,273.196C358.59,270.514 354.477,265.276 351.493,258.967C348.512,252.655 346.67,245.263 346.669,238.243C346.67,232.793 347.778,228.356 349.717,225.239C351.645,222.129 354.462,220.337 357.735,220.337L357.751,220.337C359.636,220.337 361.651,220.921 363.725,222.119C368.361,224.8 372.474,230.039 375.458,236.348C378.438,242.66 380.281,250.052 380.282,257.072C380.281,262.522 379.173,266.959 377.234,270.076C375.306,273.185 372.489,274.977 369.216,274.977ZM347.669,238.243C347.668,245.088 349.476,252.357 352.397,258.54C355.315,264.723 359.355,269.812 363.725,272.33C365.68,273.459 367.524,273.978 369.201,273.977C372.103,273.972 374.57,272.444 376.385,269.547C378.191,266.652 379.284,262.387 379.282,257.072C379.283,250.227 377.475,242.958 374.554,236.776C371.636,230.591 367.596,225.502 363.225,222.984C361.271,221.856 359.428,221.337 357.751,221.337C354.848,221.343 352.381,222.871 350.566,225.768C348.76,228.663 347.667,232.928 347.669,238.243Z" style="fill:rgb(0,174,157);fill-rule:nonzero;"/>
        <path d="M344.612,228.753L288.82,196.534L295.081,192.926L346.596,222.667C345.743,224.415 345.064,226.45 344.612,228.753Z" style="fill:rgb(73,194,191);fill-rule:nonzero;"/>
        <path d="M419.066,225.8C421.993,220.267 425.327,207.847 426.988,201.579C429.348,192.676 425.529,187.074 421.195,186.848C418.477,187.262 409.554,219.738 409.554,219.738C408.564,220.529 394.981,227.412 390.617,229.142C389.845,229.449 388.982,229.437 388.201,229.152C386.105,228.386 384.679,228.532 382.627,228.325C381.02,228.164 380.208,227.594 380.005,227.937C379.745,228.38 379.624,229.482 380.793,230.304C381.382,230.718 382.351,231.087 383.591,231.526C383.591,231.526 381.271,232.33 378.177,232.261C373.982,232.169 372.472,233.991 375.725,238.244C377.765,240.908 381.043,241.748 388.426,239.194C390.554,238.459 393.435,237.029 396.117,236.054C401.663,234.039 403.087,233.822 407.344,232.388C413.487,230.32 417.767,228.255 419.066,225.8Z" style="fill:rgb(246,157,163);fill-rule:nonzero;"/>
        <path d="M419.551,186.006C422.103,186.355 424.577,186.932 426.061,188.993C427.546,191.055 428.783,193.963 427.299,201.952C425.814,209.94 422.762,218.427 422.762,218.427C422.762,218.427 416.825,220.964 410.511,214.527L414.846,197.747C414.846,197.747 415.588,186.848 419.551,186.006Z" style="fill:rgb(51,88,99);fill-rule:nonzero;"/>
    </g>
</svg>
