<svg width="988" height="1080" viewBox="0 0 988 1080" fill="none" xmlns="http://www.w3.org/2000/svg">
<path d="M882.161 300.117C876.341 284.276 888.292 266.551 905.162 267.016C913 267.232 920.136 271.481 923.609 278.511C939.574 310.83 982.591 411.005 979.702 547.176C976.781 684.887 925.451 807.653 907.553 846.446C903.923 854.313 895.949 858.987 887.288 858.748C870.825 858.294 860.029 840.788 866.35 825.581C888.584 772.087 928.733 659.483 927.773 545.745C926.867 438.412 899.444 347.159 882.161 300.117Z" fill="#67C8C7" fill-opacity="0.2"/>
<path d="M882.161 300.117C876.341 284.276 888.292 266.551 905.162 267.016C913 267.232 920.136 271.481 923.609 278.511C939.574 310.83 982.591 411.005 979.702 547.176C976.781 684.887 925.451 807.653 907.553 846.446C903.923 854.313 895.949 858.987 887.288 858.748C870.825 858.294 860.029 840.788 866.35 825.581C888.584 772.087 928.733 659.483 927.773 545.745C926.867 438.412 899.444 347.159 882.161 300.117Z" fill="url(#paint0_linear)"/>
<path fill-rule="evenodd" clip-rule="evenodd" d="M734.836 1060.91C729.096 1067.46 723.189 1073.82 717.125 1080H0V0H630.415C637.412 5.04121 644.307 10.2316 651.092 15.5693C753.634 96.234 829.59 207.9 870.007 331.941C909.834 454.168 901.103 584.541 877.668 710.926C854.297 836.969 819.362 964.545 734.836 1060.91Z" fill="#0CDE47"/>
<path fill-rule="evenodd" clip-rule="evenodd" d="M734.836 1060.91C729.096 1067.46 723.189 1073.82 717.125 1080H0V0H630.415C637.412 5.04121 644.307 10.2316 651.092 15.5693C753.634 96.234 829.59 207.9 870.007 331.941C909.834 454.168 901.103 584.541 877.668 710.926C854.297 836.969 819.362 964.545 734.836 1060.91Z" fill="url(#paint1_linear)"/>
<defs>
<linearGradient id="paint0_linear" x1="932.623" y1="228.758" x2="916.309" y2="820.533" gradientUnits="userSpaceOnUse">
<stop stop-color="#00FFD1" stop-opacity="0.2"/>
<stop offset="1" stop-color="white" stop-opacity="0"/>
</linearGradient>
<linearGradient id="paint1_linear" x1="-1569.97" y1="512.042" x2="943.528" y2="461.664" gradientUnits="userSpaceOnUse">
<stop stop-color="#231FFF"/>
<stop offset="1" stop-color="white" stop-opacity="0"/>
</linearGradient>
</defs>
</svg>
