<svg width="622" height="604" viewBox="0 0 622 604" fill="none" xmlns="http://www.w3.org/2000/svg">
<path d="M530.91 296.612C652.364 366.732 652.363 480.421 530.909 550.542C409.456 620.663 212.542 620.664 91.0883 550.542C-30.3636 480.422 -30.3623 366.733 91.0896 296.613C212.544 226.491 409.458 226.491 530.91 296.612Z" fill="#EAEBEA"/>
<path d="M489.345 485.96C468.95 474.186 468.95 455.097 489.345 443.322C509.738 431.549 542.802 431.549 563.194 443.324C583.588 455.098 583.588 474.186 563.194 485.96C542.802 497.735 509.738 497.735 489.345 485.96Z" fill="#D7D9D9"/>
<path d="M74.7779 487.424L21.1323 456.452C18.1082 454.705 18.1082 451.874 21.1323 450.129L333.164 269.977C336.188 268.231 341.09 268.231 344.116 269.977L397.763 300.948C400.787 302.694 400.787 305.526 397.763 307.271L85.7298 487.424C82.7057 489.17 77.802 489.17 74.7779 487.424Z" fill="#D7D9D9"/>
<path d="M267.761 432.381L313.877 405.716C318.63 402.971 321.008 399.374 321.008 395.777C321.008 392.179 321.027 389.362 321.027 389.362L273.179 362.382C270.643 360.918 268.588 357.359 268.588 354.43V297.573L188.04 344.12L188.036 400.977C188.036 403.903 190.091 407.463 192.627 408.927L233.33 432.382C242.838 437.871 258.251 437.869 267.761 432.381Z" fill="#00B2A7"/>
<path d="M250.553 436.425C244.323 436.425 238.092 435.052 233.339 432.309L207.386 417.354V410.971L202.642 408.222L207.382 410.96L207.392 410.953L233.333 425.895C238.087 428.641 244.32 430.014 250.552 430.014C250.816 430.014 251.078 430.011 251.341 430.006V436.38C257.304 436.273 263.214 434.948 267.774 432.297L285.786 421.89L267.77 432.308C263.015 435.052 256.785 436.425 250.553 436.425ZM255.056 429.772C259.713 429.269 264.162 427.978 267.764 425.899L299.096 407.794L267.774 425.91C264.166 427.986 259.713 429.282 255.056 429.772ZM321.027 390.949V389.692C321.031 389.615 321.034 389.537 321.035 389.461C321.034 389.712 321.031 390.232 321.027 390.949Z" fill="#005C4D"/>
<path d="M196.399 404.536C195.444 403.564 194.645 402.323 194.121 401.024C194.646 402.321 195.446 403.563 196.399 404.536Z" fill="#005C4D"/>
<path d="M207.384 417.29L192.622 408.784C190.105 407.325 188.036 403.775 188.036 400.832V393.726L188.044 393.722V400.836C188.044 403.763 190.099 407.323 192.635 408.787L207.384 417.286V417.29Z" fill="#929596"/>
<path d="M207.377 417.451L192.627 408.952C190.091 407.488 188.036 403.928 188.036 401.001V393.887L193.592 390.679V397.801C193.592 398.809 193.836 399.893 194.259 400.939C194.783 402.238 195.581 403.479 196.537 404.451C197.048 404.972 197.603 405.417 198.183 405.752L202.633 408.319L207.377 411.069V417.451Z" fill="#003C31"/>
<path d="M193.513 397.675C193.513 400.603 195.567 404.163 198.102 405.627L233.243 425.867C242.751 431.357 258.166 431.358 267.675 425.871L313.815 399.209C323.324 393.722 323.325 384.824 313.818 379.335L278.654 359.079C276.119 357.615 274.064 354.055 274.064 351.128V306.7L193.513 353.247V397.675Z" fill="#00B2A7"/>
<path d="M250.669 429.981C244.438 429.981 238.205 428.608 233.45 425.863L207.51 410.921L288.211 364.48V364.473L278.862 359.074C276.326 357.61 274.271 354.05 274.271 351.124C274.271 354.05 276.326 357.61 278.862 359.074L314.025 379.331C318.778 382.075 321.155 385.672 321.154 389.268C321.154 389.4 321.151 389.529 321.145 389.66V389.262C321.145 392.867 318.759 396.472 314.015 399.2L299.213 407.762L267.882 425.867C264.28 427.946 259.83 429.237 255.173 429.74C253.946 429.869 252.703 429.943 251.459 429.959V429.973C251.196 429.979 250.933 429.981 250.669 429.981Z" fill="#00A990"/>
<path d="M207.393 410.91L202.653 408.172L200.816 407.109L207.403 410.903L207.393 410.91Z" fill="#00241F"/>
<path d="M196.529 404.536C196.522 404.529 196.516 404.523 196.509 404.516C195.556 403.543 194.756 402.301 194.231 401.005C194.194 400.91 194.157 400.815 194.121 400.72C194.644 402.128 195.498 403.489 196.529 404.536Z" fill="#00241F"/>
<path d="M202.553 408.319L198.104 405.752C197.524 405.417 196.968 404.972 196.458 404.451C196.464 404.457 196.471 404.464 196.477 404.47C196.983 404.984 197.531 405.421 198.104 405.752L200.717 407.257L202.553 408.319ZM194.179 400.939C193.757 399.893 193.513 398.809 193.513 397.801V390.679H193.514V397.801C193.514 398.718 193.715 399.696 194.07 400.654C194.105 400.749 194.142 400.844 194.179 400.939Z" fill="#000E0C"/>
<path d="M207.303 411.003L200.716 407.209L198.102 405.704C197.529 405.373 196.982 404.936 196.476 404.422C195.445 403.376 194.591 402.015 194.068 400.606C193.713 399.648 193.513 398.67 193.513 397.753V390.631L274.063 344.125V351.206C274.063 354.132 276.119 357.692 278.654 359.156L288.004 364.555V364.562L207.303 411.003Z" fill="#004D41"/>
<path d="M321.009 389.461V395.875C321.009 399.478 318.624 403.057 313.88 405.814L267.756 432.463C263.197 435.114 257.286 436.439 251.323 436.546V430.157C257.286 430.078 263.197 428.7 267.756 426.076L313.88 399.399C318.624 396.671 321.009 393.066 321.009 389.461Z" fill="#00B2A7"/>
<path d="M251.323 436.546V430.157C257.286 430.078 263.197 428.7 267.756 426.076L313.88 399.399C318.624 396.671 321.009 393.066 321.009 389.461V395.875C321.009 399.478 318.624 403.057 313.88 405.814L267.756 432.463C263.197 435.114 257.286 436.439 251.323 436.546Z" fill="#007765"/>
<path d="M64.4112 452.958C67.3838 454.673 72.3628 454.582 75.5321 452.752C115.133 429.889 347.449 295.764 387.046 272.904C390.214 271.075 392.782 266.626 392.782 262.966V10.9637C392.782 7.30334 390.373 2.94606 387.4 1.23008C384.426 -0.487219 379.448 -0.39482 376.278 1.43468L64.7703 181.283C61.601 183.112 59.031 187.562 59.031 191.222L59.0283 443.225C59.0283 446.884 61.4373 451.241 64.4112 452.958Z" fill="#00B2A7"/>
<path d="M75.1114 452.885L386.623 273.038C389.792 271.208 392.361 266.758 392.361 263.099V11.0952C392.361 7.43621 389.792 5.95254 386.623 7.78204L75.114 187.63C71.946 189.46 69.376 193.909 69.376 197.57L69.3721 449.572C69.3721 453.231 71.9421 454.715 75.1114 452.885Z" fill="#00B2A7"/>
<path d="M69.3721 432.703L69.376 197.569C69.376 197.1 69.4183 196.62 69.4988 196.134C69.6321 195.341 69.8631 194.53 70.1733 193.736C70.7726 192.224 71.6715 190.768 72.7486 189.583C73.4719 188.79 74.2719 188.12 75.114 187.635L184.199 124.65L386.623 7.78129C387.544 7.24933 388.414 6.99854 389.185 6.99854C389.228 6.99854 389.271 6.99854 389.313 6.99986C389.565 7.01042 389.807 7.04605 390.034 7.10941C390.036 7.11073 390.039 7.11073 390.042 7.11205H390.043C391.45 7.50805 392.361 8.91515 392.361 11.0945V49.3767L381.588 55.5964L381.587 27.1006C381.587 25.543 380.812 24.6428 379.682 24.6428C379.219 24.6428 378.696 24.7933 378.144 25.1127L83.5804 195.178C81.6796 196.275 80.1379 198.946 80.1379 201.142L80.1352 403.964C80.1352 405.522 80.9114 406.422 82.0413 406.422C82.5033 406.422 83.026 406.272 83.5791 405.952L108.217 391.728V410.277L69.3721 432.703Z" fill="#007765"/>
<path d="M74.6913 459.189C71.5114 460.593 67.1119 460.541 64.4086 458.977C61.4399 457.254 59.0283 452.907 59.0283 449.223V426.278L69.7888 432.507V455.452C69.7888 458.792 71.9087 460.302 74.6913 459.189Z" fill="#00B2A7"/>
<path d="M69.6186 460.199C67.6953 460.199 65.821 459.794 64.4086 458.977C61.4399 457.254 59.0283 452.907 59.0283 449.223V426.278L69.7888 432.507V455.452C69.7888 458.059 71.0811 459.551 72.9713 459.551C73.5033 459.551 74.0814 459.433 74.6913 459.189C73.1733 459.86 71.3755 460.199 69.6186 460.199Z" fill="#007765"/>
<path d="M69.3721 432.676L69.3813 455.612C69.3813 459.271 71.9513 460.754 75.1206 458.925L386.632 279.078C389.801 277.249 392.37 272.798 392.37 269.139V246.152L69.3721 432.676Z" fill="#00B2A7"/>
<path d="M69.3721 432.621V432.579L108.217 410.152V410.191L69.3721 432.621Z" fill="#004D41"/>
<path d="M72.548 459.765C70.6657 459.764 69.3721 458.263 69.3721 455.668V432.725L108.217 410.295V419.656C108.217 421.212 108.887 422.604 109.911 423.146C109.987 423.187 110.142 423.273 110.358 423.393C111.51 424.045 114.153 425.578 115.042 426.057C115.351 426.224 115.692 426.318 116.057 426.318C116.472 426.318 116.919 426.198 117.384 425.929L382.24 272.928L385.484 279.792L273.874 344.228L193.323 390.734H193.321L187.766 393.941L187.758 393.945L75.1114 458.981C74.19 459.513 73.3188 459.765 72.548 459.765Z" fill="#00A990"/>
<path d="M80.3262 403.968L80.3288 201.146C80.3288 198.949 81.8706 196.279 83.7713 195.182L378.335 25.1163C380.237 24.0181 381.778 24.909 381.778 27.1042L381.788 229.931C381.788 232.126 380.247 234.796 378.345 235.894L83.77 405.956C81.8679 407.053 80.3262 406.163 80.3262 403.968Z" fill="#00B2A7"/>
<path d="M80.3262 403.968L80.3288 201.146C80.3288 198.949 81.8706 196.279 83.7713 195.182L378.335 25.1163C380.237 24.0181 381.778 24.909 381.778 27.1042L381.788 229.931C381.788 232.126 380.247 234.796 378.345 235.894L83.77 405.956C81.8679 407.053 80.3262 406.163 80.3262 403.968Z" fill="#0C2B34"/>
<path d="M231.152 346.687C228.178 348.403 225.767 352.578 225.767 356.013C225.767 359.446 228.178 360.837 231.152 359.12C234.126 357.403 236.536 353.227 236.536 349.794C236.536 346.361 234.125 344.97 231.152 346.687Z" fill="#00B2A7"/>
<path d="M69.7862 432.666L59.0283 426.438L59.0296 318.579L59.031 191.275C59.031 189.445 59.6883 187.406 60.7219 185.603L66.8994 189.164L71.4797 191.809C71.4811 191.808 71.4811 191.806 71.4824 191.805C71.1418 192.399 70.8435 193.02 70.5967 193.649C70.2825 194.444 70.0515 195.253 69.9222 196.048C69.839 196.532 69.7928 197.011 69.7862 197.477V432.666Z" fill="#004136"/>
<path d="M69.3721 195.913C69.5014 195.118 69.7324 194.309 70.0466 193.514C69.7364 194.309 69.5054 195.119 69.3721 195.913Z" fill="#001412"/>
<path d="M60.2507 185.545L60.2441 185.541C60.6217 184.9 61.048 184.286 61.514 183.718C61.0493 184.285 60.6243 184.9 60.2507 185.545ZM62.4274 182.72C62.43 182.718 62.4327 182.715 62.4353 182.714C62.4327 182.715 62.43 182.718 62.4274 182.72ZM62.4393 182.708C62.8247 182.335 63.2286 181.996 63.6457 181.7C63.2286 181.996 62.8247 182.335 62.4393 182.708ZM389.937 4.1012C389.086 2.90001 388.06 1.89154 386.955 1.24607C388.06 1.88758 389.086 2.89737 389.937 4.1012ZM384.895 0.406556C383.894 0.134639 382.8 0 381.692 0C380.784 0 379.868 0.091079 378.986 0.270597C379.868 0.0897591 380.784 0 381.692 0C382.8 0 383.893 0.134639 384.895 0.406556Z" fill="#A8ABAB"/>
<path d="M71.002 191.753L66.419 189.112L60.2441 185.545C60.6177 184.9 61.0427 184.285 61.5074 183.718C61.7978 183.366 62.1027 183.031 62.4208 182.72C62.4234 182.718 62.4261 182.715 62.4287 182.714C62.43 182.711 62.4314 182.71 62.4327 182.709C62.8181 182.335 63.222 181.996 63.6391 181.7C63.8543 181.548 64.0734 181.408 64.2965 181.28L375.797 1.43615C376.734 0.896271 377.827 0.506875 378.98 0.270597C379.861 0.0910791 380.778 0 381.686 0C382.793 0 383.887 0.134639 384.888 0.406556C385.627 0.607194 386.318 0.881751 386.925 1.23287C386.933 1.23683 386.941 1.24211 386.948 1.24607C388.053 1.89154 389.079 2.90001 389.93 4.1012C391.162 5.84226 392.029 7.98856 392.244 10.0134C392.019 8.37003 391.18 7.30876 389.986 6.97349H389.984C389.982 6.97217 389.979 6.97217 389.977 6.97085C389.75 6.90749 389.508 6.87053 389.256 6.86129C389.212 6.85997 389.169 6.85997 389.125 6.85997C388.353 6.85997 387.482 7.10945 386.559 7.63744L184.142 124.512L75.057 187.491C74.2135 187.978 73.4123 188.651 72.6916 189.444C72.0633 190.133 71.4931 190.915 71.002 191.753Z" fill="#00A990"/>
<path d="M73.0254 189.582C73.7461 188.788 74.5473 188.115 75.3908 187.628L184.476 124.649L75.3908 187.633C74.5487 188.119 73.7487 188.788 73.0254 189.582ZM390.32 7.11073H390.318H390.32ZM390.31 7.10809C390.083 7.04473 389.842 7.0091 389.59 6.99854C389.842 7.00778 390.083 7.04473 390.31 7.10809Z" fill="#004D41"/>
<path d="M70.9104 191.9L66.3301 189.254L70.9131 191.896C70.9117 191.897 70.9117 191.898 70.9104 191.9Z" fill="#002821"/>
<path d="M409.213 41.0798C408.462 40.6297 407.439 40.6455 406.285 41.3121L112.34 211.044C110.119 212.327 108.318 215.442 108.318 218.007L108.321 419.592C108.321 421.155 108.99 422.536 110.016 423.088C110.675 423.44 114.128 425.45 115.153 426.002C115.812 426.355 116.616 426.368 117.483 425.868L411.419 256.069C413.642 254.789 415.443 251.674 415.443 249.11V46.5458C415.443 45.2245 414.964 44.3071 414.197 43.9045C413.475 43.527 409.952 41.5246 409.213 41.0798Z" fill="#00B2A7"/>
<path d="M116.442 425.684C115.319 425.684 114.405 424.298 114.405 422.594V221.009C114.405 218.699 116.096 215.771 118.096 214.615L412.038 44.883C412.561 44.5821 413.068 44.4224 413.505 44.4224C414.486 44.4224 415.07 45.2487 415.07 46.6333V249.197C415.07 251.507 413.379 254.432 411.377 255.584L117.44 425.383C117.094 425.583 116.759 425.684 116.442 425.684Z" fill="#F9F9F9"/>
<path d="M413.556 43.5098C413.015 43.5098 412.405 43.6866 411.758 44.0589L117.816 213.791C115.595 215.074 113.795 218.191 113.795 220.756V422.342C113.795 424.371 114.922 426.092 116.493 426.092C116.907 426.092 117.355 425.972 117.82 425.702L411.755 255.903C413.978 254.624 415.78 251.509 415.78 248.944V46.3807C415.78 44.5618 414.875 43.5098 413.556 43.5098ZM413.556 44.8298C414.341 44.8298 414.46 45.8026 414.46 46.3807V248.944C414.46 251.047 412.92 253.71 411.094 254.76L117.162 424.559C116.917 424.701 116.691 424.772 116.493 424.772C115.759 424.772 115.116 423.637 115.116 422.342V220.756C115.116 218.652 116.655 215.986 118.476 214.934L412.418 45.2033C412.953 44.8958 413.331 44.8298 413.556 44.8298Z" fill="#D7D9D9"/>
<path d="M110.013 422.961C110.449 423.194 113.575 424.977 114.946 425.757C114.021 425.1 113.534 423.967 113.465 422.381V233.951L108.318 230.939V419.471C108.318 421.028 108.989 422.419 110.013 422.961Z" fill="#EAEBEA"/>
<path d="M415.777 46.3496C415.761 43.81 413.97 42.7817 411.758 44.0581L117.816 213.79C115.595 215.073 113.795 218.191 113.795 220.755L113.799 233.909L415.777 59.5482V46.3496Z" fill="#00B2A7"/>
<path d="M406.501 41.3132C407.141 40.9409 407.743 40.772 408.279 40.772C408.707 40.772 409.092 40.8789 409.423 41.0756C409.501 41.1231 409.61 41.1878 409.742 41.2657C409.611 41.1891 409.505 41.1271 409.429 41.0809C409.095 40.8815 408.708 40.7733 408.28 40.7733C407.743 40.7733 407.142 40.9423 406.501 41.3132Z" fill="white"/>
<path d="M110.752 212.455C111.308 211.795 111.941 211.238 112.612 210.856C111.941 211.245 111.308 211.799 110.752 212.455Z" fill="#727F84"/>
<path d="M114.649 216.923L109.534 213.98C109.811 213.505 110.127 213.054 110.473 212.642C111.028 211.986 111.662 211.432 112.333 211.044L406.278 41.3118C406.919 40.9409 407.52 40.772 408.057 40.772C408.485 40.772 408.871 40.8802 409.205 41.0795C409.282 41.1257 409.388 41.1878 409.518 41.2643C410.59 41.8966 413.243 43.4014 414.059 43.8423C413.936 43.7895 413.807 43.7485 413.672 43.7208C413.526 43.6891 413.371 43.6746 413.21 43.6746C412.67 43.6746 412.059 43.8528 411.412 44.2224L246.701 139.335L117.471 213.955C116.372 214.592 115.375 215.677 114.649 216.923Z" fill="#49C2BF"/>
<path d="M115.014 217.016C115.74 215.77 116.736 214.685 117.836 214.049L247.065 139.428L117.836 214.049C116.736 214.685 115.74 215.77 115.014 217.016ZM414.443 43.946C414.383 43.9182 414.319 43.8945 414.254 43.8734C414.185 43.8496 414.111 43.8298 414.037 43.814C414.171 43.8417 414.301 43.8826 414.423 43.9354C414.43 43.9394 414.437 43.9433 414.443 43.946Z" fill="#E6E7E5"/>
<path d="M115.016 216.958L115.014 216.957C115.74 215.71 116.736 214.625 117.836 213.989L247.065 139.369L117.841 213.988C116.745 214.631 115.737 215.713 115.016 216.958ZM414.471 43.9024C414.401 43.8681 414.33 43.839 414.254 43.814C414.319 43.8351 414.383 43.8588 414.443 43.8866C414.452 43.8918 414.462 43.8971 414.471 43.9024Z" fill="#49C2BF"/>
<path d="M113.458 233.991L108.318 230.983V217.925C108.318 217.801 108.322 217.676 108.33 217.549C108.411 216.348 108.866 215.056 109.542 213.899L114.648 216.856C113.914 218.122 113.458 219.55 113.458 220.84V233.991Z" fill="#00AE9D"/>
<path d="M113.799 234.079L113.795 234.077V220.926C113.795 219.636 114.25 218.208 114.984 216.942H114.986C114.25 218.208 113.795 219.636 113.795 220.926L113.799 234.079Z" fill="#B5B8B9"/>
<path d="M113.465 233.951L108.318 230.952V230.939L108.321 230.94L113.461 233.949L113.465 233.951Z" fill="#C3C5C5"/>
<path d="M113.799 234.092L113.795 220.939C113.795 219.649 114.25 218.221 114.986 216.955L114.988 216.958C114.991 216.952 114.993 216.947 114.996 216.942L115.001 216.945C114.254 218.209 113.799 219.639 113.799 220.941V234.092Z" fill="#00AE9D"/>
<path d="M114.64 216.856L109.534 213.899L114.649 216.842C114.646 216.847 114.644 216.852 114.64 216.856Z" fill="#24BCB1"/>
<path d="M353.638 198.477L177.586 300.121C175.963 301.058 174.647 303.336 174.647 305.21V355.68C174.647 357.554 175.963 359.831 177.588 360.765L182.731 363.724C184.356 364.659 186.987 364.656 188.61 363.721L364.637 262.091C366.261 261.154 367.577 258.875 367.578 257.002L367.599 206.517C367.6 204.644 366.283 202.367 364.659 201.432L359.517 198.473C357.892 197.538 355.261 197.54 353.638 198.477Z" fill="#00B2A7"/>
<path d="M175.258 302.295L175.257 302.293C175.786 301.384 176.519 300.583 177.319 300.122L219.292 275.89L177.324 300.121C176.519 300.585 175.789 301.381 175.258 302.295ZM367.313 206.04C367.308 206.003 367.303 205.966 367.296 205.929C367.065 204.191 365.855 202.271 364.398 201.432L359.255 198.473C358.443 198.007 357.382 197.773 356.321 197.773H356.305H356.334C357.39 197.773 358.445 198.004 359.254 198.469L364.396 201.427C365.889 202.282 367.123 204.277 367.313 206.04Z" fill="#FEFEFD"/>
<path d="M186.275 308.657L175.257 302.295C175.787 301.381 176.517 300.585 177.323 300.121L219.29 275.89L353.376 198.482C354.182 198.014 355.242 197.777 356.303 197.773H356.319C357.381 197.773 358.442 198.007 359.254 198.473L364.396 201.432C365.854 202.271 367.064 204.191 367.295 205.929C367.13 204.964 366.527 204.418 365.711 204.418C365.314 204.418 364.868 204.546 364.395 204.819L188.35 306.459C187.537 306.92 186.803 307.734 186.275 308.657Z" fill="#67C8C7"/>
<path d="M188.109 363.799C186.48 364.492 184.2 364.41 182.735 363.568L177.592 360.61C175.963 359.674 174.647 357.394 174.647 355.521V305.054C174.647 304.105 174.987 303.06 175.515 302.137L186.535 308.501C185.991 309.424 185.665 310.456 185.665 311.392V361.872C185.665 363.555 186.724 364.328 188.109 363.799Z" fill="#0C2B34"/>
<path d="M188.541 306.511L364.593 204.869C366.215 203.933 367.531 204.692 367.53 206.565L367.509 257.05C367.507 258.923 366.191 261.202 364.568 262.139L188.541 363.768C186.917 364.704 185.603 363.945 185.603 362.072V311.601C185.603 309.727 186.917 307.449 188.541 306.511Z" fill="#00B2A7"/>
<path d="M306.709 225.462L177.32 300.16C176.52 300.621 175.787 301.422 175.257 302.331L186.277 308.695C186.805 307.772 187.539 306.958 188.352 306.497L317.708 231.814L306.709 225.462Z" fill="#335863"/>
<path d="M317.899 231.851L188.541 306.536C186.917 307.473 185.603 309.751 185.603 311.626V362.097C185.603 363.97 186.917 364.729 188.541 363.793L317.899 289.108V231.851Z" fill="#23434C"/>
<path d="M218.605 300.323L285.353 261.785C288.121 260.186 290.363 261.321 290.363 264.32C290.363 267.318 288.119 271.046 285.351 272.643L218.609 311.177C215.842 312.776 213.597 311.64 213.596 308.643C213.594 305.646 215.837 301.921 218.605 300.323Z" fill="#00B2A7"/>
<path d="M232.005 313.091L232.2 313.126C232.256 313.192 232.283 313.29 232.283 313.425V320.942C232.283 321.7 232.221 322.418 232.097 323.102C231.974 323.783 231.79 324.416 231.54 325C231.293 325.583 230.983 326.099 230.613 326.553C230.241 327.005 229.812 327.372 229.325 327.653C228.829 327.939 228.397 328.069 228.03 328.045C227.661 328.019 227.353 327.856 227.108 327.56C226.859 327.263 226.676 326.841 226.555 326.301C226.436 325.76 226.375 325.111 226.375 324.353V316.837C226.375 316.701 226.403 316.572 226.458 316.441C226.512 316.312 226.577 316.224 226.654 316.182L227.489 315.699L227.684 315.732C227.74 315.799 227.768 315.898 227.768 316.032V323.457C227.768 323.958 227.806 324.363 227.881 324.674C227.955 324.987 228.062 325.214 228.199 325.36C228.338 325.509 228.503 325.578 228.694 325.571C228.887 325.563 229.098 325.492 229.325 325.363C229.551 325.232 229.762 325.058 229.959 324.841C230.154 324.624 230.32 324.363 230.459 324.056C230.596 323.751 230.703 323.399 230.784 322.999C230.863 322.599 230.901 322.149 230.901 321.647V314.223C230.901 314.087 230.929 313.958 230.983 313.827C231.039 313.698 231.105 313.611 231.181 313.567L232.005 313.091Z" fill="#F9F9F9"/>
<path d="M236.905 320.123C236.905 319.99 236.882 319.894 236.833 319.836C236.784 319.778 236.7 319.746 236.581 319.742C236.461 319.739 236.3 319.758 236.1 319.8C235.901 319.842 235.646 319.891 235.337 319.948C235.034 320.001 234.786 319.99 234.585 319.924C234.386 319.855 234.226 319.734 234.106 319.558C233.984 319.383 233.901 319.156 233.852 318.869C233.805 318.586 233.781 318.261 233.781 317.895C233.781 317.528 233.829 317.14 233.925 316.73C234.021 316.319 234.16 315.925 234.342 315.544C234.525 315.164 234.746 314.813 235.007 314.491C235.269 314.17 235.568 313.912 235.905 313.718C236.241 313.523 236.542 313.415 236.806 313.399C237.072 313.38 237.296 313.427 237.484 313.539C237.667 313.653 237.812 313.823 237.915 314.05C238.018 314.278 238.076 314.535 238.092 314.82C238.099 314.95 238.071 315.082 238.013 315.213C237.955 315.344 237.887 315.432 237.812 315.474L237.018 315.932L236.785 315.967L236.616 315.835L236.368 315.75C236.267 315.742 236.112 315.798 235.905 315.917C235.698 316.035 235.515 316.195 235.358 316.396C235.2 316.598 235.121 316.841 235.121 317.122C235.121 317.255 235.141 317.355 235.179 317.428L235.393 317.549C235.501 317.563 235.649 317.552 235.839 317.523C236.026 317.494 236.272 317.446 236.575 317.382C237.187 317.26 237.618 317.375 237.869 317.725C238.12 318.073 238.247 318.617 238.247 319.349C238.247 319.717 238.195 320.102 238.092 320.511C237.988 320.919 237.839 321.317 237.642 321.705C237.445 322.094 237.206 322.453 236.92 322.783C236.635 323.113 236.313 323.38 235.956 323.586C235.591 323.797 235.271 323.905 234.991 323.913C234.714 323.921 234.478 323.859 234.287 323.726C234.093 323.592 233.946 323.402 233.843 323.157C233.739 322.911 233.683 322.643 233.677 322.354C233.67 322.223 233.698 322.093 233.755 321.961C233.814 321.83 233.88 321.743 233.955 321.697L234.75 321.239L234.982 321.233L235.156 321.425L235.431 321.562C235.547 321.579 235.721 321.521 235.956 321.387L236.276 321.165L236.581 320.871C236.672 320.761 236.751 320.643 236.812 320.517C236.875 320.389 236.905 320.258 236.905 320.123Z" fill="#F9F9F9"/>
<path d="M242.289 312.195C242.09 312.313 241.921 312.463 241.78 312.648C241.638 312.834 241.52 313.036 241.423 313.257C241.326 313.477 241.253 313.703 241.201 313.935C241.15 314.166 241.117 314.377 241.102 314.569L243.434 313.224C243.42 313.048 243.394 312.873 243.356 312.689C243.32 312.51 243.257 312.363 243.171 312.246C243.085 312.132 242.97 312.063 242.83 312.041C242.689 312.019 242.508 312.07 242.289 312.195ZM239.763 316.405C239.763 315.721 239.821 315.044 239.938 314.371C240.056 313.699 240.223 313.076 240.444 312.502C240.663 311.93 240.931 311.425 241.242 310.988C241.555 310.551 241.904 310.222 242.289 309.999C242.673 309.776 243.023 309.699 243.337 309.768C243.649 309.841 243.914 310.023 244.136 310.317C244.355 310.611 244.525 311.009 244.645 311.505C244.765 312.005 244.826 312.568 244.826 313.189V314.014C244.826 314.149 244.798 314.281 244.743 314.409C244.689 314.538 244.623 314.627 244.546 314.67L241.102 316.66C241.102 316.941 241.137 317.168 241.201 317.343C241.266 317.52 241.355 317.651 241.464 317.733C241.574 317.816 241.702 317.853 241.846 317.842C241.991 317.833 242.139 317.783 242.289 317.696C242.508 317.57 242.688 317.428 242.825 317.268C242.964 317.11 243.076 316.943 243.166 316.769C243.242 316.629 243.303 316.525 243.352 316.46L243.547 316.294L244.372 315.816L244.573 315.845C244.631 315.911 244.657 316.013 244.649 316.15C244.644 316.326 244.59 316.576 244.491 316.902C244.392 317.229 244.241 317.577 244.041 317.951C243.843 318.323 243.597 318.684 243.304 319.036C243.014 319.387 242.673 319.674 242.289 319.895C241.904 320.118 241.555 320.2 241.242 320.144C240.931 320.086 240.663 319.9 240.444 319.587C240.223 319.276 240.056 318.849 239.938 318.312C239.821 317.775 239.763 317.139 239.763 316.405Z" fill="#F9F9F9"/>
<path d="M248.962 308.678C248.551 308.916 248.254 309.25 248.071 309.678C247.888 310.109 247.798 310.69 247.798 311.423V316.189C247.798 316.323 247.77 316.456 247.716 316.584C247.661 316.713 247.595 316.802 247.518 316.844L246.737 317.297L246.54 317.262C246.485 317.198 246.457 317.097 246.457 316.963V308.42C246.457 308.285 246.485 308.153 246.54 308.024C246.594 307.894 246.662 307.809 246.737 307.764L247.518 307.312L247.716 307.345C247.77 307.411 247.798 307.512 247.798 307.645V308.069C247.976 307.67 248.168 307.336 248.371 307.059C248.572 306.783 248.838 306.549 249.17 306.359L249.633 306.091L249.83 306.126C249.884 306.19 249.911 306.291 249.911 306.425V307.636C249.911 307.77 249.884 307.901 249.83 308.03C249.774 308.161 249.709 308.248 249.633 308.29L248.962 308.678Z" fill="#F9F9F9"/>
<path d="M259.162 308.118L259.357 308.154C259.413 308.218 259.44 308.319 259.44 308.453V309.756C259.44 309.889 259.413 310.021 259.357 310.151C259.302 310.28 259.237 310.366 259.162 310.41L254.645 313.018L254.448 312.983C254.394 312.919 254.366 312.817 254.366 312.684V300.841C254.366 300.708 254.394 300.576 254.448 300.446C254.505 300.316 254.568 300.23 254.645 300.186L255.48 299.703L255.676 299.739C255.732 299.803 255.76 299.902 255.76 300.037V310.083L259.162 308.118Z" fill="#F9F9F9"/>
<path d="M264.311 301.568C264.29 301.202 264.24 300.917 264.161 300.711C264.081 300.506 263.984 300.364 263.868 300.285C263.75 300.205 263.623 300.178 263.486 300.201C263.349 300.225 263.208 300.281 263.062 300.364C262.919 300.446 262.779 300.555 262.641 300.691C262.503 300.824 262.376 301 262.26 301.213C262.142 301.428 262.043 301.684 261.965 301.979C261.888 302.275 261.836 302.62 261.815 303.009C261.808 303.112 261.803 303.237 261.8 303.385C261.797 303.533 261.794 303.687 261.794 303.847C261.794 304.006 261.797 304.159 261.8 304.311C261.803 304.461 261.808 304.578 261.815 304.66C261.836 305.026 261.888 305.312 261.965 305.516C262.043 305.722 262.142 305.863 262.26 305.942C262.376 306.023 262.503 306.05 262.641 306.025C262.779 306.001 262.919 305.946 263.062 305.863C263.208 305.78 263.349 305.673 263.486 305.537C263.623 305.402 263.75 305.229 263.868 305.015C263.984 304.8 264.081 304.544 264.161 304.25C264.24 303.953 264.29 303.61 264.311 303.218C264.318 303.13 264.322 303.009 264.322 302.856V301.931C264.322 301.781 264.318 301.663 264.311 301.568ZM263.062 298.165C263.441 297.947 263.783 297.853 264.089 297.884C264.396 297.915 264.661 298.048 264.884 298.287C265.107 298.524 265.287 298.847 265.419 299.26C265.553 299.672 265.631 300.153 265.652 300.703C265.658 300.809 265.661 300.947 265.661 301.119V302.136C265.661 302.301 265.658 302.44 265.652 302.555C265.625 303.132 265.545 303.703 265.415 304.268C265.283 304.832 265.107 305.36 264.884 305.848C264.661 306.338 264.396 306.775 264.089 307.159C263.783 307.543 263.441 307.844 263.062 308.063C262.685 308.28 262.343 308.376 262.037 308.344C261.732 308.313 261.467 308.182 261.243 307.948C261.02 307.719 260.842 307.395 260.713 306.982C260.582 306.57 260.502 306.089 260.474 305.542C260.467 305.436 260.463 305.302 260.459 305.139C260.457 304.976 260.454 304.811 260.454 304.639C260.454 304.466 260.457 304.295 260.459 304.122C260.463 303.95 260.467 303.806 260.474 303.693C260.495 303.117 260.573 302.548 260.706 301.981C260.841 301.414 261.02 300.883 261.243 300.388C261.467 299.891 261.732 299.453 262.037 299.069C262.343 298.683 262.685 298.384 263.062 298.165Z" fill="#F9F9F9"/>
<path d="M268.498 299.63C268.477 299.986 268.477 300.329 268.498 300.66C268.539 301.428 268.676 301.921 268.911 302.133C269.143 302.347 269.43 302.355 269.766 302.162C270.103 301.967 270.387 301.628 270.616 301.139C270.847 300.652 270.979 300.069 271.014 299.389C271.028 299.197 271.035 298.961 271.035 298.68C271.035 298.399 271.028 298.171 271.014 297.996C270.979 297.38 270.847 296.955 270.616 296.721C270.387 296.488 270.103 296.468 269.766 296.663C269.43 296.856 269.143 297.196 268.911 297.681C268.676 298.163 268.539 298.815 268.498 299.63ZM269.735 306.028C269.88 305.947 270.026 305.821 270.179 305.654C270.33 305.487 270.467 305.284 270.59 305.04C270.715 304.8 270.816 304.524 270.895 304.215C270.975 303.906 271.014 303.575 271.014 303.219V302.541C270.958 302.682 270.887 302.843 270.797 303.024C270.707 303.204 270.599 303.387 270.473 303.569C270.344 303.753 270.197 303.93 270.03 304.1C269.861 304.272 269.669 304.418 269.457 304.539C269.113 304.737 268.801 304.8 268.524 304.723C268.244 304.645 268.008 304.463 267.813 304.179C267.616 303.895 267.462 303.527 267.348 303.073C267.235 302.618 267.171 302.115 267.157 301.56C267.15 301.379 267.147 301.17 267.147 300.924C267.147 300.68 267.15 300.466 267.157 300.277C267.171 299.707 267.235 299.13 267.348 298.544C267.462 297.959 267.616 297.413 267.813 296.902C268.008 296.393 268.244 295.936 268.524 295.537C268.801 295.139 269.113 294.842 269.457 294.642C269.669 294.519 269.861 294.444 270.03 294.422C270.197 294.398 270.344 294.405 270.473 294.44C270.599 294.476 270.707 294.534 270.797 294.612L271.014 294.843V294.42C271.014 294.286 271.04 294.155 271.097 294.026C271.151 293.895 271.216 293.809 271.292 293.766L272.076 293.313L272.272 293.347C272.327 293.412 272.355 293.512 272.355 293.647V302.244C272.355 303.722 272.122 304.971 271.659 305.991C271.195 307.012 270.553 307.758 269.735 308.229C269.384 308.432 269.059 308.536 268.76 308.546C268.462 308.552 268.202 308.482 267.982 308.336C267.763 308.187 267.587 307.975 267.456 307.703C267.326 307.43 267.253 307.113 267.24 306.756C267.232 306.625 267.258 306.494 267.319 306.362C267.375 306.23 267.443 306.143 267.518 306.1L268.219 305.696L268.466 305.726L268.642 305.947C268.731 306.104 268.853 306.204 269.007 306.248C269.163 306.294 269.406 306.22 269.735 306.028Z" fill="#F9F9F9"/>
<path d="M275.232 300.225C275.232 300.361 275.205 300.493 275.149 300.621C275.095 300.75 275.029 300.837 274.953 300.881L274.171 301.334L273.976 301.299C273.919 301.235 273.891 301.134 273.891 301V292.457C273.891 292.322 273.919 292.189 273.976 292.062C274.03 291.932 274.096 291.846 274.171 291.801L274.953 291.349L275.149 291.384C275.205 291.447 275.232 291.547 275.232 291.683V300.225ZM275.004 287.837L275.201 287.869C275.256 287.936 275.284 288.036 275.284 288.17V289.599C275.284 289.735 275.256 289.867 275.201 289.996C275.147 290.126 275.081 290.212 275.004 290.256L274.12 290.769L273.923 290.734C273.868 290.668 273.84 290.568 273.84 290.433V289.004C273.84 288.87 273.868 288.737 273.923 288.606C273.978 288.478 274.044 288.391 274.12 288.349L275.004 287.837Z" fill="#F9F9F9"/>
<path d="M282.521 296.067C282.521 296.201 282.493 296.333 282.441 296.463C282.385 296.592 282.319 296.678 282.244 296.721L281.46 297.175L281.263 297.14C281.208 297.076 281.181 296.975 281.181 296.841V292.185C281.181 291.452 281.086 290.92 280.892 290.591C280.701 290.263 280.405 290.213 280.005 290.444C279.641 290.652 279.356 291.039 279.145 291.6C278.935 292.159 278.83 292.809 278.83 293.542V298.198C278.83 298.332 278.803 298.465 278.749 298.593C278.693 298.722 278.627 298.81 278.552 298.853L277.769 299.306L277.572 299.272C277.517 299.207 277.489 299.107 277.489 298.972V290.428C277.489 290.294 277.517 290.162 277.572 290.034C277.628 289.904 277.693 289.817 277.769 289.772L278.552 289.322L278.749 289.355C278.803 289.421 278.83 289.521 278.83 289.654V290.077C279.009 289.655 279.218 289.273 279.46 288.926C279.699 288.578 279.985 288.31 280.317 288.12C280.735 287.877 281.086 287.79 281.367 287.86C281.649 287.93 281.876 288.111 282.047 288.401C282.219 288.693 282.34 289.08 282.414 289.556C282.485 290.036 282.521 290.561 282.521 291.135V296.067Z" fill="#F9F9F9"/>
<path d="M349.255 257.927L336.434 265.329L338.419 247.346C336.887 246.535 335.91 244.541 335.91 241.675C335.91 236.568 339.015 230.636 342.845 228.424C346.675 226.213 349.781 228.561 349.781 233.667C349.781 236.532 348.802 239.657 347.27 242.237L349.255 257.927Z" fill="#335863"/>
<path d="M349.34 257.838L338.056 251.324L336.519 265.241L349.34 257.838Z" fill="#23434C"/>
<path d="M342.433 228.424C339.928 229.87 337.738 232.913 336.519 236.272L346.858 242.241V242.237C348.392 239.657 349.369 236.532 349.369 233.667C349.369 228.561 346.263 226.213 342.433 228.424Z" fill="#23434C"/>
<path d="M280.523 168.357C276.138 165.819 270.078 166.179 263.382 170.045C249.999 177.773 239.15 196.567 239.152 212.02C239.152 219.775 241.887 225.212 246.301 227.73C247.451 228.386 253.683 232.012 254.84 232.681C259.225 235.217 265.281 234.855 271.974 230.99C285.356 223.263 296.203 204.471 296.203 189.016C296.203 181.292 293.492 175.869 289.111 173.336L280.523 168.357Z" fill="#00B2A7"/>
<path d="M271.904 175.22C258.523 182.951 247.673 201.741 247.674 217.194C247.675 232.649 258.525 238.913 271.907 231.186C285.289 223.459 296.15 204.666 296.137 189.212C296.124 173.759 285.275 167.494 271.904 175.22Z" fill="#00B2A7"/>
<path d="M285.383 209.429V211.192C281.933 217.082 277.21 222.21 272.005 225.208C266.79 228.215 262.076 228.544 258.626 226.626V222.972C258.626 215.917 263.416 207.616 269.528 204.079L273.046 202.055C276.169 200.252 279.195 200.021 281.577 201.399C284.005 202.797 285.383 205.718 285.383 209.429Z" fill="#00B2A7"/>
<path fill-rule="evenodd" clip-rule="evenodd" d="M288.731 173.537C288.701 173.519 288.671 173.502 288.64 173.484L285.402 171.607L288.731 173.537Z" fill="#FBFCFC"/>
<path d="M250.784 200.399L242.197 195.418C246.453 184.913 254.126 175.105 262.893 170.043C266.782 167.8 270.456 166.738 273.711 166.738C276.062 166.738 278.193 167.292 280.032 168.357L285.292 171.405L288.53 173.282C286.71 172.251 284.607 171.714 282.292 171.714C279.038 171.714 275.367 172.777 271.482 175.022C271.316 175.118 271.15 175.216 270.985 175.315C270.981 175.318 270.976 175.32 270.97 175.324H270.969C262.418 180.47 254.956 190.098 250.784 200.399Z" fill="#49C2BF"/>
<path d="M251.326 200.343L251.323 200.341C255.496 190.04 262.958 180.412 271.508 175.267C262.96 180.414 255.498 190.043 251.326 200.343ZM271.51 175.267C271.515 175.263 271.52 175.26 271.524 175.258C271.519 175.26 271.515 175.263 271.51 175.267Z" fill="#49C2BF"/>
<path d="M252.953 231.638C252.185 231.192 251.268 230.659 250.362 230.132C251.263 230.656 252.177 231.187 252.953 231.638ZM243.698 225.759C240.838 222.819 239.152 218.16 239.152 212.073H239.154C239.155 218.16 240.839 222.818 243.698 225.759Z" fill="#C0C1C1"/>
<path d="M254.484 232.525C254.138 232.326 253.597 232.012 252.951 231.638C252.175 231.187 251.262 230.656 250.36 230.132C248.585 229.101 246.843 228.09 246.3 227.781C245.351 227.24 244.48 226.564 243.697 225.759C240.838 222.818 239.154 218.16 239.152 212.073L247.74 217.056C247.74 217.63 247.756 218.193 247.785 218.742C248.144 225.371 250.628 230.11 254.484 232.525Z" fill="#00AD99"/>
<path d="M254.407 232.571C254.395 232.566 254.383 232.559 254.373 232.551C250.517 230.136 248.033 225.397 247.674 218.768C248.037 225.414 250.534 230.164 254.407 232.571Z" fill="#00AD99"/>
<path d="M239.154 212.138H239.152C239.152 211.13 239.2 210.107 239.29 209.074C239.2 210.107 239.154 211.128 239.154 212.137V212.138ZM239.292 209.048C239.292 209.043 239.292 209.036 239.294 209.031C239.292 209.036 239.292 209.043 239.292 209.048Z" fill="#D9DAD9"/>
<path d="M247.74 216.924L239.152 211.941V211.94C239.152 210.932 239.199 209.91 239.288 208.878C239.288 208.868 239.29 208.86 239.291 208.851C239.291 208.846 239.291 208.839 239.292 208.834C239.683 204.416 240.876 199.812 242.687 195.34L251.274 200.32C249.69 204.231 248.58 208.239 248.065 212.134C248.064 212.145 248.064 212.154 248.062 212.163C248.061 212.168 248.061 212.174 248.06 212.179C247.85 213.783 247.74 215.368 247.74 216.919V216.924Z" fill="#00AFA1"/>
<path d="M247.674 212.37C247.675 212.365 247.675 212.359 247.676 212.354C247.675 212.359 247.675 212.365 247.674 212.37ZM247.679 212.325C248.194 208.43 249.304 204.422 250.888 200.511L250.891 200.513C249.304 204.424 248.195 208.431 247.679 212.325Z" fill="#00AFA1"/>
<path d="M268.967 201.154C268.128 201.154 267.345 200.952 266.636 200.545C265.003 199.603 264.104 197.734 264.104 195.288C264.104 190.81 267.143 185.545 271.025 183.304V183.3C273.136 182.076 275.198 181.924 276.842 182.868C278.475 183.81 279.374 185.678 279.374 188.124C279.374 192.603 276.335 197.868 272.457 200.11C271.254 200.803 270.067 201.154 268.967 201.154Z" fill="white"/>
<path d="M281.577 201.399C279.195 200.021 276.169 200.252 273.046 202.055L269.528 204.079C263.416 207.616 258.626 215.917 258.626 222.972V226.626C262.076 228.544 266.79 228.215 272.005 225.208C277.21 222.21 281.933 217.082 285.383 211.192V209.429C285.383 205.718 284.005 202.797 281.577 201.399Z" fill="white"/>
<path d="M552.55 429.797C552.55 429.797 554.303 414.381 561.971 402.416C569.64 390.452 580.176 382.985 590.008 382.206C599.838 381.429 607.779 390.475 597.26 396.685C586.74 402.898 568.052 409.236 559.451 432.469L552.55 429.797Z" fill="#00B2A7"/>
<path d="M559.349 432.468L558.635 432.191C558.909 423.121 559.233 413.287 559.532 406.494C560.242 405.108 561.019 403.741 561.869 402.416C569.538 390.451 580.074 382.984 589.907 382.205C590.305 382.174 590.703 382.159 591.093 382.159C597.115 382.159 602.138 385.783 602.138 389.956C602.139 392.2 600.687 394.601 597.159 396.684C586.638 402.897 567.95 409.235 559.349 432.468Z" fill="#00AFA1"/>
<path d="M555.416 425.743L555.313 425.712C555.044 425.603 554.913 425.296 555.024 425.028C565.399 399.477 585.15 388.808 594.144 386.737C594.425 386.67 594.708 386.848 594.775 387.13C594.84 387.414 594.663 387.695 594.381 387.76C585.57 389.789 566.208 400.273 555.997 425.423C555.902 425.658 555.656 425.786 555.416 425.743Z" fill="white"/>
<path d="M607.934 426.121C607.045 428.127 604.854 429.173 602.815 429.994C600.787 430.808 598.565 431.697 597.464 433.593C595.244 437.427 598.887 442.816 596.506 446.548C595.505 448.112 593.647 448.937 591.819 449.266C590.299 449.549 588.754 449.547 587.213 449.676C586.473 449.662 585.739 449.608 585.023 449.507C582.91 449.2 580.617 449.101 578.681 450.182C575.636 451.895 574.7 455.742 572.849 458.708C570.632 462.258 566.71 464.583 562.589 465.144C561.219 465.325 558.673 465.571 557.277 464.794L556.991 464.611L556.964 464.585C556.774 464.369 556.533 464.094 556.43 463.945L556.376 463.854C555.836 461.866 556.718 459.798 556.752 457.745C556.756 457.616 556.757 457.496 556.749 457.373C556.665 454.986 556.597 452.614 556.542 450.233C556.431 445.854 556.381 441.463 556.41 437.08C556.442 434.231 556.099 431.115 557.302 428.432C558.638 425.482 561.954 425.417 563.209 422.523C563.711 421.37 563.978 420.134 564.463 418.967C565.913 415.545 569.429 413.085 573.149 412.904C578.94 412.608 584.136 417.298 589.921 416.872C591.419 416.754 592.879 416.299 594.354 416.027C599.046 415.149 604.467 416.484 607.105 420.453C608.208 422.112 608.741 424.299 607.934 426.121Z" fill="#00B2A7"/>
<path d="M555.999 454.673L555.958 454.664C555.697 454.594 555.539 454.324 555.61 454.06C563.612 424.038 595.244 419.698 602.644 420.234C602.913 420.255 603.12 420.49 603.102 420.762C603.082 421.034 602.846 421.238 602.574 421.218C595.334 420.696 564.394 424.941 556.563 454.316C556.497 454.566 556.249 454.72 555.999 454.673Z" fill="white"/>
<path d="M591.334 439.258L591.071 439.119C590.993 439.04 582.926 431.086 569.546 433.055C569.277 433.092 569.023 432.91 568.984 432.639C568.944 432.369 569.132 432.118 569.401 432.078C583.298 430.035 591.69 438.34 591.773 438.425C591.966 438.619 591.963 438.93 591.771 439.123C591.652 439.24 591.487 439.285 591.334 439.258Z" fill="white"/>
<path d="M480.109 67.2528L484.309 68.8685V59.6154C484.309 52.2789 490.16 50.5193 496.514 54.1876C502.867 57.8558 508.017 66.7763 508.017 74.1128V75.4565C509.459 74.881 511.32 75.1041 513.355 76.2789C517.928 78.9188 521.634 85.3393 521.634 90.6179V91.2277L527.491 94.6095C530.502 96.3479 532.942 100.575 532.942 104.051C532.942 107.528 530.502 108.937 527.491 107.2L480.109 79.8428C477.097 78.1044 474.657 73.8765 474.657 70.401C474.657 66.9241 477.097 65.5144 480.109 67.2528Z" fill="#E0E0DF"/>
<path d="M536.49 59.8387L544.106 64.2355C544.068 63.8963 544.041 63.5584 544.041 63.2284V61.0214C544.041 57.0957 546.797 55.5038 550.198 57.4666C551.574 58.2626 552.842 59.5219 553.867 60.995C554.423 56.0595 558.297 54.2208 563.002 56.936C568.089 59.873 572.212 67.0154 572.212 72.8894V76.1893C572.212 77.71 571.931 78.9917 571.432 80.0133L577.758 83.6644C579.644 84.7534 581.172 87.4026 581.172 89.5806C581.172 91.7572 579.644 92.6403 577.758 91.5513L536.49 67.7256C534.605 66.6366 533.076 63.9887 533.076 61.8107C533.076 59.6327 534.605 58.7497 536.49 59.8387Z" fill="#E0E0DF"/>
<path d="M506.833 260.247C501.288 269.621 495.954 277.764 492.209 281.667C485.098 284.975 468.39 290.058 461.852 290.909C460.693 291.061 459.529 290.765 458.572 290.137C456.002 288.453 454.014 288.18 451.304 287.242C449.182 286.507 448.283 285.495 447.884 285.88C447.373 286.375 446.815 287.784 448.106 289.241C448.755 289.975 449.939 290.775 451.464 291.754C451.464 291.754 446.788 293 442.613 291.905C436.956 290.42 434.284 293.14 438.111 299.285C439.481 301.485 444.876 305.008 455.811 304.056C458.961 303.783 463.507 303.519 467.429 302.682C477.916 300.445 489.574 298.276 496.743 296.134C498.552 295.594 501.782 293.502 503.705 291.309C515.762 277.567 519.755 267.775 525.041 258.875L524.583 244.332C516.04 244.068 511.47 252.404 506.833 260.247Z" fill="#F69DA3"/>
<path d="M525.879 244.171C525.879 244.171 518.418 242.584 512.809 249.759C506.939 257.269 496.564 275.304 496.564 275.304C496.564 275.304 499.969 284.347 509.128 285.833L523.842 265.958C523.842 265.958 530.81 252.199 525.879 244.171Z" fill="#335863"/>
<path d="M557.88 446.664H548.288V463.768H557.88V446.664Z" fill="#F69DA3"/>
<path d="M524.278 445.9L514.693 446.243L514.211 428.142L524.278 427.799V445.9Z" fill="#F69DA3"/>
<path d="M559.386 298.588C559.386 308.129 557.981 384.912 557.981 384.912C558.204 387.658 560.675 392.719 560.141 403.263C559.413 417.587 558.446 455.228 558.446 455.228C558.446 455.228 553.789 458.062 547.765 455.448C547.765 455.448 539.989 402.701 538.269 388.505C536.768 376.117 532.927 335.02 532.927 335.02L527.727 383.518C527.727 383.518 529.495 390.906 528.915 399.397C528.466 405.962 525.382 440.156 525.382 440.156C525.382 440.156 520.866 443.348 514.307 441.04C514.307 441.04 508.85 389.542 508.738 383.517C508.611 376.649 511.928 298.486 511.928 298.486L559.386 298.588Z" fill="#23434C"/>
<path d="M548.254 458.753V457.323C547.335 457.741 545.202 466.215 541.397 469.83C538.371 472.705 534.244 476.025 533.193 479.23C532.101 482.563 538.942 484.403 541.769 483.882C545.053 483.276 550.746 480.867 552.176 478.633C553.605 476.401 554.275 473.107 555.435 471.47C556.596 469.833 559.275 468.006 559.902 466.112C560.246 465.072 559.837 462.792 559.353 460.866C558.908 459.1 558.426 457.157 557.846 457.323C557.845 457.539 557.846 458.412 557.846 458.412C557.15 459.216 555.222 460.014 553.051 460.102C551.646 460.157 548.242 459.868 548.254 458.753Z" fill="#0C2B34"/>
<path d="M515.114 443.062C514.616 443.079 514.211 443.811 513.111 445.05C511.784 446.546 509.612 448.161 507.469 449.279C503.877 451.151 496.893 454.033 493.733 455.516C491.758 456.442 491.85 458.927 493.891 460.339C495.932 461.754 500.861 462.772 506.777 461.394C510 460.643 514.197 457.542 516.852 457.71C519.509 457.877 524.478 457.836 526.439 456.429C528.4 455.022 527.614 452.016 527.06 449.433C526.455 446.614 525.699 442.218 524.803 442.411V443.384C523.65 445.203 517.698 445.942 515.165 444.603L515.114 443.062Z" fill="#0C2B34"/>
<path d="M532.436 335.063C532.436 335.063 524.769 332.813 519.078 327.086C519.078 327.086 521.656 332.112 529.321 336.79L527.682 380.099L532.436 335.063Z" fill="#0C2B34"/>
<path d="M553.854 245.452C553.854 245.452 561.74 247.277 561.207 261.579L559.549 284.359L559.594 318.547C552.54 326.539 521.267 325.954 510.561 317.906C510.561 317.906 511.774 277.449 512.497 261.881C513.01 250.813 515.557 245.241 526.435 244.021L539.811 244.61L553.854 245.452Z" fill="#00B2A7"/>
<path d="M544.003 215.69C544.003 223.906 537.607 230.565 529.722 230.565C521.833 230.565 517.165 223.722 515.438 215.69C512.282 201 521.833 200.815 529.722 200.815C537.607 200.815 544.003 207.476 544.003 215.69Z" fill="#0C2B34"/>
<path d="M551.008 221.81C551.008 221.81 548.818 232.528 547.94 234.289C547.061 236.051 545.246 236.552 545.246 236.552L545.399 229.011L551.008 221.81Z" fill="#0C2B34"/>
<path d="M548.449 206.314C548.449 206.314 550.02 205.921 551.689 208.528C553.119 210.762 553.444 215.782 551.198 221.669L547.071 222.163L548.449 206.314Z" fill="#0C2B34"/>
<path d="M549.506 208.57L554.564 208.663C554.688 207.213 553.655 206.014 552.259 205.989C550.861 205.963 549.63 207.118 549.506 208.57Z" fill="#0C2B34"/>
<path d="M550.146 207.399L553.894 203.793C552.969 202.721 551.379 202.659 550.344 203.654C549.31 204.649 549.22 206.326 550.146 207.399Z" fill="#0C2B34"/>
<path d="M545.45 222.366C546.277 222.881 547.457 221.226 548.479 220.114C549.498 219.002 552.703 217.952 554.365 221.598C556.057 225.315 553.194 228.849 550.813 230.031C546.557 232.147 545.204 229.07 545.204 229.07L544.86 246.049C538.86 255.329 525.271 254.995 530.156 245.601L530.169 240.433C530.169 240.433 526.075 241.081 524.078 240.759C520.754 240.224 518.663 237.492 517.655 233.746C516.036 227.728 515.421 222.869 516.794 211.033C518.301 198.06 532.787 197.925 540.611 203.054C548.434 208.182 545.45 222.366 545.45 222.366Z" fill="#F69DA3"/>
<path d="M527.377 208.823C530.838 208.478 534.26 207.773 537.728 207.517C538.478 207.462 539.245 207.429 539.972 207.626C542.63 208.343 542.286 211.433 542.709 213.59C543.435 217.307 544.038 223.605 545.436 223.634C545.852 223.642 547.436 220.907 548.465 219.931C549.132 219.299 549.245 217.935 549.389 217.092C549.652 215.553 549.796 213.991 549.915 212.435C550.014 211.116 550.146 209.775 550.14 208.452C550.135 206.97 550.163 205.459 549.794 204.011C549.459 202.695 548.843 201.71 547.943 200.684L547.679 200.39C545.972 198.55 543.795 197.172 541.484 196.218C538.167 194.85 534.571 194.305 531.003 193.939C527.434 193.574 523.837 193.376 520.322 192.654C520.116 192.611 519.898 192.568 519.703 192.643C519.396 192.76 519.263 193.116 519.202 193.436C518.892 195.067 519.625 196.847 520.992 197.786C518.602 197.976 515.855 196.73 513.55 196.105C513.162 196.001 512.723 195.902 512.377 196.109C512.139 196.253 511.999 196.516 511.915 196.781C511.719 197.394 511.763 198.055 511.85 198.693C512.108 200.577 512.749 202.437 513.911 203.942C515.582 206.11 518.333 208.063 521.044 208.606C523.187 209.036 525.189 209.041 527.377 208.823Z" fill="#0C2B34"/>
<path d="M530.641 240.364C530.641 240.364 538.059 238.808 540.653 237.371C542.389 236.41 543.818 234.745 544.239 233.677C544.239 233.677 543.752 235.97 542.202 238.035C540.304 240.56 530.641 242.42 530.641 242.42V240.364Z" fill="#F48A8F"/>
<path d="M531.859 220.381C531.859 221.269 532.526 221.988 533.346 221.985C534.168 221.984 534.833 221.26 534.833 220.373C534.833 219.484 534.168 218.765 533.346 218.768C532.526 218.771 531.859 219.493 531.859 220.381Z" fill="#0C2B34"/>
<path d="M534.293 214.024L537.474 215.852C537.943 214.9 537.611 213.72 536.734 213.215C535.855 212.711 534.762 213.072 534.293 214.024Z" fill="#0C2B34"/>
<path d="M530.993 230.939L527.598 232.266C527.934 233.279 528.966 233.803 529.904 233.436C530.841 233.071 531.328 231.953 530.993 230.939Z" fill="#F48A8F"/>
<path d="M518.214 215.188L521.115 212.861C520.522 211.996 519.394 211.815 518.593 212.458C517.793 213.101 517.622 214.322 518.214 215.188Z" fill="#0C2B34"/>
<path d="M519.688 219.772C519.688 220.661 520.354 221.379 521.175 221.376C521.996 221.375 522.661 220.653 522.661 219.764C522.661 218.875 521.996 218.157 521.175 218.159C520.354 218.162 519.688 218.884 519.688 219.772Z" fill="#0C2B34"/>
<path d="M527.622 218.768L527.449 228.158L522.12 226.936L527.622 218.768Z" fill="#F48A8F"/>
<path d="M401.022 297.188L409.292 292.414L412.568 288.445L404.3 293.22L401.022 297.188Z" fill="#00B2A7"/>
<path d="M401.022 297.282L402.185 295.874L404.299 293.316L404.301 293.313L406.069 294.37L401.022 297.282Z" fill="#00907C"/>
<path d="M423.538 310.289L431.805 305.516L438.717 299.399L430.448 304.172L423.538 310.289Z" fill="#00B2A7"/>
<path d="M423.538 310.081L423.539 310.079H423.541L423.538 310.081ZM423.553 310.073L428.941 305.298L430.448 303.964L430.451 303.962L432.191 304.967L431.805 305.307L423.553 310.073Z" fill="#00907C"/>
<path d="M512.842 327.04C510.06 308.097 499.884 289.356 487.751 282.355C481.93 278.989 476.543 278.867 472.226 281.391C470.964 282.124 466.284 284.824 464.438 285.883C464.289 285.965 464.139 286.045 464.004 286.14C463.665 286.33 463.324 286.548 463 286.778C462.375 287.212 461.777 287.701 461.208 288.258L460.95 288.502C460.707 288.746 460.461 289.018 460.23 289.289C459.946 289.615 459.661 289.954 459.404 290.306C458.86 291.026 458.345 291.799 457.883 292.64C457.652 293.048 457.423 293.482 457.205 293.93L389.206 254.672L380.941 259.434V264.7L381.646 265.106L382.298 265.487V266.599L380.941 267.386V270.454L390.93 291.596L400.809 297.309L404.091 293.333L412.805 298.543L417.811 307.12L423.321 310.295L430.227 304.175L438.709 309.074L441.559 320.826L455.767 329.021C456.487 332.034 457.395 334.979 458.454 337.856C458.549 338.154 458.657 338.454 458.78 338.779C463.501 351.195 471.019 361.82 479.486 366.719C480.574 367.343 481.631 367.859 482.675 368.253C483.273 368.497 483.871 368.687 484.453 368.851C484.984 369 485.512 369.121 486.041 369.203C487.792 369.515 489.489 369.501 491.077 369.19C491.307 369.134 491.538 369.08 491.767 369.026C492.093 368.959 492.419 368.864 492.732 368.742C492.975 368.646 493.221 368.552 493.464 368.457C493.722 368.361 493.98 368.239 494.224 368.104C494.468 367.995 494.699 367.873 494.93 367.738C495.051 367.669 495.174 367.602 495.282 367.533L495.445 367.438C497.332 366.353 501.985 363.666 503.249 362.948C509.53 359.311 513.603 350.096 513.603 337.069C513.603 333.758 513.345 330.393 512.842 327.04ZM493.619 326.791C495.433 329.097 496.754 332.484 497.037 335.789C495.224 333.483 493.903 330.096 493.619 326.791Z" fill="#00B2A7"/>
<path d="M504.578 331.604C501.797 312.674 491.62 293.933 479.486 286.931C473.87 283.688 468.672 283.443 464.438 285.683C464.289 285.765 464.139 285.846 464.004 285.941C463.665 286.131 463.324 286.349 463 286.578C462.375 287.013 461.777 287.501 461.208 288.058L460.95 288.302C460.707 288.546 460.461 288.818 460.23 289.089C459.946 289.415 459.661 289.754 459.404 290.107C458.86 290.826 458.345 291.6 457.883 292.44C457.652 292.848 457.423 293.283 457.205 293.73C456.079 296.037 455.183 298.724 454.586 301.763L380.941 259.235V264.5L381.646 264.907L382.298 265.287V266.4L380.941 267.186V270.254L390.93 291.396L400.809 297.109L404.091 293.133L412.805 298.343L417.811 306.921L423.321 310.095L430.227 303.976L438.709 308.874L441.559 320.626L455.767 328.822C456.487 331.834 457.395 334.779 458.454 337.657C458.549 337.955 458.657 338.254 458.78 338.579C463.501 350.995 471.019 361.621 479.486 366.519C480.574 367.144 481.631 367.66 482.675 368.053C483.273 368.297 483.871 368.487 484.453 368.651C484.984 368.8 485.512 368.922 486.041 369.004C487.792 369.315 489.489 369.302 491.077 368.99C491.307 368.935 491.538 368.881 491.767 368.827C492.093 368.759 492.419 368.664 492.732 368.543C492.975 368.447 493.221 368.353 493.464 368.258C493.722 368.161 493.98 368.04 494.224 367.904C494.468 367.796 494.699 367.673 494.93 367.538C495.051 367.47 495.174 367.402 495.282 367.334L495.445 367.239C501.471 363.44 505.338 354.361 505.338 341.647C505.338 338.335 505.066 334.969 504.578 331.604ZM491.195 342.571C487.933 340.687 485.288 335.089 485.288 330.067C485.288 325.044 487.933 322.499 491.195 324.383C494.456 326.266 497.101 331.864 497.101 336.888C497.101 341.91 494.456 344.456 491.195 342.571Z" fill="#00B2A7"/>
<path d="M493.591 343.167C492.947 343.167 492.249 342.967 491.521 342.546C490.62 342.026 489.767 341.226 489.003 340.234C486.999 337.622 485.61 333.682 485.61 330.043C485.61 327.119 486.507 325.035 487.899 324.175C488.364 323.889 488.883 323.74 489.442 323.74C490.089 323.74 490.789 323.939 491.521 324.361C491.608 324.412 491.697 324.466 491.784 324.521C492.225 324.806 492.652 325.159 493.063 325.567C493.368 325.872 493.66 326.208 493.937 326.574C494.221 329.871 495.551 333.263 497.356 335.569C497.379 335.76 497.395 335.95 497.406 336.137C497.418 336.38 497.424 336.621 497.424 336.862C497.424 340.758 495.828 343.167 493.591 343.167Z" fill="#00907C"/>
<path d="M489.009 340.407C487 337.796 485.61 333.859 485.61 330.219C485.61 327.294 486.509 325.207 487.906 324.348C486.513 325.207 485.617 327.292 485.617 330.215C485.617 333.855 487.006 337.795 489.009 340.407ZM497.431 337.035C497.431 336.794 497.424 336.553 497.412 336.31C497.427 336.554 497.431 336.796 497.431 337.032V337.035ZM493.07 325.739C492.659 325.332 492.231 324.979 491.791 324.694C492.233 324.979 492.662 325.33 493.07 325.739Z" fill="#00907C"/>
<path d="M488.223 282.27C488.215 282.266 488.207 282.262 488.201 282.258C488.207 282.262 488.215 282.266 488.223 282.27ZM488.09 282.195C484.998 280.451 482.031 279.624 479.287 279.621C482.031 279.624 484.997 280.451 488.09 282.195ZM472.832 281.35C472.84 281.345 472.848 281.341 472.854 281.336C472.848 281.341 472.84 281.345 472.832 281.35ZM479.274 279.621H479.278H479.274Z" fill="#F3F2F2"/>
<path d="M505.802 340.363C505.734 337.524 505.476 334.653 505.058 331.78C502.277 312.85 492.1 294.109 479.967 287.107C476.774 285.264 473.715 284.389 470.893 284.389C468.752 284.389 466.746 284.893 464.919 285.859C466.764 284.801 471.445 282.1 472.707 281.367C472.717 281.361 472.727 281.356 472.737 281.35C472.745 281.345 472.753 281.341 472.76 281.336C474.703 280.212 476.862 279.622 479.179 279.621H479.192C481.936 279.624 484.904 280.451 487.995 282.195C488.032 282.216 488.069 282.237 488.106 282.258C488.112 282.262 488.12 282.266 488.128 282.27C488.163 282.29 488.197 282.311 488.231 282.331C500.365 289.332 510.54 308.073 513.323 327.017C513.826 330.369 514.083 333.734 514.083 337.046C514.083 336.565 514.065 336.081 514.055 335.598C511.221 337.233 508.353 338.888 505.802 340.363Z" fill="#49C2BF"/>
<path d="M505.849 341.831C505.849 354.545 501.982 363.624 495.956 367.423C497.844 366.338 502.497 363.65 503.76 362.932C510.042 359.296 514.114 350.081 514.114 337.054C514.114 336.574 514.095 336.089 514.086 335.606C511.247 337.244 508.374 338.902 505.82 340.379C505.832 340.862 505.849 341.348 505.849 341.831Z" fill="#00B2A7"/>
<path d="M495.956 367.423C501.982 363.624 505.849 354.545 505.849 341.831C505.849 341.348 505.832 340.862 505.82 340.379C508.374 338.902 511.247 337.244 514.086 335.606C514.095 336.089 514.114 336.574 514.114 337.054C514.114 345.42 512.435 352.214 509.569 356.967C507.972 359.617 506.008 361.631 503.76 362.932C502.497 363.65 497.844 366.338 495.956 367.423Z" fill="#00AFA1"/>
<path d="M454.884 308.337L382.298 266.42V266.433L380.941 267.22L382.298 266.433V265.32L454.884 307.225V308.337Z" fill="#00AE9D"/>
<path d="M454.884 310.03L380.941 267.338L382.298 266.551V266.538L454.884 308.456V310.03Z" fill="#00AB94"/>
<path d="M487.379 363.003H487.359C484.87 363.003 482.21 362.233 479.471 360.652C473.353 357.112 467.924 350.198 463.985 341.87C460.05 333.538 457.619 323.781 457.617 314.515C457.619 307.321 459.081 301.464 461.641 297.349C464.185 293.244 467.904 290.879 472.224 290.879H472.245C474.733 290.879 477.393 291.65 480.131 293.231C486.25 296.77 491.679 303.685 495.618 312.013C499.552 320.345 501.985 330.102 501.986 339.369C501.985 346.563 500.522 352.419 497.963 356.534C495.418 360.638 491.699 363.003 487.379 363.003ZM458.937 314.515C458.936 323.55 461.322 333.145 465.178 341.306C469.03 349.468 474.363 356.185 480.131 359.509C482.711 360.999 485.145 361.684 487.359 361.683C491.19 361.676 494.446 359.659 496.842 355.835C499.226 352.014 500.669 346.384 500.666 339.369C500.667 330.333 498.281 320.738 494.425 312.578C490.573 304.414 485.241 297.697 479.471 294.373C476.892 292.884 474.459 292.199 472.245 292.199C468.413 292.207 465.157 294.224 462.761 298.048C460.377 301.869 458.935 307.499 458.937 314.515Z" fill="#00AE9D"/>
<path d="M454.586 301.963L380.941 259.434L389.206 254.672L457.205 293.93C456.079 296.237 455.183 298.923 454.586 301.963Z" fill="#49C2BF"/>
<path d="M553.054 297.873C556.918 290.569 561.319 274.175 563.511 265.901C566.626 254.149 561.585 246.755 555.864 246.457C552.277 247.003 540.498 289.871 540.498 289.871C539.192 290.915 521.262 300 515.502 302.284C514.483 302.689 513.344 302.673 512.313 302.297C509.546 301.286 507.664 301.479 504.955 301.206C502.834 300.993 501.762 300.241 501.494 300.693C501.151 301.278 500.991 302.733 502.534 303.818C503.312 304.364 504.591 304.851 506.228 305.431C506.228 305.431 503.165 306.492 499.081 306.401C493.544 306.28 491.551 308.685 495.845 314.299C498.537 317.815 502.864 318.924 512.61 315.553C515.419 314.582 519.222 312.695 522.762 311.408C530.082 308.748 531.962 308.462 537.581 306.569C545.69 303.839 551.339 301.113 553.054 297.873Z" fill="#F69DA3"/>
<path d="M553.526 245.544C556.895 246.005 560.161 246.766 562.12 249.487C564.08 252.209 565.713 256.047 563.754 266.592C561.794 277.137 557.765 288.339 557.765 288.339C557.765 288.339 549.928 291.688 541.594 283.191L547.316 261.042C547.316 261.042 548.295 246.655 553.526 245.544Z" fill="#335863"/>
</svg>
