<svg width="170" height="170" viewBox="0 0 170 170" fill="none" xmlns="http://www.w3.org/2000/svg">
<circle cx="85" cy="85" r="82.5" fill="white" stroke="#034E49" stroke-width="5"/>
<path d="M84.5 79C92.6053 79 99.6238 76.1422 105.358 70.5037C111.093 64.8661 114 57.9681 114 49.9991C114 42.0328 111.093 35.1339 105.357 29.4945C99.6219 23.8578 92.6043 21 84.5 21C76.3938 21 69.3772 23.8578 63.6426 29.4954C57.908 35.133 55 42.0319 55 49.9991C55 57.9681 57.908 64.867 63.6435 70.5046C69.379 76.1412 76.3966 79 84.5 79Z" fill="#23434C"/>
<path d="M135.755 114.289C135.592 111.953 135.261 109.403 134.774 106.711C134.283 103.999 133.65 101.436 132.893 99.0923C132.111 96.6703 131.047 94.2785 129.731 91.9864C128.366 89.6074 126.763 87.5359 124.964 85.8313C123.082 84.0479 120.779 82.6141 118.115 81.5683C115.461 80.528 112.519 80.0009 109.372 80.0009C108.137 80.0009 106.942 80.5032 104.633 81.9919C103.213 82.9097 101.551 83.9711 99.6967 85.145C98.1109 86.146 95.9626 87.0839 93.3091 87.933C90.7202 88.7629 88.0916 89.1838 85.4972 89.1838C82.9028 89.1838 80.2752 88.7629 77.6835 87.933C75.0328 87.0848 72.8845 86.1469 71.3005 85.1459C69.4634 83.983 67.8009 82.9216 66.3592 81.991C64.0539 80.5023 62.8578 80 61.622 80C58.4744 80 55.5336 80.528 52.8801 81.5692C50.2183 82.6132 47.9139 84.047 46.0306 85.8322C44.2324 87.5377 42.6281 89.6084 41.2648 91.9864C39.9505 94.2785 38.8865 96.6694 38.1033 99.0932C37.3469 101.436 36.7142 103.999 36.2229 106.711C35.7361 109.4 35.4055 111.95 35.242 114.292C35.0813 116.587 35 118.969 35 121.374C35 127.635 37.0088 132.703 40.9702 136.44C44.8826 140.129 50.0594 142 56.3547 142H114.645C120.941 142 126.116 140.13 130.029 136.44C133.991 132.705 136 127.636 136 121.373C135.999 118.957 135.917 116.573 135.755 114.289Z" fill="#23434C"/>
</svg>
