<svg width="129" height="128" viewBox="0 0 129 128" fill="none" xmlns="http://www.w3.org/2000/svg">
<path d="M36.4734 50.9656C35.7021 50.1517 34.4157 50.1172 33.6018 50.8884C32.788 51.6597 32.7534 52.9462 33.5247 53.76C34.296 54.5739 35.5824 54.6084 36.3963 53.8372C37.2101 53.0659 37.2447 51.7794 36.4734 50.9656Z" fill="#7545FF" fill-opacity="0.2"/>
<path d="M109.492 71.3179L95.52 56.5745C94.7484 55.7604 93.4627 55.7257 92.6484 56.4974L64.3409 83.3241C58.6502 88.7171 49.6329 88.4749 44.2398 82.7842C38.857 77.1042 39.0545 68.1088 44.7797 62.6831L73.0872 35.8564C73.9015 35.0847 73.9359 33.799 73.1643 32.9848L59.1922 18.2414C58.4206 17.4273 57.1349 17.3926 56.3206 18.1643L28.0131 44.991C12.567 59.6291 11.9097 84.1044 26.5479 99.5507C41.1861 114.997 65.6615 115.654 81.1077 101.016L109.415 74.1895C110.229 73.4178 110.264 72.1321 109.492 71.3179ZM57.6407 22.5103L68.8185 34.3051L58.2032 44.3652L47.0253 32.5703L57.6407 22.5103ZM78.3131 98.0675C64.4929 111.165 42.5937 110.577 29.4964 96.7564C16.3992 82.9362 16.9874 61.0369 30.8076 47.9397L44.0766 35.3648L55.2544 47.1596L41.9854 59.7345C34.6825 66.6554 34.3155 78.2179 41.2911 85.5787C48.225 92.8953 59.8186 93.2065 67.1353 86.2726L80.4043 73.6977L91.5821 85.4925L78.3131 98.0675ZM94.531 82.6979L83.3532 70.9031L93.9685 60.843L105.146 72.6379L94.531 82.6979Z" fill="#7545FF" fill-opacity="0.2"/>
<path d="M28.3251 75.9063C27.7139 70.3184 28.918 64.5822 31.7146 59.7544C32.2769 58.7835 31.9465 57.5404 30.975 56.9784C30.0045 56.4161 28.7616 56.7471 28.1992 57.7178C24.9717 63.2892 23.5822 69.9056 24.2866 76.3478C24.4084 77.4626 25.4113 78.2683 26.5266 78.1463C27.6417 78.0245 28.447 77.0215 28.3251 75.9063Z" fill="#7545FF" fill-opacity="0.2"/>
<path d="M79.8597 17.8268C80.0398 17.1463 79.8547 16.4209 79.3704 15.9099L76.0423 12.3981L81.5895 10.7131C82.6628 10.3869 83.2687 9.25241 82.9427 8.17897C82.6169 7.10553 81.4822 6.49975 80.4088 6.82581L71.7169 9.46602C71.0433 9.67064 70.5238 10.2094 70.3437 10.89C70.1637 11.5705 70.3488 12.2959 70.8331 12.8069L74.1611 16.3187L68.614 18.0037C67.5405 18.3297 66.9346 19.4642 67.2608 20.5378C67.5879 21.6147 68.725 22.216 69.7947 21.8909L78.4865 19.2507C79.1602 19.0461 79.6797 18.5073 79.8597 17.8268Z" fill="#7545FF" fill-opacity="0.2"/>
<path d="M118.982 59.1085C119.162 58.428 118.977 57.7026 118.492 57.1916L115.164 53.6798L120.712 51.9948C121.785 51.6686 122.391 50.5342 122.065 49.4607C121.739 48.3873 120.604 47.7815 119.531 48.1075L110.839 50.7478C110.165 50.9524 109.646 51.4912 109.466 52.1717C109.286 52.8522 109.471 53.5776 109.955 54.0886L113.283 57.6004L107.736 59.2854C106.663 59.6115 106.057 60.7459 106.383 61.8195C106.71 62.8965 107.847 63.4977 108.917 63.1727L117.609 60.5325C118.282 60.3279 118.802 59.7891 118.982 59.1085Z" fill="#7545FF" fill-opacity="0.2"/>
</svg>
