<svg width="44" height="44" viewBox="0 0 44 44" fill="none" xmlns="http://www.w3.org/2000/svg">
<circle cx="22" cy="22" r="21.25" fill="white" stroke="#7545FF" stroke-width="1.5"/>
<path d="M26.7783 22.2337L36.6673 28.4854V15.718L26.7783 22.2337Z" fill="#7545FF"/>
<path d="M7.33398 15.718V28.4854L17.223 22.2337L7.33398 15.718Z" fill="#7545FF"/>
<path d="M34.8347 12H9.16798C8.25315 12 7.52715 12.682 7.38965 13.5602L22.0013 23.187L36.613 13.5602C36.4755 12.682 35.7495 12 34.8347 12Z" fill="#7545FF"/>
<path d="M25.0999 23.3409L22.5057 25.0496C22.3517 25.1504 22.1776 25.1999 22.0016 25.1999C21.8256 25.1999 21.6514 25.1504 21.4974 25.0496L18.9032 23.3391L7.39355 30.6193C7.53472 31.4901 8.25706 32.1666 9.16822 32.1666H34.8349C35.7461 32.1666 36.4684 31.4901 36.6096 30.6193L25.0999 23.3409Z" fill="#7545FF"/>
</svg>
