<svg width="273" height="40" viewBox="0 0 273 40" fill="none" xmlns="http://www.w3.org/2000/svg">
<path fill-rule="evenodd" clip-rule="evenodd" d="M27 40C36.3888 40 44 31.0457 44 20C44 8.9543 36.3888 0 27 0H273V40H27Z" fill="#EFEAFF"/>
<circle cx="17" cy="20" r="16.4205" fill="white" stroke="#7545FF" stroke-width="1.15909"/>
<path d="M20.6924 20.1805L28.3339 25.0113V15.1456L20.6924 20.1805Z" fill="#7545FF"/>
<path d="M5.66699 15.1456V25.0113L13.3085 20.1805L5.66699 15.1456Z" fill="#7545FF"/>
<path d="M26.9175 12.2727H7.08413C6.37721 12.2727 5.81621 12.7997 5.70996 13.4783L17.0008 20.9172L28.2916 13.4783C28.1854 12.7997 27.6244 12.2727 26.9175 12.2727Z" fill="#7545FF"/>
<path d="M19.3951 21.0361L17.3905 22.3564C17.2715 22.4343 17.1369 22.4726 17.0009 22.4726C16.8649 22.4726 16.7303 22.4343 16.6113 22.3564L14.6067 21.0347L5.71289 26.6603C5.82197 27.3332 6.38014 27.8559 7.08422 27.8559H26.9176C27.6217 27.8559 28.1798 27.3332 28.2889 26.6603L19.3951 21.0361Z" fill="#7545FF"/>
</svg>
