<svg width="360" height="273" viewBox="0 0 360 273" fill="none" xmlns="http://www.w3.org/2000/svg">
<path d="M415.005 65.3035C346.143 97.4158 274.096 66.2157 201.434 66.6851C129.846 67.1475 54.2542 98.2169 -8.97983 68.0422C-75.9028 36.1072 -123.016 -29.201 -151.175 -101.577C-179.727 -174.961 -194.069 -260.633 -167.82 -340.213C-142.611 -416.641 -65.4765 -457.113 -13.7037 -518.353C38.8992 -580.576 65.9174 -676.845 138.942 -703.071C211.988 -729.305 280.798 -676.559 348.651 -648.49C410.662 -622.838 480.727 -604.778 517.449 -546.493C553.308 -489.577 531.79 -410.209 542.527 -340.768C554.657 -262.315 609.323 -190.645 584.629 -112.009C559.446 -31.8196 488.07 31.2316 415.005 65.3035Z" fill="#7545FF"/>
<path d="M415.005 65.3035C346.143 97.4158 274.096 66.2157 201.434 66.6851C129.846 67.1475 54.2542 98.2169 -8.97983 68.0422C-75.9028 36.1072 -123.016 -29.201 -151.175 -101.577C-179.727 -174.961 -194.069 -260.633 -167.82 -340.213C-142.611 -416.641 -65.4765 -457.113 -13.7037 -518.353C38.8992 -580.576 65.9174 -676.845 138.942 -703.071C211.988 -729.305 280.798 -676.559 348.651 -648.49C410.662 -622.838 480.727 -604.778 517.449 -546.493C553.308 -489.577 531.79 -410.209 542.527 -340.768C554.657 -262.315 609.323 -190.645 584.629 -112.009C559.446 -31.8196 488.07 31.2316 415.005 65.3035Z" fill="url(#paint0_linear)"/>
<defs>
<linearGradient id="paint0_linear" x1="117.362" y1="-362.271" x2="162.798" y2="121.325" gradientUnits="userSpaceOnUse">
<stop stop-color="#C13DFF"/>
<stop offset="1" stop-color="white" stop-opacity="0"/>
</linearGradient>
</defs>
</svg>
