<svg width="273" height="40" viewBox="0 0 273 40" fill="none" xmlns="http://www.w3.org/2000/svg">
<path fill-rule="evenodd" clip-rule="evenodd" d="M28 40C37.3507 40 44.9309 31.0457 44.9309 20C44.9309 8.9543 37.3507 0 28 0H273V40H28Z" fill="#EFEAFF"/>
<circle cx="17" cy="20" r="16.4205" fill="white" stroke="#7545FF" stroke-width="1.15909"/>
<path d="M25.3267 14.4366C24.5122 11.803 22.3673 9.65806 19.7337 8.84359C18.8106 8.55846 17.8603 8.40918 16.9372 8.40918C15.0502 8.40918 13.2312 8.99292 11.7108 10.1333C9.45719 11.7894 8.11328 14.4366 8.11328 17.2331C8.11328 19.1607 8.72417 20.9935 9.87806 22.5275L16.9372 31.5776L23.9963 22.5275C25.7203 20.2196 26.2091 17.2739 25.3267 14.4366ZM16.9372 21.9844C14.3172 21.9844 12.1859 19.8531 12.1859 17.2331C12.1859 14.6131 14.3172 12.4818 16.9372 12.4818C19.5572 12.4818 21.6885 14.6131 21.6885 17.2331C21.6885 19.8531 19.5572 21.9844 16.9372 21.9844Z" fill="#807DFB"/>
<path d="M23.9966 22.5274L16.9375 31.5775V21.9843C19.5575 21.9843 21.6888 19.853 21.6888 17.233C21.6888 14.6129 19.5575 12.4816 16.9375 12.4816V8.40906C17.8606 8.40906 18.8109 8.55839 19.734 8.84347C22.3676 9.65793 24.5125 11.8029 25.327 14.4365C26.2094 17.2737 25.7206 20.2195 23.9966 22.5274Z" fill="#7545FF"/>
</svg>
