<svg width="360" height="58" viewBox="0 0 360 58" fill="none" xmlns="http://www.w3.org/2000/svg">
<path d="M0 13.327V109H360V13.327C340.586 -4.92077 286 -2.55653 183.766 13.327C81.5314 29.2106 21.9247 31.5748 0 13.327Z" fill="#FF42CA"/>
<path d="M0 13.327V109H360V13.327C340.586 -4.92077 286 -2.55653 183.766 13.327C81.5314 29.2106 21.9247 31.5748 0 13.327Z" fill="url(#paint0_linear)"/>
<path d="M15.5 34.4283C21.4184 37.7626 28.806 40.1241 37.5455 41.6839C49.4191 43.803 64.083 44.4929 81.5585 43.954C83.4905 43.8944 85.0085 42.2798 84.9489 40.3477C84.9488 40.3427 84.9486 40.3378 84.9484 40.3328C95.8397 39.9046 107.846 39.0175 120.99 37.7039C120.99 37.7062 120.991 37.7085 120.991 37.7108C121.191 39.6335 122.912 41.0299 124.834 40.8299C145.843 38.6444 169.64 35.4155 196.303 31.2731C222.064 27.2707 244.766 24.1326 264.621 21.9681C266.54 21.7588 267.927 20.0351 267.721 18.1162C280.327 16.7925 291.766 15.8748 302.09 15.3934C302.172 17.3176 303.793 18.8159 305.72 18.743C322.725 18.0992 336.359 18.7288 346.98 20.7067C356.823 22.5399 363.806 25.4819 368.5 29.3897V64.6119C368.5 66.5449 370.067 68.1119 372 68.1119V83.1903C370.067 83.1903 368.5 84.7573 368.5 86.6903V119.988H325.846C323.913 119.988 322.346 121.555 322.346 123.488H301.654C301.654 121.555 300.087 119.988 298.154 119.988H205.846C203.913 119.988 202.346 121.555 202.346 123.488H181.654C181.654 121.555 180.087 119.988 178.154 119.988H85.8462C83.9132 119.988 82.3462 121.555 82.3462 123.488H61.6538C61.6538 121.555 60.0868 119.988 58.1538 119.988H15.5V86.6903C15.5 84.7573 13.933 83.1903 12 83.1903V68.1119C13.933 68.1119 15.5 66.5449 15.5 64.6119V34.4283Z" stroke="#FC5296" stroke-width="7" stroke-linecap="round" stroke-linejoin="round" stroke-dasharray="100 30"/>
<path d="M15.5 34.4283C21.4184 37.7626 28.806 40.1241 37.5455 41.6839C49.4191 43.803 64.083 44.4929 81.5585 43.954C83.4905 43.8944 85.0085 42.2798 84.9489 40.3477C84.9488 40.3427 84.9486 40.3378 84.9484 40.3328C95.8397 39.9046 107.846 39.0175 120.99 37.7039C120.99 37.7062 120.991 37.7085 120.991 37.7108C121.191 39.6335 122.912 41.0299 124.834 40.8299C145.843 38.6444 169.64 35.4155 196.303 31.2731C222.064 27.2707 244.766 24.1326 264.621 21.9681C266.54 21.7588 267.927 20.0351 267.721 18.1162C280.327 16.7925 291.766 15.8748 302.09 15.3934C302.172 17.3176 303.793 18.8159 305.72 18.743C322.725 18.0992 336.359 18.7288 346.98 20.7067C356.823 22.5399 363.806 25.4819 368.5 29.3897V64.6119C368.5 66.5449 370.067 68.1119 372 68.1119V83.1903C370.067 83.1903 368.5 84.7573 368.5 86.6903V119.988H325.846C323.913 119.988 322.346 121.555 322.346 123.488H301.654C301.654 121.555 300.087 119.988 298.154 119.988H205.846C203.913 119.988 202.346 121.555 202.346 123.488H181.654C181.654 121.555 180.087 119.988 178.154 119.988H85.8462C83.9132 119.988 82.3462 121.555 82.3462 123.488H61.6538C61.6538 121.555 60.0868 119.988 58.1538 119.988H15.5V86.6903C15.5 84.7573 13.933 83.1903 12 83.1903V68.1119C13.933 68.1119 15.5 66.5449 15.5 64.6119V34.4283Z" stroke="url(#paint1_linear)" stroke-width="7" stroke-linecap="round" stroke-linejoin="round" stroke-dasharray="100 30"/>
<defs>
<linearGradient id="paint0_linear" x1="245.5" y1="-5.10353" x2="257.705" y2="267.575" gradientUnits="userSpaceOnUse">
<stop offset="0.0716208" stop-color="#FF2C78"/>
<stop offset="1" stop-color="white" stop-opacity="0"/>
</linearGradient>
<linearGradient id="paint1_linear" x1="192" y1="15" x2="304.5" y2="33" gradientUnits="userSpaceOnUse">
<stop stop-color="#FC5296"/>
<stop offset="1" stop-color="white" stop-opacity="0"/>
</linearGradient>
</defs>
</svg>
