<svg height="512" viewBox="0 0 512 512" width="512" xmlns="http://www.w3.org/2000/svg"><g><g fill="#57a4ff"><path d="m16 32h480v32h-480z"/><circle cx="256" cy="464" r="16"/></g><g fill="#004fac"><path d="m496 24h-480a8 8 0 0 0 -8 8v32a8 8 0 0 0 8 8h8v320a32.036 32.036 0 0 0 32 32h192v17.38a24 24 0 1 0 16 0v-17.38h192a32.042 32.042 0 0 0 32-32v-320h8a8 8 0 0 0 8-8v-32a8 8 0 0 0 -8-8zm-240 448a8 8 0 1 1 8-8 8.011 8.011 0 0 1 -8 8zm216-80a16.021 16.021 0 0 1 -16 16h-400a16.021 16.021 0 0 1 -16-16v-320h432zm16-336h-464v-16h464z"/><path d="m88 320h64a8 8 0 0 0 0-16h-56v-40h24a8 8 0 0 0 0-16h-24v-40h56a8 8 0 0 0 0-16h-64a8 8 0 0 0 -8 8v112a8 8 0 0 0 8 8z"/><path d="m176 248h32a8 8 0 0 0 0-16h-32a8 8 0 0 0 0 16z"/><path d="m176 272h32a8 8 0 0 0 0-16h-32a8 8 0 0 0 0 16z"/><path d="m240 320a8 8 0 0 0 8-8v-52a12 12 0 0 1 24 0v52a8 8 0 0 0 16 0v-52a12 12 0 0 1 24 0v52a8 8 0 0 0 16 0v-52a27.981 27.981 0 0 0 -48-19.569 27.94 27.94 0 0 0 -33.432-4.991 8 8 0 0 0 -14.568 4.56v72a8 8 0 0 0 8 8z"/><path d="m368 320h24a8 8 0 0 0 0-16h-24a16.019 16.019 0 0 1 -16-16v-24a16.019 16.019 0 0 1 16-16h24a8 8 0 0 0 0-16h-24a32.036 32.036 0 0 0 -32 32v24a32.036 32.036 0 0 0 32 32z"/><path d="m408 224h16a8 8 0 0 0 0-16h-8v-3.056l11.578-5.789a8 8 0 0 0 4.422-7.155v-16a8 8 0 0 0 -8-8h-16a8 8 0 0 0 0 16h8v3.056l-11.578 5.789a8 8 0 0 0 -4.422 7.155v16a8 8 0 0 0 8 8z"/></g></g></svg>