<svg width="98" height="112" viewBox="0 0 98 112" fill="none" xmlns="http://www.w3.org/2000/svg">
<path d="M75.133 78.8357C69.7293 78.8357 65.333 83.232 65.333 88.6357C65.333 94.0394 69.7293 98.4357 75.133 98.4357C80.5367 98.4357 84.933 94.0394 84.933 88.6357C84.933 83.232 80.5367 78.8357 75.133 78.8357ZM75.133 91.9024C73.3318 91.9024 71.8664 90.4369 71.8664 88.6357C71.8664 86.8345 73.3318 85.369 75.133 85.369C76.9343 85.369 78.3997 86.8345 78.3997 88.6357C78.3997 90.4369 76.9343 91.9024 75.133 91.9024Z" fill="#7545FF" fill-opacity="0.2"/>
<path d="M94.7333 0C92.9293 0 91.4667 1.4626 91.4667 3.26667V72.6499C87.313 68.4069 81.526 65.769 75.1333 65.769C68.7406 65.769 62.9536 68.4069 58.7999 72.6499V43.1201C58.7999 34.255 53.6345 26.2362 45.7333 22.4834V6.53334H57.7111C59.5151 6.53334 60.9777 5.07074 60.9777 3.26667C60.9777 1.4626 59.5151 0 57.7111 0H14.1554C12.3514 0 10.8888 1.4626 10.8888 3.26667C10.8888 5.07074 12.3514 6.53334 14.1554 6.53334H26.1332V22.4834C18.232 26.2362 13.0665 34.2552 13.0665 43.1201V85.369H9.79988C8.39368 85.369 7.1456 86.2687 6.70089 87.6025L0.167552 107.203C-0.164342 108.199 0.00269358 109.294 0.61661 110.146C1.23031 110.998 2.21641 111.502 3.26653 111.502H29.3999C30.45 111.502 31.4361 110.998 32.0498 110.146C32.6637 109.294 32.8308 108.199 32.4989 107.203L25.9655 87.6028C25.5211 86.2686 24.2728 85.369 22.8666 85.369H19.5999V59.1058C23.7536 63.3488 29.5406 65.9868 35.9332 65.9868C42.3259 65.9868 48.1129 63.3488 52.2666 59.1058V88.6357C52.2666 101.244 62.5246 111.502 75.1333 111.502C87.742 111.502 98 101.244 98 88.6357V3.26667C98 1.4626 96.5374 0 94.7333 0ZM20.5122 91.9024L24.8677 104.969H7.79893L12.1545 91.9024H20.5122ZM32.6666 6.53334H39.1999V43.1201C39.1999 44.9213 37.7345 46.3867 35.9332 46.3867C34.132 46.3867 32.6666 44.9213 32.6666 43.1201V6.53334ZM35.9332 59.4534C26.927 59.4534 19.5999 52.1263 19.5999 43.1201C19.5999 37.9099 22.1006 33.1084 26.1332 30.0773V43.1201C26.1332 48.5238 30.5295 52.9201 35.9332 52.9201C41.337 52.9201 45.7333 48.5238 45.7333 43.1201V30.0773C49.7659 33.1082 52.2666 37.9099 52.2666 43.1201C52.2666 52.1263 44.9395 59.4534 35.9332 59.4534ZM75.1333 104.969C66.1271 104.969 58.7999 97.6419 58.7999 88.6357C58.7999 79.6295 66.1271 72.3023 75.1333 72.3023C84.1395 72.3023 91.4667 79.6295 91.4667 88.6357C91.4667 97.6419 84.1395 104.969 75.1333 104.969Z" fill="#7545FF" fill-opacity="0.2"/>
</svg>
