<svg width="38" height="37" viewBox="0 0 38 37" fill="none" xmlns="http://www.w3.org/2000/svg">
<circle cx="19.0503" cy="18.6103" r="18.1284" fill="#140064"/>
<path d="M19.6663 9.375C16.4977 9.375 13.9199 11.9528 13.9199 15.1214V15.6739H18.3402V15.1214C18.3402 14.3901 18.9351 13.7953 19.6663 13.7953C20.3975 13.7953 20.9924 14.3901 20.9924 15.1214C20.9924 15.511 20.8213 15.8798 20.5231 16.1333L17.4561 18.7408V22.7095H21.8764V20.7846L23.3858 19.5013C24.6739 18.4068 25.4127 16.8104 25.4127 15.1214C25.4127 11.9528 22.8349 9.375 19.6663 9.375V9.375Z" fill="white"/>
<path d="M19.6672 28.5292C20.8878 28.5292 21.8773 27.5397 21.8773 26.319C21.8773 25.0984 20.8878 24.1089 19.6672 24.1089C18.4465 24.1089 17.457 25.0984 17.457 26.319C17.457 27.5397 18.4465 28.5292 19.6672 28.5292Z" fill="white"/>
</svg>
