<svg width="988" height="1080" viewBox="0 0 988 1080" fill="none" xmlns="http://www.w3.org/2000/svg">
<path d="M882.161 300.117C876.341 284.276 888.292 266.551 905.162 267.016V267.016C913 267.232 920.136 271.481 923.609 278.511C939.574 310.83 982.591 411.005 979.702 547.176C976.781 684.887 925.451 807.653 907.553 846.446C903.923 854.313 895.949 858.987 887.288 858.748V858.748C870.825 858.294 860.029 840.788 866.35 825.58C888.584 772.087 928.733 659.483 927.773 545.745C926.867 438.412 899.444 347.159 882.161 300.117Z" fill="#FFBC8B" fill-opacity="0.2"/>
<path d="M882.161 300.117C876.341 284.276 888.292 266.551 905.162 267.016V267.016C913 267.232 920.136 271.481 923.609 278.511C939.574 310.83 982.591 411.005 979.702 547.176C976.781 684.887 925.451 807.653 907.553 846.446C903.923 854.313 895.949 858.987 887.288 858.748V858.748C870.825 858.294 860.029 840.788 866.35 825.58C888.584 772.087 928.733 659.483 927.773 545.745C926.867 438.412 899.444 347.159 882.161 300.117Z" fill="url(#paint0_linear)"/>
<path fill-rule="evenodd" clip-rule="evenodd" d="M0 1080V0H630.415C637.413 5.04195 644.309 10.2332 651.095 15.5717C753.637 96.2363 829.593 207.903 870.01 331.943C909.837 454.17 901.106 584.544 877.671 710.929C854.299 836.971 819.365 964.547 734.839 1060.91C729.1 1067.46 723.193 1073.82 717.13 1080H0Z" fill="#5F37FF"/>
<path fill-rule="evenodd" clip-rule="evenodd" d="M0 1080V0H630.415C637.413 5.04195 644.309 10.2332 651.095 15.5717C753.637 96.2363 829.593 207.903 870.01 331.943C909.837 454.17 901.106 584.544 877.671 710.929C854.299 836.971 819.365 964.547 734.839 1060.91C729.1 1067.46 723.193 1073.82 717.13 1080H0Z" fill="url(#paint1_linear)"/>
<defs>
<linearGradient id="paint0_linear" x1="932.623" y1="228.758" x2="916.309" y2="820.533" gradientUnits="userSpaceOnUse">
<stop stop-color="#FFB29A" stop-opacity="0.2"/>
<stop offset="1" stop-color="white" stop-opacity="0"/>
</linearGradient>
<linearGradient id="paint1_linear" x1="-1569.97" y1="512.044" x2="943.531" y2="461.666" gradientUnits="userSpaceOnUse">
<stop stop-color="white"/>
<stop offset="1" stop-color="white" stop-opacity="0"/>
</linearGradient>
</defs>
</svg>
