<svg width="654" height="567" viewBox="0 0 654 567" fill="none" xmlns="http://www.w3.org/2000/svg">
<path d="M93.7435 518.257C218.736 582.162 421.389 582.163 546.379 518.259C671.371 454.353 671.371 350.743 546.379 286.838C421.387 222.932 218.735 222.932 93.7421 286.837C-31.2476 350.741 -31.2476 454.353 93.7435 518.257Z" fill="#F0F0F0"/>
<path d="M502.209 416.11C509.06 420.065 522.521 418.704 532.279 413.07L588.517 380.409C598.275 374.774 600.619 366.995 593.754 363.032C586.889 359.07 573.418 360.427 563.663 366.064L507.468 398.741C497.713 404.38 495.359 412.156 502.209 416.11Z" fill="#E4E4E4"/>
<path d="M164.025 446.324L106.821 413.297L164.025 380.271V446.324Z" fill="#E4E4E4"/>
<path d="M325.669 465.909L233.472 412.644L325.692 359.482L325.669 465.909Z" fill="#E4E4E4"/>
<path d="M86.2789 368.949C86.4394 355.569 77.0943 327.738 63.4189 310.199C49.7435 292.659 28.0678 279.694 12.4969 284.812C-2.0023 289.578 -0.667288 308.544 16.7034 321.31C34.0754 334.076 60.225 350.165 67.669 371.96L83.5173 398.784L86.2789 368.949Z" fill="#FFC092"/>
<path d="M77.8628 389.212L67.67 371.961C60.226 350.166 34.0764 334.077 16.7044 321.311C7.25509 314.367 2.55016 305.589 2.55861 298.259C2.56565 292.114 5.88487 286.986 12.498 284.813C14.8328 284.046 17.3029 283.684 19.8645 283.684C34.3876 283.684 51.7963 295.291 63.4199 310.2C69.1078 317.494 74.0465 326.569 77.8628 335.644V389.212Z" fill="#FFB681"/>
<path d="M87.6167 387.467C87.19 387.428 86.8252 387.109 86.745 386.67C78.335 340.89 41.832 303.321 19.817 294.853C19.3128 294.658 19.0607 294.092 19.2551 293.59C19.4466 293.088 20.0014 292.825 20.5183 293.028C42.9529 301.656 80.1305 339.842 88.6672 386.317C88.7658 386.848 88.4137 387.356 87.8842 387.454L87.6167 387.467Z" fill="white"/>
<path d="M80.1048 416.584C78.046 409.037 69.0079 396.515 54.2735 386.083C37.9731 374.544 17.2354 369.08 12.5459 360.195C6.91298 349.521 15.9722 339.61 32.8302 341.907C49.6897 344.203 79.098 367.597 83.4269 402.336L80.1048 416.584Z" fill="#FFC092"/>
<path d="M83.6502 408.481C83.2798 408.446 82.9461 408.201 82.8165 407.825C69.2805 368.528 39.592 354.436 25.787 352.474C25.2519 352.399 24.8801 351.904 24.9562 351.368C25.0308 350.832 25.5054 350.46 26.0602 350.538C41.3269 352.706 70.8493 367.077 84.6655 407.188C84.8416 407.698 84.5684 408.256 84.06 408.43C83.9234 408.478 83.7854 408.494 83.6502 408.481Z" fill="white"/>
<path d="M586.054 330.947C586.054 330.947 587.931 302.737 604.554 281.796C621.178 260.857 620.156 252.233 608.694 248.007C597.232 243.779 570.608 269.016 576.533 302.811C582.457 336.608 586.054 330.947 586.054 330.947Z" fill="#FFC092"/>
<path d="M585.393 331.303C584.102 331.303 580.97 328.126 576.533 302.812C575.954 299.509 575.685 296.29 575.684 293.171C575.668 266.717 594.8 247.544 605.934 247.544C606.923 247.544 607.851 247.696 608.694 248.007C614.1 250 617.184 252.973 617.189 257.754C617.194 263.109 613.337 270.733 604.554 281.797C587.931 302.737 586.054 330.947 586.054 330.947C586.054 330.947 585.827 331.303 585.393 331.303Z" fill="#FFB681"/>
<path d="M580.937 314.756C580.592 314.756 580.305 314.488 580.282 314.142C578.342 283.078 600.28 257.588 608.492 251.82C608.785 251.613 609.196 251.684 609.403 251.981C609.613 252.277 609.541 252.684 609.244 252.893C601.193 258.549 579.684 283.552 581.59 314.06C581.614 314.419 581.338 314.731 580.978 314.755L580.937 314.756Z" fill="white"/>
<path d="M581.325 354.266C581.325 354.266 591.343 357.737 604.216 359.776C617.089 361.814 622.77 355.657 622.77 355.657C622.77 355.657 617.701 343.584 610.39 340.196C610.39 340.196 622.785 342.722 632.733 349.361C632.733 349.361 640.594 349.481 643.721 337.482C643.721 337.482 639.064 330.262 623.439 326.363C623.439 326.363 632.946 323.97 646.646 327.464C647.673 327.872 652.051 312.361 653.376 305.204C654.7 298.049 651.824 298.123 646.245 296.633C640.666 295.145 622.188 290.993 618.696 294.062C615.202 297.131 613.429 307.623 613.429 307.623C613.429 307.623 611.128 301.433 612.905 294.325C612.905 294.325 607.883 292.362 600.093 294.63C593.721 296.483 593.409 300.82 593.698 305.721C593.908 309.303 594.772 313.121 596.457 318.164C596.457 318.164 591.488 311.796 591.335 297.992C591.335 297.992 578.293 304.47 576.065 317.415C574.863 324.411 573.156 344.967 581.325 354.266Z" fill="#FFC092"/>
<path d="M584.084 351.83C584.352 351.83 584.611 351.677 584.736 351.42C595.123 329.837 633.744 304.759 647.579 302.069C647.97 301.992 648.228 301.612 648.152 301.22C648.075 300.826 647.691 300.575 647.301 300.647C633.24 303.382 593.984 328.864 583.432 350.792C583.257 351.152 583.408 351.584 583.769 351.756L584.084 351.83Z" fill="white"/>
<path d="M81.2285 426.441C79.6301 426.441 78.6768 425.121 78.6768 422.912V186.033L368.767 18.5498L368.769 254.475C368.769 258.096 366.217 262.513 363.081 264.324L83.5394 425.718C82.7212 426.192 81.9213 426.441 81.2285 426.441Z" fill="#F9F9F9"/>
<path d="M369.775 17.2705L78.0371 185.704V423.059C78.0371 425.816 79.4116 427.412 81.4113 427.412C82.2323 427.412 83.1561 427.143 84.1348 426.58L363.679 265.184C367.046 263.239 369.777 258.51 369.777 254.622L369.775 17.2705ZM368.128 20.1236V254.622C368.128 257.923 365.712 262.107 362.855 263.758L83.311 425.152C82.6181 425.553 81.9605 425.764 81.4113 425.764C79.8523 425.764 79.6847 423.872 79.6847 423.059V186.656L368.128 20.1236Z" fill="#D7D9D8"/>
<path d="M78.0371 185.704V225.338L369.772 56.9068L369.775 17.2705L78.0371 185.704Z" fill="#FFC092"/>
<path d="M101.064 187.679L101.066 193.363C101.066 194.525 101.89 194.999 102.895 194.419L192.59 142.634V132.727L102.894 184.511C101.888 185.092 101.064 186.518 101.064 187.679Z" fill="#F9F9F9"/>
<path d="M202.147 127.221C203.157 126.636 203.976 127.109 203.976 128.277V133.959C203.976 135.127 203.157 136.545 202.147 137.128L192.534 142.678V132.771L202.147 127.221Z" fill="#405761"/>
<path d="M78.0371 172.786C78.0371 168.898 80.7677 164.169 84.1348 162.224L363.676 0.833149C367.042 -1.11163 369.775 0.464191 369.775 4.35375V17.1279L78.0371 185.562V172.786Z" fill="#405761"/>
<path d="M337.396 22.7778C335.818 23.6903 334.536 25.9083 334.536 27.732C334.536 29.557 335.818 30.2964 337.396 29.3852C338.976 28.4727 340.258 26.2547 340.258 24.4296C340.258 22.606 338.976 21.8666 337.396 22.7778Z" fill="#FFC092"/>
<path d="M346.351 17.3407C344.771 18.2533 343.491 20.4712 343.491 22.2963C343.491 24.12 344.771 24.8593 346.351 23.9482C347.93 23.0356 349.211 20.8177 349.211 18.994C349.211 17.1689 347.93 16.4296 346.351 17.3407Z" fill="#FFC092"/>
<path d="M355.306 12.2236C353.726 13.1361 352.446 15.3541 352.446 17.1792C352.446 19.0028 353.726 19.7422 355.306 18.8296C356.886 17.9185 358.167 15.7005 358.167 13.8754C358.167 12.0518 356.886 11.3124 355.306 12.2236Z" fill="#FFC092"/>
<path d="M275.311 98.0208C273.26 98.0208 271.851 96.3844 271.851 93.5567C271.851 89.5686 274.65 84.72 278.103 82.7259C279.106 82.1472 280.055 81.8726 280.896 81.8726C282.946 81.8726 284.356 83.5075 284.356 86.3367C284.356 90.3248 281.556 95.1734 278.103 97.1674C277.099 97.7462 276.151 98.0208 275.311 98.0208Z" fill="#FFB681"/>
<path d="M247.165 114.334C245.114 114.334 243.706 112.699 243.706 109.87C243.706 105.882 246.504 101.033 249.957 99.0394C250.961 98.4606 251.909 98.186 252.75 98.186C254.8 98.186 256.21 99.8224 256.21 102.65C256.21 106.638 253.41 111.487 249.957 113.481C248.953 114.06 248.005 114.334 247.165 114.334Z" fill="#FFB681"/>
<path d="M304.095 81.3924C302.044 81.3924 300.635 79.7561 300.635 76.9269C300.635 72.9402 303.434 68.0902 306.887 66.0975C307.891 65.5187 308.839 65.2441 309.678 65.2441C311.73 65.2441 313.14 66.8791 313.14 69.7083C313.14 73.6964 310.34 78.545 306.887 80.539C305.885 81.1178 304.936 81.3924 304.095 81.3924Z" fill="#FFB681"/>
<path d="M332.879 64.7616C330.827 64.7616 329.419 63.1266 329.419 60.2974C329.419 56.3093 332.219 51.4607 335.672 49.4667C336.674 48.8879 337.623 48.6133 338.464 48.6133C340.514 48.6133 341.923 50.2482 341.923 53.0774C341.923 57.0655 339.125 61.9141 335.672 63.9082C334.667 64.487 333.72 64.7616 332.879 64.7616Z" fill="#FFB681"/>
<path d="M107.162 228.405L175.051 189.21C178.419 187.265 181.148 188.841 181.148 192.73V257.911C181.148 261.799 178.419 266.528 175.051 268.472L107.164 307.668C103.796 309.613 101.066 308.037 101.066 304.149L101.064 238.967C101.064 235.077 103.794 230.35 107.162 228.405Z" fill="#D7D9D8"/>
<path d="M204.389 172.195L346.636 90.0641C350.004 88.1193 352.734 89.6951 352.734 93.5847V158.765C352.734 162.653 350.005 167.382 346.636 169.327L204.39 251.458C201.022 253.403 198.292 251.827 198.292 247.938L198.291 182.757C198.291 178.868 201.02 174.139 204.389 172.195Z" fill="#D7D9D8"/>
<path d="M107.162 327.369L215.092 265.056C218.461 263.111 221.192 264.493 221.192 268.14C221.192 271.788 218.462 276.321 215.095 278.265L107.162 340.58C103.795 342.523 101.064 341.143 101.064 337.496C101.064 333.847 103.795 329.314 107.162 327.369Z" fill="#D7D9D8"/>
<path d="M107.162 350.397L215.092 288.083C218.461 286.139 221.192 287.52 221.192 291.168C221.192 294.815 218.462 299.349 215.095 301.294L107.162 363.609C103.795 365.552 101.064 364.171 101.064 360.525C101.064 356.875 103.795 352.341 107.162 350.397Z" fill="#D7D9D8"/>
<path d="M107.162 373.745L215.092 311.431C218.461 309.486 221.192 310.867 221.192 314.516C221.192 318.163 218.462 322.697 215.095 324.641L107.162 386.956C103.795 388.899 101.064 387.518 101.064 383.87C101.064 380.223 103.795 375.69 107.162 373.745Z" fill="#D7D9D8"/>
<path d="M157.993 295.336C157.993 293.002 159.631 290.165 161.652 288.999L348.822 180.936C350.842 179.77 354.117 179.769 356.139 180.936L360.263 183.316C362.284 184.483 363.92 187.32 363.92 189.653V333.123C363.92 335.447 362.274 338.298 360.264 339.46L173.094 447.523C171.08 448.685 167.787 448.685 165.775 447.523L161.652 445.142C159.639 443.98 157.993 441.128 157.993 438.805V295.336Z" fill="#FFC092"/>
<path d="M159.274 291.734L159.272 291.733C159.754 290.895 160.375 290.133 161.075 289.553C160.379 290.13 159.76 290.894 159.274 291.734ZM361.382 183.973C361.093 183.72 360.786 183.499 360.475 183.317L359.034 182.486L360.48 183.314C360.79 183.497 361.094 183.72 361.382 183.973ZM350.985 180.229C351.537 180.116 352.114 180.061 352.691 180.061C353.163 180.061 353.636 180.098 354.094 180.172C353.636 180.099 353.165 180.061 352.693 180.061C352.115 180.061 351.537 180.117 350.985 180.229Z" fill="#FBFCFC"/>
<path d="M169.655 297.721L159.272 291.734C159.758 290.894 160.378 290.13 161.074 289.553C161.328 289.342 161.595 289.155 161.866 288.998L349.038 180.943C349.603 180.612 350.272 180.372 350.983 180.229C351.535 180.117 352.114 180.061 352.691 180.061C353.163 180.061 353.635 180.099 354.093 180.172C354.918 180.307 355.697 180.564 356.342 180.943L359.033 182.486L360.473 183.317C360.785 183.499 361.092 183.72 361.38 183.973C362.027 184.538 362.604 185.26 363.059 186.049L169.655 297.721Z" fill="#FFB26B"/>
<path d="M160.042 443.715C158.828 442.33 157.993 440.409 157.993 438.744V383.793L157.999 383.789V438.748C157.999 440.405 158.834 442.327 160.042 443.715Z" fill="#C9CBCB"/>
<path d="M157.993 344.162V334.256L157.999 334.254V344.158L157.993 344.162ZM157.993 321.046V311.142L157.999 311.139V321.043L157.993 321.046ZM157.993 297.931V295.279C157.993 294.12 158.409 292.822 159.066 291.68L159.068 291.681C158.407 292.826 157.999 294.117 157.999 295.283V297.928L157.993 297.931Z" fill="#D8DAD9"/>
<path d="M169.414 448.335C169.034 448.335 168.656 448.313 168.286 448.265C167.749 448.196 167.247 448.075 166.781 447.92C166.416 447.799 166.088 447.642 165.776 447.469L161.656 445.081C161.074 444.748 160.525 444.277 160.037 443.717C158.828 442.329 157.993 440.407 157.993 438.751V295.282C157.993 294.116 158.402 292.825 159.062 291.68L169.445 297.666L171.349 298.774C170.207 299.242 169.445 300.384 169.445 301.889V445.357C169.445 446.569 169.877 447.4 170.57 447.763C170.829 447.893 171.119 447.963 171.436 447.963C171.711 447.963 172.005 447.91 172.318 447.799C172.18 447.868 172.042 447.92 171.885 447.97C171.66 448.041 171.418 448.11 171.176 448.162C170.605 448.277 170.008 448.335 169.414 448.335Z" fill="#FFB681"/>
<path d="M363.33 186.273C363.326 186.267 363.325 186.26 363.32 186.254L363.815 185.498L363.33 186.273Z" fill="#BEC0C1"/>
<path d="M170.632 447.549C169.939 447.186 169.507 446.355 169.507 445.143V442.756L243.704 330.202L169.507 297.452L256.187 329.836C257.799 330.437 259.464 330.725 261.107 330.725C265.761 330.725 270.245 328.412 272.905 324.333L286.826 303.008L363.107 186.138C363.112 186.143 363.113 186.15 363.117 186.156L289.6 303.809L363.981 332.917C363.964 334.094 363.533 335.41 362.84 336.569L289.393 304.14L273.218 330.026C270.566 334.256 265.991 336.65 261.262 336.65C259.354 336.65 257.422 336.26 255.581 335.444L244.063 330.361L170.632 447.549Z" fill="#FF9D43"/>
<path d="M324.302 132.967V462.358C324.302 466.246 327.032 467.823 330.401 465.879L478.376 380.446C481.742 378.502 484.474 373.773 484.474 369.885V40.493C484.474 36.6049 481.742 35.029 478.376 36.9724L330.401 122.405C327.032 124.349 324.302 129.078 324.302 132.967Z" fill="#F9F9F9"/>
<path d="M324.67 132.831H323.022V462.222C323.024 463.735 323.397 465.014 324.141 465.947C324.877 466.884 326.002 467.408 327.222 467.399C328.222 467.398 329.282 467.077 330.357 466.456L478.332 381.023C480.181 379.952 481.779 378.184 482.945 376.171C484.107 374.154 484.838 371.885 484.842 369.749V40.3575C484.842 38.845 484.467 37.5663 483.724 36.6327C482.987 35.6962 481.862 35.1723 480.643 35.1808C479.643 35.1808 478.582 35.5033 477.508 36.1229L329.533 121.555C327.684 122.627 326.085 124.396 324.919 126.409C323.758 128.426 323.027 130.695 323.022 132.831H324.67C324.666 131.079 325.3 129.039 326.346 127.233C327.387 125.425 328.837 123.855 330.357 122.982L478.332 37.5494C479.215 37.0396 480.005 36.827 480.643 36.8284C481.426 36.8369 481.987 37.1101 482.437 37.6607C482.882 38.2141 483.194 39.1112 483.194 40.3575V369.749C483.199 371.501 482.563 373.541 481.518 375.347C480.478 377.155 479.027 378.724 477.508 379.597L329.533 465.029C328.65 465.539 327.86 465.753 327.222 465.752C326.439 465.743 325.877 465.47 325.428 464.919C324.983 464.366 324.67 463.469 324.67 462.222V132.831Z" fill="#D7D9D8"/>
<path d="M332.617 139.183C332.617 138.27 333.326 137.121 334.201 136.617L351.058 126.887C351.934 126.382 352.644 126.711 352.644 127.624C352.642 128.537 351.933 129.686 351.057 130.191L334.201 139.919C333.326 140.425 332.617 140.095 332.617 139.183Z" fill="#405761"/>
<path d="M332.617 145.578C332.617 144.665 333.326 143.516 334.201 143.011L351.058 133.284C351.934 132.778 352.644 133.108 352.644 134.019C352.642 134.93 351.933 136.079 351.057 136.585L334.201 146.314C333.326 146.819 332.617 146.49 332.617 145.578Z" fill="#405761"/>
<path d="M332.617 152.295C332.617 151.383 333.326 150.234 334.201 149.728L351.058 140C351.934 139.494 352.644 139.825 352.644 140.736C352.642 141.648 351.933 142.797 351.057 143.302L334.201 153.032C333.326 153.537 332.617 153.208 332.617 152.295Z" fill="#405761"/>
<path d="M463.699 75.9432C461.572 77.1712 459.848 76.1755 459.848 73.7224C459.848 71.2678 461.572 68.2824 463.699 67.0558C465.824 65.8292 467.546 66.8234 467.546 69.278C467.546 71.7325 465.824 74.7166 463.699 75.9432ZM472.606 67.6726V65.042C472.606 64.8843 472.49 64.8096 472.346 64.8744L470.319 65.7884C470.175 65.8531 470.029 65.7813 469.982 65.632C469.864 65.2589 469.71 64.9237 469.529 64.6266C469.447 64.4928 469.429 64.2759 469.499 64.1351L470.85 61.4101C470.92 61.2693 470.866 61.0919 470.73 61.013L469.264 60.1667C469.127 60.0878 468.946 60.1301 468.86 60.261L467.174 62.7944C467.088 62.9254 466.891 63.0169 466.735 63.0127C466.385 63.0043 466.019 63.0395 465.638 63.124C465.484 63.1578 465.35 63.0662 465.333 62.9099L465.112 60.6976C465.096 60.5413 464.973 60.4779 464.836 60.5567L462.558 61.872C462.423 61.9495 462.302 62.1396 462.287 62.2959L462.059 64.8322C462.045 64.9871 461.938 65.1983 461.823 65.3053C461.378 65.7137 460.955 66.163 460.557 66.6446C460.457 66.7657 460.257 66.8234 460.109 66.7713L458.647 66.2601C458.498 66.208 458.313 66.277 458.236 66.4122L456.562 69.3132C456.483 69.4498 456.515 69.6427 456.635 69.7455L457.808 70.7566C457.928 70.858 457.977 71.0594 457.922 71.2073C457.705 71.7931 457.526 72.3846 457.395 72.9732C457.361 73.1267 457.232 73.3239 457.104 73.414L455.022 74.88C454.894 74.9701 454.79 75.1701 454.79 75.3278V77.957C454.79 78.1147 454.907 78.1893 455.049 78.126L457.077 77.212C457.219 77.1472 457.367 77.2176 457.415 77.3669C457.532 77.7401 457.684 78.0753 457.866 78.3724C457.949 78.5076 457.966 78.7231 457.898 78.8639L456.546 81.5902C456.476 81.7296 456.529 81.9085 456.666 81.9859L458.133 82.8323C458.268 82.9112 458.449 82.8689 458.536 82.7379L460.22 80.2059C460.308 80.075 460.503 79.982 460.661 79.9862C461.01 79.9961 461.375 79.9595 461.758 79.875C461.91 79.8412 462.047 79.9327 462.062 80.089L462.285 82.3028C462.3 82.4591 462.423 82.5225 462.558 82.4436L464.836 81.1283C464.973 81.0495 465.094 80.8594 465.108 80.703L465.336 78.1682C465.352 78.0119 465.459 77.8007 465.574 77.695C466.016 77.2866 466.44 76.8374 466.839 76.3558C466.939 76.2347 467.137 76.177 467.287 76.2276L468.748 76.7388C468.896 76.7909 469.081 76.7219 469.16 76.5867L470.834 73.6858C470.913 73.5506 470.879 73.3562 470.761 73.2549L469.586 72.2437C469.468 72.1409 469.419 71.9381 469.472 71.7917C469.692 71.2059 469.869 70.6144 470 70.0272C470.036 69.8737 470.164 69.6751 470.292 69.585L472.373 68.1204C472.501 68.0303 472.606 67.8289 472.606 67.6726Z" fill="#30444C"/>
<path d="M404.223 132.525C421.512 122.542 435.528 130.636 435.528 150.599C435.528 170.565 421.512 194.84 404.223 204.825C386.931 214.806 372.915 206.714 372.915 186.748C372.915 166.785 386.931 142.507 404.223 132.525Z" fill="#405761"/>
<path d="M404.181 148.187C409.789 144.948 414.336 147.574 414.336 154.05C414.336 160.527 409.789 168.403 404.181 171.642C398.571 174.88 394.023 172.255 394.023 165.778C394.023 159.3 398.571 151.424 404.181 148.187Z" fill="#FFC092"/>
<path d="M424.201 182.7C424.201 172.057 416.73 167.744 407.516 173.066L401.755 176.392C392.541 181.711 385.068 194.651 385.068 205.292V208.194C386.731 208.748 388.537 209.021 390.448 209.025C394.65 209.034 399.382 207.649 404.406 204.75C411.918 200.412 418.807 193.374 424.201 185.167V182.7Z" fill="#FFC092"/>
<path d="M375.964 234.558L432.479 201.931C434.164 200.957 435.528 201.647 435.528 203.473C435.528 205.296 434.164 207.563 432.479 208.535L375.964 241.164C374.281 242.136 372.915 241.446 372.915 239.622C372.915 237.797 374.281 235.531 375.964 234.558Z" fill="#FFC092"/>
<path d="M370.208 257.916L438.853 218.241C440.536 217.268 441.902 217.96 441.902 219.783C441.902 221.607 440.536 223.874 438.853 224.846L370.208 264.52C368.524 265.493 367.158 264.802 367.158 262.978C367.158 261.155 368.524 258.887 370.208 257.916Z" fill="#405761"/>
<path d="M440.63 250.317L459.849 239.218C460.86 238.635 461.679 238.901 461.679 239.813C461.679 240.726 460.86 241.938 459.849 242.521L440.63 253.62C439.618 254.203 438.799 253.937 438.799 253.024C438.799 252.113 439.618 250.9 440.63 250.317Z" fill="#30444C"/>
<path d="M344.621 299.116L372.845 282.822C374.529 281.849 375.894 282.637 375.894 284.582V303.961C375.894 305.906 374.531 308.27 372.845 309.242L344.621 325.538C342.938 326.51 341.572 325.721 341.572 323.778V304.397C341.572 302.453 342.938 300.088 344.621 299.116Z" fill="#FFC092"/>
<path d="M349.156 301.808L368.379 290.709C369.39 290.126 370.208 290.393 370.208 291.305C370.208 292.218 369.39 293.43 368.379 294.013L349.156 305.111C348.148 305.694 347.328 305.428 347.328 304.516C347.328 303.605 348.148 302.392 349.156 301.808Z" fill="#F9F9F9"/>
<path d="M347.328 311.634V317.316C347.328 318.482 348.148 318.956 349.156 318.372L368.379 307.274C369.39 306.691 370.208 305.273 370.208 304.106L370.209 298.423C370.209 297.256 369.39 296.783 368.379 297.367L349.156 308.466C348.148 309.049 347.328 310.468 347.328 311.634Z" fill="#F9F9F9"/>
<path d="M390.036 272.57L418.26 256.276C419.944 255.304 421.309 256.091 421.309 258.036V277.416C421.309 279.359 419.944 281.724 418.26 282.697L390.036 298.992C388.352 299.963 386.987 299.176 386.987 297.231V277.851C386.987 275.908 388.352 273.543 390.036 272.57Z" fill="#FFC092"/>
<path d="M394.573 275.262L413.795 264.164C414.804 263.581 415.624 263.847 415.624 264.758C415.624 265.671 414.804 266.883 413.795 267.468L394.573 278.565C393.562 279.149 392.744 278.882 392.744 277.97C392.744 277.058 393.562 275.847 394.573 275.262Z" fill="#F9F9F9"/>
<path d="M392.744 285.089V290.771C392.744 291.937 393.562 292.411 394.573 291.828L413.795 280.729C414.804 280.146 415.624 278.727 415.624 277.561V271.877C415.625 270.711 414.806 270.238 413.795 270.821L394.573 281.919C393.562 282.504 392.744 283.922 392.744 285.089Z" fill="#F9F9F9"/>
<path d="M436.091 246.345L464.315 230.051C465.999 229.078 467.364 229.866 467.364 231.811V251.19C467.364 253.135 466 255.499 464.315 256.471L436.091 272.767C434.408 273.738 433.042 272.951 433.042 271.007V251.626C433.042 249.682 434.408 247.317 436.091 246.345Z" fill="#FFC092"/>
<path d="M440.628 249.038L459.849 237.938C460.86 237.355 461.679 237.622 461.679 238.534C461.679 239.447 460.86 240.659 459.849 241.242L440.628 252.34C439.618 252.923 438.799 252.657 438.799 251.746C438.799 250.834 439.618 249.621 440.628 249.038Z" fill="#F9F9F9"/>
<path d="M438.799 258.862V264.545C438.799 265.712 439.618 266.185 440.628 265.601L459.849 254.504C460.86 253.92 461.679 252.501 461.679 251.335L461.68 245.652C461.68 244.484 460.86 244.013 459.851 244.596L440.628 255.694C439.618 256.277 438.799 257.696 438.799 258.862Z" fill="#F9F9F9"/>
<path d="M347.67 343.466L461.321 277.849C464.689 275.904 467.42 277.286 467.42 280.935C467.42 284.582 464.689 289.115 461.321 291.06L347.67 356.677C344.303 358.62 341.572 357.24 341.572 353.591C341.572 349.942 344.303 345.409 347.67 343.466Z" fill="#D7D9D8"/>
<path d="M347.67 370.011L461.321 304.395C464.689 302.45 467.42 303.831 467.42 307.479C467.42 311.127 464.689 315.66 461.321 317.605L347.67 383.221C344.303 385.166 341.572 383.784 341.572 380.137C341.572 376.489 344.303 371.955 347.67 370.011Z" fill="#D7D9D8"/>
<path d="M384.279 381.519L423.942 358.62C425.627 357.647 426.991 358.436 426.991 360.38L426.993 373.154C426.993 375.099 425.627 377.462 423.944 378.435L384.279 401.336C382.595 402.308 381.23 401.519 381.23 399.576V386.8C381.23 384.855 382.595 382.492 384.279 381.519Z" fill="#FFC092"/>
<path d="M350.188 345.481C348.61 346.392 347.328 348.61 347.328 350.435C347.328 352.259 348.61 352.998 350.188 352.087C351.768 351.175 353.048 348.957 353.048 347.133C353.048 345.308 351.768 344.569 350.188 345.481Z" fill="#F9F9F9"/>
<path d="M359.146 340.364C357.564 341.275 356.284 343.493 356.284 345.318C356.284 347.142 357.564 347.881 359.146 346.97C360.724 346.058 362.004 343.84 362.004 342.015C362.004 340.191 360.724 339.452 359.146 340.364Z" fill="#F9F9F9"/>
<path d="M368.099 334.926C366.519 335.839 365.239 338.057 365.239 339.88C365.239 341.705 366.519 342.445 368.099 341.534C369.678 340.621 370.958 338.403 370.958 336.578C370.958 334.754 369.678 334.015 368.099 334.926Z" fill="#F9F9F9"/>
<path d="M377.056 329.809C375.477 330.722 374.194 332.939 374.194 334.765C374.194 336.588 375.477 337.328 377.056 336.416C378.636 335.504 379.916 333.286 379.916 331.462C379.916 329.637 378.636 328.898 377.056 329.809Z" fill="#F9F9F9"/>
<path d="M386.01 324.692C384.43 325.605 383.149 327.823 383.149 329.648C383.149 331.472 384.43 332.211 386.01 331.299C387.588 330.387 388.871 328.169 388.871 326.344C388.871 324.521 387.588 323.78 386.01 324.692Z" fill="#F9F9F9"/>
<path d="M394.965 319.255C393.385 320.168 392.104 322.386 392.104 324.21C392.104 326.035 393.385 326.774 394.965 325.862C396.543 324.95 397.823 322.731 397.823 320.907C397.823 319.084 396.543 318.343 394.965 319.255Z" fill="#F9F9F9"/>
<path d="M403.919 314.139C402.341 315.05 401.061 317.269 401.061 319.093C401.061 320.916 402.341 321.656 403.919 320.745C405.499 319.832 406.781 317.614 406.781 315.79C406.781 313.965 405.499 313.226 403.919 314.139Z" fill="#F9F9F9"/>
<path d="M350.188 372.027C348.61 372.939 347.328 375.157 347.328 376.981C347.328 378.806 348.61 379.545 350.188 378.633C351.768 377.72 353.048 375.502 353.048 373.679C353.048 371.853 351.768 371.114 350.188 372.027Z" fill="#F9F9F9"/>
<path d="M359.146 366.591C357.564 367.502 356.284 369.718 356.284 371.543C356.284 373.367 357.564 374.108 359.146 373.195C360.724 372.283 362.004 370.065 362.004 368.242C362.004 366.416 360.724 365.677 359.146 366.591Z" fill="#F9F9F9"/>
<path d="M368.099 361.473C366.519 362.385 365.239 364.601 365.239 366.428C365.239 368.25 366.519 368.989 368.099 368.078C369.678 367.167 370.958 364.948 370.958 363.122C370.958 361.299 369.678 360.559 368.099 361.473Z" fill="#F9F9F9"/>
<path d="M377.056 356.354C375.477 357.267 374.194 359.485 374.194 361.309C374.194 363.134 375.477 363.873 377.056 362.962C378.636 362.049 379.916 359.831 379.916 358.006C379.916 356.183 378.636 355.443 377.056 356.354Z" fill="#F9F9F9"/>
<path d="M386.01 350.917C384.43 351.83 383.149 354.048 383.149 355.873C383.149 357.697 384.43 358.436 386.01 357.525C387.588 356.612 388.871 354.394 388.871 352.571C388.871 350.746 387.588 350.006 386.01 350.917Z" fill="#F9F9F9"/>
<path d="M394.965 345.8C393.385 346.713 392.104 348.931 392.104 350.756C392.104 352.58 393.385 353.319 394.965 352.406C396.543 351.495 397.823 349.277 397.823 347.452C397.823 345.628 396.543 344.889 394.965 345.8Z" fill="#F9F9F9"/>
<path d="M403.919 340.684C402.341 341.596 401.061 343.814 401.061 345.638C401.061 347.463 402.341 348.202 403.919 347.29C405.499 346.379 406.781 344.161 406.781 342.336C406.781 340.512 405.499 339.771 403.919 340.684Z" fill="#F9F9F9"/>
<path d="M560.416 305.268C556.863 305.268 553.11 307.052 550.802 308.384C534.72 317.67 521.131 342.611 521.131 362.849C521.131 371.039 523.429 377.257 527.276 379.479C531.657 382.007 537.742 379.247 540.98 377.379C557.063 368.093 570.65 343.152 570.65 322.916C570.65 314.724 568.353 308.507 564.506 306.284C563.247 305.559 561.847 305.268 560.416 305.268ZM531.319 400.16C526.381 400.16 521.695 398.942 517.452 396.493C507.305 390.634 501.484 378.371 501.484 362.849C501.484 335.555 518.832 304.155 540.98 291.37C552.905 284.486 564.747 283.738 574.328 289.27C584.479 295.13 590.298 307.393 590.298 322.916C590.298 350.21 572.95 381.608 550.802 394.394C544.158 398.23 537.538 400.16 531.319 400.16Z" fill="#405761"/>
<path d="M573.959 327.073C573.959 311.741 564.3 306.072 564.3 306.072C568.147 308.294 570.444 314.511 570.444 322.703C570.444 342.94 556.857 367.881 540.774 377.167C537.536 379.034 531.451 381.794 527.07 379.267C527.07 379.267 535.221 384.325 546.483 378.182C562.787 369.288 573.959 347.309 573.959 327.073Z" fill="#30444C"/>
<path d="M558.898 135.529C558.898 129.918 554.351 125.371 548.74 125.371C543.131 125.371 538.584 129.918 538.584 135.529V297.092C538.584 298.593 539.575 300.094 541.558 301.238C545.524 303.529 551.957 303.529 555.924 301.238C557.906 300.094 558.898 298.593 558.898 297.092V135.555H558.896L558.898 135.529Z" fill="#30444C"/>
<path d="M550.717 171.509C550.717 167.767 548.089 163.218 544.852 161.348C543.204 160.396 541.72 160.33 540.654 160.978L540.648 160.969L515.584 175.409L514.979 175.77L514.733 175.915C514.3 176.204 513.896 176.536 513.534 176.896C512.017 178.399 511.079 180.492 511.079 182.789C511.079 185.937 512.827 188.681 515.398 190.096C516.581 190.731 517.923 191.091 519.368 191.091C520.799 191.091 522.155 190.731 523.324 190.096C523.484 190.009 523.642 189.907 523.801 189.821L549.024 175.294L549.021 175.288C550.068 174.67 550.717 173.365 550.717 171.509Z" fill="#405761"/>
<path d="M550.55 212.127C550.55 208.385 547.922 203.837 544.685 201.965C543.037 201.014 541.553 200.947 540.487 201.596L540.481 201.588L511.106 218.457L510.5 218.817L510.253 218.963C509.821 219.251 509.417 219.584 509.056 219.944C507.539 221.447 506.602 223.541 506.602 225.836C506.602 228.984 508.348 231.727 510.918 233.143C512.102 233.779 513.446 234.139 514.889 234.139C516.32 234.139 517.677 233.779 518.846 233.143C519.005 233.056 519.164 232.956 519.324 232.869L548.857 215.912L548.854 215.905C549.901 215.287 550.55 213.982 550.55 212.127Z" fill="#405761"/>
</svg>
