<?xml version="1.0" encoding="UTF-8" standalone="no"?>
<!DOCTYPE svg PUBLIC "-//W3C//DTD SVG 1.1//EN" "http://www.w3.org/Graphics/SVG/1.1/DTD/svg11.dtd">
<svg width="100%" height="100%" viewBox="0 0 1938 1680" version="1.1" xmlns="http://www.w3.org/2000/svg" xmlns:xlink="http://www.w3.org/1999/xlink" xml:space="preserve" xmlns:serif="http://www.serif.com/" style="fill-rule:evenodd;clip-rule:evenodd;stroke-linejoin:round;stroke-miterlimit:2;">
    <g transform="matrix(4.16667,0,0,4.16667,0,0)">
        <g transform="matrix(1,0,0,1,-0.563649,0.563628)">
            <path d="M66.568,368.965C155.326,414.344 299.231,414.345 387.987,368.966C476.745,323.586 476.745,250.012 387.987,204.633C299.23,159.253 155.325,159.253 66.567,204.632C-22.189,250.011 -22.189,323.586 66.568,368.965Z" style="fill:rgb(240,240,240);fill-rule:nonzero;"/>
        </g>
        <g transform="matrix(1,0,0,1,-0.563649,0.563628)">
            <path d="M356.845,296.469C361.71,299.277 371.269,298.311 378.198,294.31L418.133,271.117C425.062,267.116 426.727,261.592 421.852,258.778C416.977,255.964 407.411,256.928 400.484,260.931L360.58,284.135C353.653,288.139 351.981,293.661 356.845,296.469Z" style="fill:rgb(228,228,228);fill-rule:nonzero;"/>
        </g>
        <g transform="matrix(1,0,0,1,-0.563649,0.563628)">
            <path d="M116.425,317.858L75.804,294.405L116.425,270.953L116.425,317.858Z" style="fill:rgb(228,228,228);fill-rule:nonzero;"/>
        </g>
        <g transform="matrix(1,0,0,1,-0.563649,0.563628)">
            <path d="M231.233,331.889L165.763,294.065L231.249,256.315L231.233,331.889Z" style="fill:rgb(228,228,228);fill-rule:nonzero;"/>
        </g>
        <g transform="matrix(1,0,0,1,-0.563649,0.563628)">
            <path d="M61.475,263.024C61.589,253.523 54.953,233.76 45.242,221.305C35.531,208.85 20.139,199.643 9.082,203.278C-1.214,206.662 -0.266,220.13 12.069,229.195C24.405,238.26 42.974,249.685 48.26,265.162L59.514,284.21L61.475,263.024Z" style="fill:rgb(84,193,177);fill-rule:nonzero;"/>
        </g>
        <g transform="matrix(1,0,0,1,-0.563649,0.563628)">
            <path d="M55.498,277.412L48.26,265.162C42.974,249.685 24.405,238.26 12.069,229.195C5.359,224.264 2.018,218.031 2.024,212.826C2.029,208.462 4.386,204.821 9.082,203.278C10.74,202.733 12.494,202.476 14.313,202.476C24.626,202.476 36.988,210.718 45.242,221.305C49.281,226.485 52.788,232.929 55.498,239.373L55.498,277.412Z" style="fill:rgb(64,189,167);fill-rule:nonzero;"/>
        </g>
        <g transform="matrix(1,0,0,1,-0.563649,0.563628)">
            <path d="M62.02,276.033C61.717,276.005 61.458,275.779 61.401,275.467C55.429,242.958 29.508,216.28 13.875,210.267C13.517,210.129 13.338,209.727 13.476,209.37C13.612,209.014 14.006,208.827 14.373,208.971C30.304,215.098 56.704,242.214 62.766,275.216C62.836,275.593 62.586,275.954 62.21,276.024L62.02,276.033Z" style="fill:white;fill-rule:nonzero;"/>
        </g>
        <g transform="matrix(1,0,0,1,-0.563649,0.563628)">
            <path d="M56.933,296.736C55.471,291.377 49.053,282.485 38.59,275.077C27.015,266.883 12.289,263.003 8.959,256.694C4.959,249.114 11.392,242.076 23.363,243.707C35.335,245.338 56.218,261.95 59.292,286.618L56.933,296.736Z" style="fill:rgb(84,193,177);fill-rule:nonzero;"/>
        </g>
        <g transform="matrix(1,0,0,1,-0.563649,0.563628)">
            <path d="M59.32,291.159C59.057,291.134 58.82,290.96 58.728,290.693C49.116,262.788 28.034,252.781 18.231,251.388C17.851,251.335 17.587,250.983 17.641,250.603C17.694,250.222 18.031,249.958 18.425,250.013C29.266,251.553 50.23,261.758 60.041,290.241C60.166,290.603 59.972,290.999 59.611,291.123C59.514,291.157 59.416,291.168 59.32,291.159Z" style="fill:white;fill-rule:nonzero;"/>
        </g>
        <g transform="matrix(1,0,0,1,-0.563649,0.563628)">
            <path d="M416.039,235.981C416.039,235.981 417.372,215.949 429.176,201.079C440.981,186.21 440.255,180.086 432.116,177.085C423.977,174.083 405.071,192.004 409.278,216.002C413.485,240.001 416.039,235.981 416.039,235.981Z" style="fill:rgb(84,193,177);fill-rule:nonzero;"/>
        </g>
        <g transform="matrix(1,0,0,1,-0.563649,0.563628)">
            <path d="M415.57,236.234C414.653,236.234 412.429,233.978 409.278,216.002C408.867,213.657 408.676,211.371 408.675,209.156C408.664,190.371 422.25,176.756 430.156,176.756C430.858,176.756 431.517,176.864 432.116,177.085C435.955,178.5 438.145,180.611 438.148,184.006C438.152,187.809 435.413,193.223 429.176,201.079C417.372,215.949 416.039,235.981 416.039,235.981C416.039,235.981 415.878,236.234 415.57,236.234Z" style="fill:rgb(64,189,167);fill-rule:nonzero;"/>
        </g>
        <g transform="matrix(1,0,0,1,-0.563649,0.563628)">
            <path d="M412.433,224.539C412.188,224.539 411.984,224.349 411.968,224.103C410.59,202.044 426.169,183.944 432,179.848C432.208,179.701 432.5,179.751 432.647,179.962C432.796,180.172 432.745,180.461 432.534,180.61C426.817,184.626 411.543,202.381 412.897,224.045C412.914,224.3 412.718,224.521 412.462,224.538L412.433,224.539Z" style="fill:white;fill-rule:nonzero;"/>
        </g>
        <g transform="matrix(1,0,0,1,-0.563649,0.563628)">
            <path d="M412.83,252.522C412.83,252.522 419.944,254.987 429.085,256.435C438.226,257.882 442.26,253.51 442.26,253.51C442.26,253.51 438.661,244.937 433.469,242.531C433.469,242.531 442.271,244.325 449.335,249.039C449.335,249.039 454.917,249.124 457.138,240.604C457.138,240.604 453.831,235.477 442.735,232.708C442.735,232.708 449.486,231.009 459.215,233.49C459.944,233.78 463.053,222.765 463.994,217.683C464.934,212.602 462.892,212.655 458.93,211.597C454.968,210.54 441.847,207.592 439.367,209.771C436.886,211.95 435.627,219.401 435.627,219.401C435.627,219.401 433.993,215.005 435.255,209.958C435.255,209.958 431.689,208.564 426.157,210.174C421.632,211.49 421.411,214.57 421.616,218.05C421.765,220.594 422.379,223.305 423.575,226.886C423.575,226.886 420.047,222.364 419.938,212.562C419.938,212.562 410.677,217.162 409.095,226.354C408.241,231.322 407.029,245.919 412.83,252.522Z" style="fill:rgb(84,193,177);fill-rule:nonzero;"/>
        </g>
        <g transform="matrix(1,0,0,1,-0.563649,0.563628)">
            <path d="M414.577,250.735C414.767,250.735 414.951,250.627 415.04,250.444C422.416,235.118 449.841,217.31 459.665,215.4C459.943,215.345 460.126,215.075 460.072,214.797C460.017,214.517 459.745,214.339 459.468,214.39C449.483,216.332 421.607,234.427 414.114,249.998C413.99,250.254 414.097,250.561 414.353,250.683L414.577,250.735Z" style="fill:white;fill-rule:nonzero;"/>
        </g>
        <g transform="matrix(1,0,0,1,-0.563649,0.563628)">
            <path d="M57.895,303.821C56.76,303.821 56.083,302.884 56.083,301.315L56.083,133.106L262.078,14.175L262.079,181.707C262.079,184.278 260.267,187.415 258.04,188.701L59.536,303.308C58.955,303.644 58.387,303.821 57.895,303.821Z" style="fill:rgb(249,249,249);fill-rule:nonzero;"/>
        </g>
        <g transform="matrix(1,0,0,1,-0.563649,0.563628)">
            <path d="M262.663,13.162L55.498,132.768L55.498,301.315C55.498,303.273 56.474,304.406 57.894,304.406C58.477,304.406 59.133,304.215 59.828,303.815L258.334,189.207C260.725,187.826 262.664,184.468 262.664,181.707L262.663,13.162ZM261.493,15.188L261.493,181.707C261.493,184.051 259.778,187.022 257.749,188.194L59.243,302.801C58.751,303.086 58.284,303.236 57.894,303.236C56.787,303.236 56.668,301.892 56.668,301.315L56.668,133.444L261.493,15.188Z" style="fill:rgb(215,217,216);fill-rule:nonzero;"/>
        </g>
        <g transform="matrix(1,0,0,1,-0.563649,0.563628)">
            <path d="M55.498,132.768L55.498,160.912L262.661,41.308L262.663,13.162L55.498,132.768Z" style="fill:rgb(84,193,177);fill-rule:nonzero;"/>
        </g>
        <g transform="matrix(1,0,0,1,-0.563649,0.563628)">
            <path d="M71.745,134.27L71.746,138.306C71.746,139.131 72.331,139.468 73.045,139.056L136.738,102.283L136.738,95.248L73.044,132.02C72.33,132.433 71.745,133.445 71.745,134.27Z" style="fill:rgb(249,249,249);fill-rule:nonzero;"/>
        </g>
        <g transform="matrix(1,0,0,1,-0.563649,0.563628)">
            <path d="M143.564,91.307C144.281,90.892 144.863,91.228 144.863,92.057L144.863,96.092C144.863,96.921 144.281,97.928 143.564,98.342L136.738,102.283L136.738,95.248L143.564,91.307Z" style="fill:rgb(64,87,97);fill-rule:nonzero;"/>
        </g>
        <g transform="matrix(1,0,0,1,-0.563649,0.563628)">
            <path d="M55.498,123.696C55.498,120.935 57.437,117.577 59.828,116.196L258.332,1.591C260.722,0.21 262.663,1.329 262.663,4.091L262.663,13.162L55.498,132.768L55.498,123.696Z" style="fill:rgb(64,87,97);fill-rule:nonzero;"/>
        </g>
        <g transform="matrix(1,0,0,1,-0.563649,0.563628)">
            <path d="M239.638,17.093C238.517,17.741 237.607,19.316 237.607,20.611C237.607,21.907 238.517,22.432 239.638,21.785C240.76,21.137 241.67,19.562 241.67,18.266C241.67,16.971 240.76,16.446 239.638,17.093Z" style="fill:rgb(84,193,177);fill-rule:nonzero;"/>
        </g>
        <g transform="matrix(1,0,0,1,-0.563649,0.563628)">
            <path d="M246.073,13.373C244.951,14.021 244.042,15.596 244.042,16.892C244.042,18.187 244.951,18.712 246.073,18.065C247.194,17.417 248.104,15.842 248.104,14.547C248.104,13.251 247.194,12.726 246.073,13.373Z" style="fill:rgb(84,193,177);fill-rule:nonzero;"/>
        </g>
        <g transform="matrix(1,0,0,1,-0.563649,0.563628)">
            <path d="M252.507,9.653C251.385,10.301 250.476,11.876 250.476,13.172C250.476,14.467 251.385,14.992 252.507,14.344C253.629,13.697 254.538,12.122 254.538,10.826C254.538,9.531 253.629,9.006 252.507,9.653Z" style="fill:rgb(84,193,177);fill-rule:nonzero;"/>
        </g>
        <g transform="matrix(1,0,0,1,-0.563649,0.563628)">
            <path d="M195.686,70.493C194.23,70.493 193.229,69.331 193.229,67.323C193.229,64.491 195.217,61.048 197.669,59.632C198.381,59.221 199.055,59.026 199.652,59.026C201.108,59.026 202.109,60.187 202.109,62.196C202.109,65.028 200.121,68.471 197.669,69.887C196.956,70.298 196.283,70.493 195.686,70.493Z" style="fill:rgb(64,189,167);fill-rule:nonzero;"/>
        </g>
        <g transform="matrix(1,0,0,1,-0.563649,0.563628)">
            <path d="M175.376,82.219C173.92,82.219 172.92,81.058 172.92,79.049C172.92,76.217 174.907,72.774 177.359,71.358C178.072,70.947 178.745,70.752 179.342,70.752C180.798,70.752 181.799,71.914 181.799,73.922C181.799,76.754 179.811,80.197 177.359,81.613C176.646,82.024 175.973,82.219 175.376,82.219Z" style="fill:rgb(64,189,167);fill-rule:nonzero;"/>
        </g>
        <g transform="matrix(1,0,0,1,-0.563649,0.563628)">
            <path d="M215.996,58.767C214.54,58.767 213.539,57.605 213.539,55.596C213.539,52.765 215.527,49.321 217.979,47.906C218.692,47.495 219.365,47.3 219.961,47.3C221.418,47.3 222.419,48.461 222.419,50.47C222.419,53.302 220.431,56.745 217.979,58.161C217.267,58.572 216.593,58.767 215.996,58.767Z" style="fill:rgb(64,189,167);fill-rule:nonzero;"/>
        </g>
        <g transform="matrix(1,0,0,1,-0.563649,0.563628)">
            <path d="M236.307,47.018C234.85,47.018 233.85,45.857 233.85,43.848C233.85,41.016 235.838,37.573 238.29,36.157C239.002,35.746 239.676,35.551 240.273,35.551C241.729,35.551 242.729,36.712 242.729,38.721C242.729,41.553 240.742,44.996 238.29,46.412C237.577,46.823 236.904,47.018 236.307,47.018Z" style="fill:rgb(64,189,167);fill-rule:nonzero;"/>
        </g>
        <g transform="matrix(1,0,0,1,-0.563649,0.563628)">
            <path d="M76.076,163.104L124.284,135.271C126.676,133.89 128.614,135.009 128.614,137.771L128.614,184.056C128.614,186.817 126.676,190.175 124.284,191.556L76.077,219.389C73.686,220.77 71.747,219.651 71.747,216.89L71.746,170.604C71.746,167.842 73.684,164.485 76.076,163.104Z" style="fill:rgb(215,217,216);fill-rule:nonzero;"/>
        </g>
        <g transform="matrix(1,0,0,1,-0.563649,0.563628)">
            <path d="M145.135,123.235L246.146,64.913C248.537,63.532 250.476,64.651 250.476,67.413L250.476,113.698C250.476,116.459 248.538,119.817 246.146,121.198L145.136,179.52C142.744,180.901 140.806,179.782 140.806,177.02L140.805,130.735C140.805,127.973 142.743,124.615 145.135,123.235Z" style="fill:rgb(215,217,216);fill-rule:nonzero;"/>
        </g>
        <g transform="matrix(1,0,0,1,-0.563649,0.563628)">
            <path d="M76.076,233.46L152.718,189.211C155.11,187.83 157.049,188.811 157.049,191.401C157.049,193.991 155.111,197.21 152.72,198.591L76.076,242.841C73.685,244.221 71.746,243.241 71.746,240.651C71.746,238.06 73.685,234.841 76.076,233.46Z" style="fill:rgb(215,217,216);fill-rule:nonzero;"/>
        </g>
        <g transform="matrix(1,0,0,1,-0.563649,0.563628)">
            <path d="M76.076,249.874L152.718,205.625C155.11,204.244 157.049,205.225 157.049,207.815C157.049,210.405 155.111,213.625 152.72,215.006L76.076,259.256C73.685,260.636 71.746,259.655 71.746,257.066C71.746,254.474 73.685,251.255 76.076,249.874Z" style="fill:rgb(215,217,216);fill-rule:nonzero;"/>
        </g>
        <g transform="matrix(1,0,0,1,-0.563649,0.563628)">
            <path d="M76.076,266.289L152.718,222.039C155.11,220.658 157.049,221.639 157.049,224.23C157.049,226.82 155.111,230.039 152.72,231.42L76.076,275.67C73.685,277.05 71.746,276.069 71.746,273.479C71.746,270.889 73.685,267.67 76.076,266.289Z" style="fill:rgb(215,217,216);fill-rule:nonzero;"/>
        </g>
        <g transform="matrix(1,0,0,1,-0.563649,0.563628)">
            <path d="M112.367,210.63C112.367,208.973 113.53,206.958 114.965,206.13L247.876,129.394C249.31,128.566 251.636,128.565 253.072,129.394L256,131.084C257.435,131.913 258.597,133.927 258.597,135.584L258.597,237.463C258.597,239.113 257.428,241.138 256.001,241.963L123.09,318.699C121.66,319.524 119.322,319.524 117.893,318.699L114.965,317.008C113.536,316.183 112.367,314.158 112.367,312.508L112.367,210.63Z" style="fill:rgb(84,193,177);fill-rule:nonzero;"/>
        </g>
        <g transform="matrix(1,0,0,1,-0.563649,0.563628)">
            <path d="M113.126,208.072L113.125,208.071C113.467,207.476 113.908,206.935 114.405,206.523C113.911,206.933 113.471,207.475 113.126,208.072ZM256.644,131.55C256.439,131.37 256.221,131.213 256,131.084L254.977,130.494L256.004,131.082C256.224,131.212 256.44,131.37 256.644,131.55ZM249.261,128.891C249.653,128.811 250.063,128.772 250.473,128.772C250.808,128.772 251.144,128.798 251.469,128.851C251.144,128.799 250.809,128.772 250.474,128.772C250.064,128.772 249.653,128.812 249.261,128.891Z" style="fill:rgb(251,252,252);fill-rule:nonzero;"/>
        </g>
        <g transform="matrix(1,0,0,1,-0.563649,0.563628)">
            <path d="M120.499,212.323L113.126,208.072C113.471,207.475 113.911,206.933 114.405,206.523C114.586,206.373 114.775,206.24 114.968,206.129L247.88,129.398C248.281,129.163 248.756,128.993 249.261,128.891C249.653,128.812 250.064,128.772 250.474,128.772C250.809,128.772 251.144,128.799 251.469,128.851C252.055,128.947 252.608,129.129 253.066,129.398L254.977,130.494L256,131.084C256.221,131.213 256.439,131.37 256.644,131.55C257.103,131.951 257.513,132.464 257.836,133.024L120.499,212.323Z" style="fill:rgb(127,205,198);fill-rule:nonzero;"/>
        </g>
        <g transform="matrix(1,0,0,1,-0.563649,0.563628)">
            <path d="M113.818,316.035C112.956,315.051 112.363,313.687 112.363,312.505L112.363,273.484L112.367,273.481L112.367,312.508C112.367,313.684 112.96,315.049 113.818,316.035Z" style="fill:rgb(201,203,203);fill-rule:nonzero;"/>
        </g>
        <g transform="matrix(1,0,0,1,-0.563649,0.563628)">
            <path d="M112.363,272.133L112.363,254.72L112.367,254.717L112.367,272.13L112.363,272.133Z" style="fill:rgb(216,218,217);fill-rule:nonzero;"/>
        </g>
        <g transform="matrix(1,0,0,1,-0.563649,0.563628)">
            <path d="M112.363,273.484L112.363,272.133L112.367,272.13L112.367,273.481L112.363,273.484Z" style="fill:rgb(191,193,193);fill-rule:nonzero;"/>
        </g>
        <g transform="matrix(1,0,0,1,-0.563649,0.563628)">
            <path d="M112.363,245.339L112.363,238.305L112.367,238.303L112.367,245.336L112.363,245.339ZM112.363,228.924L112.363,221.891L112.367,221.889L112.367,228.922L112.363,228.924ZM112.363,212.51L112.363,210.627C112.363,209.804 112.658,208.882 113.125,208.071L113.126,208.072C112.657,208.885 112.367,209.802 112.367,210.63L112.367,212.508L112.363,212.51Z" style="fill:rgb(216,218,217);fill-rule:nonzero;"/>
        </g>
        <g transform="matrix(1,0,0,1,-0.563649,0.563628)">
            <path d="M112.363,221.891L112.363,212.51L112.367,212.508L112.367,221.889L112.363,221.891Z" style="fill:rgb(191,193,193);fill-rule:nonzero;"/>
        </g>
        <g transform="matrix(1,0,0,1,-0.563649,0.563628)">
            <path d="M112.363,238.305L112.363,228.924L112.367,228.922L112.367,238.303L112.363,238.305Z" style="fill:rgb(191,193,193);fill-rule:nonzero;"/>
        </g>
        <g transform="matrix(1,0,0,1,-0.563649,0.563628)">
            <path d="M112.363,254.72L112.363,245.339L112.367,245.336L112.367,254.717L112.363,254.72Z" style="fill:rgb(191,193,193);fill-rule:nonzero;"/>
        </g>
        <g transform="matrix(1,0,0,1,-0.563649,0.563628)">
            <path d="M120.477,319.314C120.207,319.314 119.939,319.298 119.676,319.264C119.295,319.215 118.938,319.129 118.607,319.019C118.348,318.933 118.115,318.822 117.894,318.699L114.968,317.003C114.555,316.767 114.165,316.432 113.818,316.035C112.96,315.049 112.367,313.684 112.367,312.508L112.367,210.63C112.367,209.802 112.657,208.885 113.126,208.072L120.499,212.323L121.851,213.11C121.04,213.442 120.499,214.253 120.499,215.322L120.499,317.199C120.499,318.06 120.806,318.65 121.298,318.908C121.482,319 121.688,319.05 121.913,319.05C122.108,319.05 122.317,319.012 122.539,318.933C122.441,318.982 122.343,319.019 122.232,319.055C122.072,319.105 121.9,319.154 121.728,319.191C121.323,319.273 120.899,319.314 120.477,319.314Z" style="fill:rgb(64,189,167);fill-rule:nonzero;"/>
        </g>
        <g transform="matrix(1,0,0,1,-0.563649,0.563628)">
            <path d="M257.983,133.291C257.98,133.287 257.979,133.282 257.976,133.278L258.327,132.741L257.983,133.291Z" style="fill:rgb(190,192,193);fill-rule:nonzero;"/>
        </g>
        <g transform="matrix(1,0,0,1,-0.563649,0.563628)">
            <path d="M121.298,318.908C120.806,318.65 120.499,318.06 120.499,317.199L120.499,315.504L173.187,235.579L120.499,212.323L182.051,235.319C183.196,235.746 184.378,235.95 185.545,235.95C188.85,235.95 192.034,234.308 193.923,231.411L203.808,216.268L257.976,133.278C257.979,133.282 257.98,133.287 257.983,133.291L205.778,216.837L258.596,237.507C258.584,238.343 258.278,239.277 257.786,240.1L205.631,217.072L194.145,235.454C192.262,238.458 189.013,240.158 185.655,240.158C184.3,240.158 182.928,239.881 181.621,239.301L173.442,235.692L121.298,318.908Z" style="fill:rgb(18,185,158);fill-rule:nonzero;"/>
        </g>
        <g transform="matrix(1,0,0,1,-0.563649,0.563628)">
            <path d="M230.166,95.363L230.166,329.266C230.166,332.027 232.105,333.147 234.497,331.766L339.575,271.1C341.965,269.719 343.905,266.361 343.905,263.6L343.905,29.697C343.905,26.936 341.965,25.817 339.575,27.197L234.497,87.863C232.105,89.244 230.166,92.602 230.166,95.363Z" style="fill:rgb(249,249,249);fill-rule:nonzero;"/>
        </g>
        <g transform="matrix(1,0,0,1,-0.563649,0.563628)">
            <path d="M230.751,95.363L229.581,95.363L229.581,329.266C229.582,330.34 229.847,331.248 230.375,331.911C230.898,332.576 231.697,332.948 232.563,332.942C233.273,332.941 234.026,332.713 234.789,332.272L339.867,271.606C341.18,270.845 342.315,269.59 343.143,268.16C343.968,266.728 344.487,265.117 344.49,263.6L344.49,29.697C344.49,28.623 344.224,27.715 343.696,27.052C343.173,26.387 342.374,26.015 341.508,26.021C340.798,26.021 340.045,26.25 339.282,26.69L234.204,87.356C232.891,88.117 231.756,89.373 230.928,90.803C230.103,92.235 229.584,93.846 229.581,95.363L230.751,95.363C230.748,94.119 231.198,92.67 231.941,91.388C232.68,90.104 233.71,88.989 234.789,88.369L339.867,27.703C340.494,27.341 341.055,27.19 341.508,27.191C342.064,27.197 342.463,27.391 342.782,27.782C343.098,28.175 343.32,28.812 343.32,29.697L343.32,263.6C343.323,264.844 342.872,266.293 342.13,267.575C341.391,268.859 340.361,269.973 339.282,270.593L234.204,331.259C233.577,331.621 233.016,331.773 232.563,331.772C232.007,331.766 231.608,331.572 231.289,331.181C230.973,330.788 230.751,330.151 230.751,329.266L230.751,95.363Z" style="fill:rgb(215,217,216);fill-rule:nonzero;"/>
        </g>
        <g transform="matrix(1,0,0,1,-0.563649,0.563628)">
            <path d="M236.256,99.721C236.256,99.073 236.759,98.257 237.381,97.899L249.351,90.99C249.973,90.631 250.477,90.865 250.477,91.513C250.476,92.161 249.972,92.977 249.35,93.336L237.381,100.244C236.759,100.603 236.256,100.369 236.256,99.721Z" style="fill:rgb(64,87,97);fill-rule:nonzero;"/>
        </g>
        <g transform="matrix(1,0,0,1,-0.563649,0.563628)">
            <path d="M236.256,104.379C236.256,103.731 236.759,102.915 237.381,102.556L249.351,95.649C249.973,95.29 250.477,95.524 250.477,96.171C250.476,96.818 249.972,97.634 249.35,97.993L237.381,104.902C236.759,105.26 236.256,105.027 236.256,104.379Z" style="fill:rgb(64,87,97);fill-rule:nonzero;"/>
        </g>
        <g transform="matrix(1,0,0,1,-0.563649,0.563628)">
            <path d="M236.256,109.037C236.256,108.389 236.759,107.573 237.381,107.214L249.351,100.306C249.973,99.947 250.477,100.182 250.477,100.829C250.476,101.476 249.972,102.292 249.35,102.651L237.381,109.56C236.759,109.919 236.256,109.685 236.256,109.037Z" style="fill:rgb(64,87,97);fill-rule:nonzero;"/>
        </g>
        <g transform="matrix(1,0,0,1,-0.563649,0.563628)">
            <path d="M329.454,54.932C327.944,55.804 326.72,55.097 326.72,53.355C326.72,51.612 327.944,49.492 329.454,48.621C330.963,47.75 332.186,48.456 332.186,50.199C332.186,51.942 330.963,54.061 329.454,54.932ZM335.779,49.059L335.779,47.191C335.779,47.079 335.697,47.026 335.595,47.072L334.155,47.721C334.053,47.767 333.949,47.716 333.916,47.61C333.832,47.345 333.723,47.107 333.594,46.896C333.536,46.801 333.523,46.647 333.573,46.547L334.532,44.612C334.582,44.512 334.544,44.386 334.447,44.33L333.406,43.729C333.309,43.673 333.18,43.703 333.119,43.796L331.922,45.595C331.861,45.688 331.721,45.753 331.61,45.75C331.362,45.744 331.102,45.769 330.831,45.829C330.722,45.853 330.627,45.788 330.615,45.677L330.458,44.106C330.446,43.995 330.359,43.95 330.262,44.006L328.644,44.94C328.548,44.995 328.462,45.13 328.452,45.241L328.29,47.042C328.28,47.152 328.204,47.302 328.122,47.378C327.806,47.668 327.506,47.987 327.223,48.329C327.152,48.415 327.01,48.456 326.905,48.419L325.867,48.056C325.761,48.019 325.63,48.068 325.575,48.164L324.386,50.224C324.33,50.321 324.353,50.458 324.438,50.531L325.271,51.249C325.356,51.321 325.391,51.464 325.352,51.569C325.198,51.985 325.071,52.405 324.978,52.823C324.954,52.932 324.862,53.072 324.771,53.136L323.293,54.177C323.202,54.241 323.128,54.383 323.128,54.495L323.128,56.362C323.128,56.474 323.211,56.527 323.312,56.482L324.752,55.833C324.853,55.787 324.958,55.837 324.992,55.943C325.075,56.208 325.183,56.446 325.312,56.657C325.371,56.753 325.383,56.906 325.335,57.006L324.375,58.942C324.325,59.041 324.363,59.168 324.46,59.223L325.502,59.824C325.598,59.88 325.726,59.85 325.788,59.757L326.984,57.959C327.046,57.866 327.185,57.8 327.297,57.803C327.545,57.81 327.804,57.784 328.076,57.724C328.184,57.7 328.281,57.765 328.292,57.876L328.45,59.448C328.461,59.559 328.548,59.604 328.644,59.548L330.262,58.614C330.359,58.558 330.445,58.423 330.455,58.312L330.617,56.512C330.628,56.401 330.704,56.251 330.786,56.176C331.1,55.886 331.401,55.567 331.684,55.225C331.755,55.139 331.896,55.098 332.002,55.134L333.04,55.497C333.145,55.534 333.276,55.485 333.332,55.389L334.521,53.329C334.577,53.233 334.553,53.095 334.469,53.023L333.635,52.305C333.551,52.232 333.516,52.088 333.554,51.984C333.71,51.568 333.836,51.148 333.929,50.731C333.954,50.622 334.045,50.481 334.136,50.417L335.614,49.377C335.705,49.313 335.779,49.17 335.779,49.059Z" style="fill:rgb(48,68,76);fill-rule:nonzero;"/>
        </g>
        <g transform="matrix(1,0,0,1,-0.563649,0.563628)">
            <path d="M287.036,95.158C299.313,88.069 309.266,93.816 309.266,107.992C309.266,122.17 299.313,139.408 287.036,146.498C274.757,153.586 264.804,147.84 264.804,133.662C264.804,119.486 274.757,102.246 287.036,95.158Z" style="fill:rgb(64,87,97);fill-rule:nonzero;"/>
        </g>
        <g transform="matrix(1,0,0,1,-0.563649,0.563628)">
            <path d="M286.88,106.315C290.862,104.015 294.091,105.88 294.091,110.479C294.091,115.078 290.862,120.671 286.88,122.971C282.896,125.27 279.667,123.406 279.667,118.807C279.667,114.207 282.896,108.614 286.88,106.315Z" style="fill:rgb(84,193,177);fill-rule:nonzero;"/>
        </g>
        <g transform="matrix(1,0,0,1,-0.563649,0.563628)">
            <path d="M301.092,130.84C301.092,123.283 295.787,120.22 289.244,123.999L285.153,126.361C278.61,130.138 273.304,139.327 273.304,146.883L273.304,148.944C274.485,149.337 275.767,149.531 277.124,149.534C280.108,149.54 283.468,148.557 287.036,146.498C292.37,143.418 297.262,138.42 301.092,132.592L301.092,130.84Z" style="fill:rgb(84,193,177);fill-rule:nonzero;"/>
        </g>
        <g transform="matrix(1,0,0,1,-0.563649,0.563628)">
            <path d="M266.969,167.591L307.101,144.422C308.297,143.731 309.266,144.221 309.266,145.517C309.266,146.812 308.297,148.422 307.101,149.112L266.969,172.282C265.774,172.972 264.804,172.482 264.804,171.187C264.804,169.891 265.774,168.282 266.969,167.591Z" style="fill:rgb(84,193,177);fill-rule:nonzero;"/>
        </g>
        <g transform="matrix(1,0,0,1,-0.563649,0.563628)">
            <path d="M262.663,184.164L311.408,155.991C312.603,155.3 313.573,155.791 313.573,157.086C313.573,158.381 312.603,159.991 311.408,160.681L262.663,188.854C261.467,189.545 260.497,189.054 260.497,187.759C260.497,186.464 261.467,184.854 262.663,184.164Z" style="fill:rgb(64,87,97);fill-rule:nonzero;"/>
        </g>
        <g transform="matrix(1,0,0,1,-0.563649,0.563628)">
            <path d="M312.708,178.702L326.356,170.82C327.074,170.406 327.655,170.595 327.655,171.243C327.655,171.891 327.074,172.752 326.356,173.166L312.708,181.047C311.99,181.461 311.408,181.272 311.408,180.624C311.408,179.977 311.99,179.116 312.708,178.702Z" style="fill:rgb(48,68,76);fill-rule:nonzero;"/>
        </g>
        <g transform="matrix(1,0,0,1,-0.563649,0.563628)">
            <path d="M244.518,213.387L264.56,201.816C265.756,201.125 266.725,201.685 266.725,203.066L266.725,216.827C266.725,218.208 265.757,219.887 264.56,220.577L244.518,232.149C243.323,232.839 242.353,232.279 242.353,230.899L242.353,217.137C242.353,215.756 243.323,214.077 244.518,213.387Z" style="fill:rgb(84,193,177);fill-rule:nonzero;"/>
        </g>
        <g transform="matrix(1,0,0,1,-0.563649,0.563628)">
            <path d="M247.714,215.31L261.364,207.429C262.082,207.015 262.663,207.204 262.663,207.852C262.663,208.5 262.082,209.361 261.364,209.775L247.714,217.656C246.998,218.07 246.416,217.881 246.416,217.233C246.416,216.586 246.998,215.725 247.714,215.31Z" style="fill:rgb(249,249,249);fill-rule:nonzero;"/>
        </g>
        <g transform="matrix(1,0,0,1,-0.563649,0.563628)">
            <path d="M246.416,222.251L246.416,226.286C246.416,227.114 246.998,227.45 247.714,227.036L261.364,219.155C262.082,218.741 262.663,217.734 262.663,216.905L262.664,212.87C262.664,212.041 262.082,211.705 261.364,212.12L247.714,220.001C246.998,220.415 246.416,221.423 246.416,222.251Z" style="fill:rgb(249,249,249);fill-rule:nonzero;"/>
        </g>
        <g transform="matrix(1,0,0,1,-0.563649,0.563628)">
            <path d="M277.014,194.625L297.056,183.054C298.252,182.364 299.221,182.923 299.221,184.304L299.221,198.066C299.221,199.446 298.252,201.125 297.056,201.816L277.014,213.387C275.818,214.077 274.849,213.518 274.849,212.137L274.849,198.375C274.849,196.995 275.818,195.316 277.014,194.625Z" style="fill:rgb(84,193,177);fill-rule:nonzero;"/>
        </g>
        <g transform="matrix(1,0,0,1,-0.563649,0.563628)">
            <path d="M280.211,196.549L293.86,188.668C294.577,188.254 295.159,188.443 295.159,189.09C295.159,189.738 294.577,190.599 293.86,191.014L280.211,198.894C279.493,199.309 278.912,199.119 278.912,198.472C278.912,197.824 279.493,196.964 280.211,196.549Z" style="fill:rgb(249,249,249);fill-rule:nonzero;"/>
        </g>
        <g transform="matrix(1,0,0,1,-0.563649,0.563628)">
            <path d="M278.912,203.49L278.912,207.525C278.912,208.353 279.493,208.689 280.211,208.275L293.86,200.394C294.577,199.98 295.159,198.972 295.159,198.144L295.159,194.108C295.16,193.28 294.578,192.944 293.86,193.358L280.211,201.239C279.493,201.654 278.912,202.661 278.912,203.49Z" style="fill:rgb(249,249,249);fill-rule:nonzero;"/>
        </g>
        <g transform="matrix(1,0,0,1,-0.563649,0.563628)">
            <path d="M309.51,175.863L329.552,164.292C330.748,163.601 331.717,164.161 331.717,165.542L331.717,179.303C331.717,180.684 330.749,182.363 329.552,183.053L309.51,194.625C308.315,195.315 307.345,194.756 307.345,193.375L307.345,179.613C307.345,178.232 308.315,176.553 309.51,175.863Z" style="fill:rgb(84,193,177);fill-rule:nonzero;"/>
        </g>
        <g transform="matrix(1,0,0,1,-0.563649,0.563628)">
            <path d="M312.707,177.787L326.356,169.905C327.074,169.491 327.655,169.68 327.655,170.328C327.655,170.976 327.074,171.837 326.356,172.251L312.707,180.132C311.99,180.546 311.408,180.357 311.408,179.71C311.408,179.062 311.99,178.201 312.707,177.787Z" style="fill:rgb(249,249,249);fill-rule:nonzero;"/>
        </g>
        <g transform="matrix(1,0,0,1,-0.563649,0.563628)">
            <path d="M311.408,184.727L311.408,188.762C311.408,189.591 311.99,189.927 312.707,189.512L326.356,181.632C327.074,181.217 327.655,180.21 327.655,179.382L327.656,175.346C327.656,174.517 327.074,174.182 326.357,174.596L312.707,182.477C311.99,182.891 311.408,183.899 311.408,184.727Z" style="fill:rgb(249,249,249);fill-rule:nonzero;"/>
        </g>
        <g transform="matrix(1,0,0,1,-0.563649,0.563628)">
            <path d="M246.683,244.97L327.387,198.375C329.779,196.994 331.718,197.975 331.718,200.566C331.718,203.156 329.779,206.375 327.387,207.756L246.683,254.351C244.292,255.731 242.353,254.751 242.353,252.16C242.353,249.569 244.292,246.35 246.683,244.97Z" style="fill:rgb(215,217,216);fill-rule:nonzero;"/>
        </g>
        <g transform="matrix(1,0,0,1,-0.563649,0.563628)">
            <path d="M246.683,263.732L327.387,217.137C329.779,215.756 331.718,216.737 331.718,219.327C331.718,221.918 329.779,225.137 327.387,226.518L246.683,273.112C244.292,274.493 242.353,273.512 242.353,270.922C242.353,268.332 244.292,265.112 246.683,263.732Z" style="fill:rgb(215,217,216);fill-rule:nonzero;"/>
        </g>
        <g transform="matrix(1,0,0,1,-0.563649,0.563628)">
            <path d="M272.953,272.017L301.118,255.756C302.314,255.065 303.283,255.625 303.283,257.006L303.284,266.077C303.284,267.458 302.314,269.136 301.119,269.827L272.953,286.089C271.757,286.779 270.788,286.219 270.788,284.839L270.788,275.767C270.788,274.386 271.757,272.708 272.953,272.017Z" style="fill:rgb(84,193,177);fill-rule:nonzero;"/>
        </g>
        <g transform="matrix(1,0,0,1,-0.563649,0.563628)">
            <path d="M248.446,246.348C247.325,246.995 246.415,248.57 246.415,249.866C246.415,251.161 247.325,251.686 248.446,251.039C249.568,250.391 250.477,248.816 250.477,247.521C250.477,246.225 249.568,245.7 248.446,246.348Z" style="fill:rgb(249,249,249);fill-rule:nonzero;"/>
        </g>
        <g transform="matrix(1,0,0,1,-0.563649,0.563628)">
            <path d="M254.881,242.628C253.758,243.275 252.849,244.85 252.849,246.146C252.849,247.441 253.758,247.966 254.881,247.319C256.002,246.671 256.911,245.096 256.911,243.8C256.911,242.505 256.002,241.98 254.881,242.628Z" style="fill:rgb(249,249,249);fill-rule:nonzero;"/>
        </g>
        <g transform="matrix(1,0,0,1,-0.563649,0.563628)">
            <path d="M261.315,238.907C260.193,239.555 259.284,241.13 259.284,242.425C259.284,243.721 260.193,244.246 261.315,243.599C262.436,242.951 263.345,241.376 263.345,240.08C263.345,238.785 262.436,238.26 261.315,238.907Z" style="fill:rgb(249,249,249);fill-rule:nonzero;"/>
        </g>
        <g transform="matrix(1,0,0,1,-0.563649,0.563628)">
            <path d="M267.749,235.187C266.628,235.835 265.717,237.41 265.717,238.706C265.717,240.001 266.628,240.526 267.749,239.879C268.871,239.231 269.78,237.656 269.78,236.361C269.78,235.065 268.871,234.54 267.749,235.187Z" style="fill:rgb(249,249,249);fill-rule:nonzero;"/>
        </g>
        <g transform="matrix(1,0,0,1,-0.563649,0.563628)">
            <path d="M274.183,231.467C273.061,232.115 272.152,233.69 272.152,234.986C272.152,236.281 273.061,236.806 274.183,236.158C275.304,235.511 276.215,233.936 276.215,232.64C276.215,231.345 275.304,230.819 274.183,231.467Z" style="fill:rgb(249,249,249);fill-rule:nonzero;"/>
        </g>
        <g transform="matrix(1,0,0,1,-0.563649,0.563628)">
            <path d="M280.618,227.747C279.496,228.395 278.587,229.97 278.587,231.265C278.587,232.561 279.496,233.086 280.618,232.438C281.739,231.791 282.648,230.215 282.648,228.92C282.648,227.625 281.739,227.099 280.618,227.747Z" style="fill:rgb(249,249,249);fill-rule:nonzero;"/>
        </g>
        <g transform="matrix(1,0,0,1,-0.563649,0.563628)">
            <path d="M287.051,224.027C285.93,224.674 285.021,226.25 285.021,227.545C285.021,228.84 285.93,229.365 287.051,228.718C288.173,228.07 289.083,226.495 289.083,225.2C289.083,223.904 288.173,223.379 287.051,224.027Z" style="fill:rgb(249,249,249);fill-rule:nonzero;"/>
        </g>
        <g transform="matrix(1,0,0,1,-0.563649,0.563628)">
            <path d="M248.446,265.13C247.325,265.778 246.415,267.353 246.415,268.648C246.415,269.944 247.325,270.469 248.446,269.821C249.568,269.173 250.477,267.598 250.477,266.303C250.477,265.007 249.568,264.482 248.446,265.13Z" style="fill:rgb(249,249,249);fill-rule:nonzero;"/>
        </g>
        <g transform="matrix(1,0,0,1,-0.563649,0.563628)">
            <path d="M254.881,261.411C253.758,262.058 252.849,263.632 252.849,264.928C252.849,266.223 253.758,266.749 254.881,266.101C256.002,265.453 256.911,263.878 256.911,262.584C256.911,261.287 256.002,260.762 254.881,261.411Z" style="fill:rgb(249,249,249);fill-rule:nonzero;"/>
        </g>
        <g transform="matrix(1,0,0,1,-0.563649,0.563628)">
            <path d="M261.315,257.691C260.193,258.338 259.284,259.912 259.284,261.209C259.284,262.503 260.193,263.028 261.315,262.381C262.436,261.734 263.345,260.158 263.345,258.862C263.345,257.567 262.436,257.042 261.315,257.691Z" style="fill:rgb(249,249,249);fill-rule:nonzero;"/>
        </g>
        <g transform="matrix(1,0,0,1,-0.563649,0.563628)">
            <path d="M267.749,253.969C266.628,254.617 265.717,256.192 265.717,257.487C265.717,258.783 266.628,259.308 267.749,258.661C268.871,258.013 269.78,256.438 269.78,255.142C269.78,253.847 268.871,253.322 267.749,253.969Z" style="fill:rgb(249,249,249);fill-rule:nonzero;"/>
        </g>
        <g transform="matrix(1,0,0,1,-0.563649,0.563628)">
            <path d="M274.183,250.249C273.061,250.897 272.152,252.472 272.152,253.768C272.152,255.063 273.061,255.588 274.183,254.941C275.304,254.293 276.215,252.718 276.215,251.423C276.215,250.127 275.304,249.602 274.183,250.249Z" style="fill:rgb(249,249,249);fill-rule:nonzero;"/>
        </g>
        <g transform="matrix(1,0,0,1,-0.563649,0.563628)">
            <path d="M280.618,246.529C279.496,247.177 278.587,248.752 278.587,250.048C278.587,251.343 279.496,251.868 280.618,251.22C281.739,250.573 282.648,248.998 282.648,247.702C282.648,246.407 281.739,245.882 280.618,246.529Z" style="fill:rgb(249,249,249);fill-rule:nonzero;"/>
        </g>
        <g transform="matrix(1,0,0,1,-0.563649,0.563628)">
            <path d="M287.051,242.809C285.93,243.457 285.021,245.032 285.021,246.327C285.021,247.623 285.93,248.148 287.051,247.5C288.173,246.853 289.083,245.278 289.083,243.982C289.083,242.687 288.173,242.161 287.051,242.809Z" style="fill:rgb(249,249,249);fill-rule:nonzero;"/>
        </g>
        <g transform="matrix(1,0,0,1,-0.563649,0.563628)">
            <path d="M397.961,217.703C395.438,217.703 392.773,218.97 391.134,219.916C379.714,226.51 370.064,244.221 370.064,258.592C370.064,264.408 371.696,268.823 374.428,270.401C377.539,272.196 381.86,270.236 384.159,268.91C395.58,262.316 405.228,244.605 405.228,230.235C405.228,224.418 403.597,220.003 400.865,218.425C399.971,217.91 398.977,217.703 397.961,217.703ZM377.299,285.087C373.792,285.087 370.465,284.222 367.452,282.483C360.246,278.322 356.113,269.614 356.113,258.592C356.113,239.21 368.432,216.913 384.159,207.834C392.627,202.946 401.036,202.415 407.84,206.343C415.048,210.504 419.18,219.212 419.18,230.235C419.18,249.617 406.861,271.913 391.134,280.992C386.416,283.716 381.715,285.087 377.299,285.087Z" style="fill:rgb(64,87,97);fill-rule:nonzero;"/>
        </g>
        <g transform="matrix(1,0,0,1,-0.563649,0.563628)">
            <path d="M407.724,233.338C407.724,222.451 400.865,218.425 400.865,218.425C403.597,220.003 405.228,224.418 405.228,230.235C405.228,244.605 395.58,262.316 384.159,268.91C381.86,270.236 377.539,272.196 374.428,270.401C374.428,270.401 380.216,273.993 388.213,269.631C399.791,263.315 407.724,247.708 407.724,233.338Z" style="fill:rgb(48,68,76);fill-rule:nonzero;"/>
        </g>
        <g transform="matrix(1,0,0,1,-0.563649,0.563628)">
            <path d="M396.721,97.252C396.721,93.268 393.492,90.039 389.508,90.039C385.525,90.039 382.296,93.268 382.296,97.252L382.296,211.979C382.296,213.045 383,214.111 384.408,214.923C387.224,216.55 391.792,216.55 394.609,214.923C396.017,214.111 396.721,213.045 396.721,211.979L396.721,97.271L396.72,97.271L396.721,97.252Z" style="fill:rgb(48,68,76);fill-rule:nonzero;"/>
        </g>
        <g transform="matrix(1,0,0,1,-0.563649,0.563628)">
            <path d="M390.96,122.884C390.96,120.227 389.094,116.997 386.795,115.669C385.625,114.993 384.571,114.946 383.814,115.406L383.81,115.4L366.012,125.654L365.582,125.91L365.408,126.013C365.1,126.218 364.813,126.454 364.556,126.71C363.479,127.777 362.813,129.263 362.813,130.894C362.813,133.13 364.054,135.078 365.88,136.083C366.72,136.534 367.673,136.79 368.699,136.79C369.715,136.79 370.678,136.534 371.508,136.083C371.622,136.021 371.734,135.949 371.847,135.888L389.758,125.572L389.756,125.568C390.499,125.129 390.96,124.202 390.96,122.884Z" style="fill:rgb(64,87,97);fill-rule:nonzero;"/>
        </g>
        <g transform="matrix(1,0,0,1,-0.563649,0.563628)">
            <path d="M390.96,151.61C390.96,148.953 389.094,145.723 386.795,144.394C385.625,143.719 384.571,143.671 383.814,144.132L383.81,144.126L362.951,156.105L362.52,156.361L362.345,156.464C362.038,156.669 361.751,156.905 361.495,157.161C360.418,158.228 359.752,159.715 359.752,161.345C359.752,163.58 360.992,165.528 362.817,166.534C363.658,166.985 364.612,167.241 365.637,167.241C366.653,167.241 367.617,166.985 368.447,166.534C368.56,166.472 368.673,166.401 368.786,166.339L389.758,154.298L389.756,154.293C390.499,153.854 390.96,152.927 390.96,151.61Z" style="fill:rgb(64,87,97);fill-rule:nonzero;"/>
        </g>
    </g>
</svg>
