<svg width="400" height="81" viewBox="0 0 400 81" fill="none" xmlns="http://www.w3.org/2000/svg">
<path d="M398.398 43.7266C394.568 48.5886 369.887 52.0648 355.407 56.2832C341.561 60.3168 332.335 64.8966 314.143 68.2718C295.552 71.721 273.374 74.6493 248.93 76.0379C224.772 77.4101 200.144 76.1402 175.451 76.1502C150.617 76.1603 123.281 78.1167 101.617 76.0975C79.7711 74.0614 74.1674 68.6364 58.0766 65.2103C42.7904 61.9555 17.2421 60.37 8.55033 56.2813C-0.145952 52.1905 11.3826 47.3061 10.4309 42.7975C9.45502 38.1744 -5.32015 33.6695 2.82912 29.1777C10.9571 24.6976 38.8085 22.5273 54.1367 18.7072C70.1985 14.7042 73.7057 8.8211 95.6984 6.03243C117.458 3.27335 145.536 3.90117 170.761 3.91921C193.992 3.93583 215.337 5.44915 238.025 6.13422C261.358 6.83876 287.547 5.86045 307.637 8.05218C327.751 10.2465 338.222 14.5455 349.964 18.3463C361.378 22.0406 368.225 26.1103 375.974 30.1713C384.523 34.6511 402.241 38.8479 398.398 43.7266Z" fill="#EDEDED"/>
<path d="M398.398 43.7266C394.568 48.5886 369.887 52.0648 355.407 56.2832C341.561 60.3168 332.335 64.8966 314.143 68.2718C295.552 71.721 273.374 74.6493 248.93 76.0379C224.772 77.4101 200.144 76.1402 175.451 76.1502C150.617 76.1603 123.281 78.1167 101.617 76.0975C79.7711 74.0614 74.1674 68.6364 58.0766 65.2103C42.7904 61.9555 17.2421 60.37 8.55033 56.2813C-0.145952 52.1905 11.3826 47.3061 10.4309 42.7975C9.45502 38.1744 -5.32015 33.6695 2.82912 29.1777C10.9571 24.6976 38.8085 22.5273 54.1367 18.7072C70.1985 14.7042 73.7057 8.8211 95.6984 6.03243C117.458 3.27335 145.536 3.90117 170.761 3.91921C193.992 3.93583 215.337 5.44915 238.025 6.13422C261.358 6.83876 287.547 5.86045 307.637 8.05218C327.751 10.2465 338.222 14.5455 349.964 18.3463C361.378 22.0406 368.225 26.1103 375.974 30.1713C384.523 34.6511 402.241 38.8479 398.398 43.7266Z" fill="url(#paint0_linear)"/>
<defs>
<linearGradient id="paint0_linear" x1="109" y1="-19" x2="115.075" y2="88.0769" gradientUnits="userSpaceOnUse">
<stop stop-color="white"/>
<stop offset="1" stop-color="white" stop-opacity="0"/>
</linearGradient>
</defs>
</svg>
