<svg width="292" height="128" viewBox="0 0 292 128" fill="none" xmlns="http://www.w3.org/2000/svg">
<path d="M202.798 17.5533V9.59741H201.327V14.0464L199.028 9.59741H197.65V17.5533H199.129V13.1271L201.428 17.5533H202.798Z" fill="black"/>
<path d="M198.41 115.832C197.563 115.832 196.925 116.188 196.577 116.832C196.288 116.205 195.641 115.832 194.794 115.832C194.057 115.832 193.479 116.103 193.111 116.603V115.9H191.099V120.508H193.111V118.23C193.111 117.704 193.439 117.34 193.967 117.332C194.415 117.332 194.714 117.62 194.714 118.077V120.508H196.726V118.23C196.726 117.704 197.055 117.34 197.573 117.332C198.021 117.332 198.32 117.62 198.32 118.077V120.508H200.332V117.586C200.332 116.518 199.555 115.832 198.41 115.832Z" fill="black"/>
<path d="M206.698 115.9H204.706V116.4C204.358 116.044 203.85 115.841 203.212 115.841C201.907 115.841 200.981 116.705 200.981 118.018C200.981 119.365 201.937 120.246 203.252 120.246C203.87 120.246 204.358 120.051 204.706 119.695V120.161C204.706 120.61 204.278 120.898 203.551 120.898C202.993 120.898 202.366 120.746 201.888 120.474L201.22 121.627C201.808 121.957 202.714 122.228 203.72 122.228C205.493 122.228 206.698 121.406 206.698 120.11V115.9ZM203.78 119.017C203.232 119.017 202.864 118.636 202.864 118.069C202.864 117.493 203.232 117.103 203.78 117.103C204.338 117.103 204.706 117.484 204.706 118.069C204.706 118.636 204.338 119.017 203.78 119.017Z" fill="black"/>
<path fill-rule="evenodd" clip-rule="evenodd" d="M114.371 35.8301C113.467 15.8893 97.0138 0 76.8498 0C60.0997 0 45.9105 10.9644 41.0678 26.1076C39.9129 26.0007 38.7427 25.946 37.5599 25.946C16.8161 25.946 0 42.7621 0 63.5058C0 84.2496 16.8161 101.066 37.5599 101.066C38.6427 101.066 39.7148 101.02 40.7743 100.93C45.3139 116.569 59.7469 128 76.8498 128C97.5935 128 114.41 111.184 114.41 90.4402C114.41 90.2752 114.409 90.1104 114.406 89.9459H114.41V35.8301H114.371Z" fill="black"/>
<path d="M32.8379 45.2242C25.1372 45.2242 20.0768 49.1566 20.0768 55.3297C20.0768 66.6242 36.1821 63.5605 36.1821 68.4075C36.1821 69.8707 34.95 70.5566 33.0139 70.5566C29.8456 70.5566 24.6972 68.4532 21.529 65.6639L18.0967 72.8887C21.969 76.0438 27.6895 77.9643 32.9259 77.9643C39.8344 77.9643 45.6429 74.7177 45.6429 67.9045C45.6429 56.3357 29.5376 59.125 29.5376 54.4152C29.5376 53.2263 30.5497 52.6776 32.0898 52.6776C34.686 52.6776 39.1744 54.3695 42.3426 56.2442L45.7309 48.928C42.3866 46.6874 37.5462 45.2242 32.8379 45.2242Z" fill="white"/>
<path d="M60.0001 69.0477L64.3564 77.69H74.8733L66.0726 62.4173L74.8293 52.8148H64.7965L58.1959 60.2682V43.7609H49.3072V77.69H58.1959V71.0139L60.0001 69.0477Z" fill="white"/>
<path d="M101.868 52.8148H93.023L88.5787 68.0417L83.3422 52.8148H74.2335L84.1343 77.0041L83.6943 77.8729C83.1662 78.9703 82.2861 79.4733 81.0981 79.4733C79.91 79.4733 78.9859 79.0617 77.8858 78.0558L74.1895 84.2288C76.5657 86.1036 78.9419 86.9724 81.8901 86.9724C86.6865 86.9724 89.9428 84.6861 91.8349 79.7934L101.868 52.8148Z" fill="white"/>
<path d="M121.679 45.7591V77.7177H130.917V69.1012H135.803C143.842 69.1012 148.461 64.7245 148.461 57.111C148.461 49.8622 143.842 45.7591 135.803 45.7591H121.679ZM130.917 53.0535H135.359C138.112 53.0535 139.711 54.6036 139.711 57.3846C139.711 60.2567 138.112 61.8068 135.359 61.8068H130.917V53.0535Z" fill="black"/>
<path d="M168.964 52.552C165.588 52.552 162.968 54.0109 161.28 56.7463V43.8899H152.308V77.7177H161.28V65.454C161.28 62.6274 162.79 60.667 165.233 60.6214C167.365 60.6214 168.697 62.1715 168.697 64.6334V77.7177H177.669V61.9891C177.669 56.2448 174.161 52.552 168.964 52.552Z" fill="black"/>
<path d="M206.792 52.9167H197.864L193.378 68.0982L188.093 52.9167H178.899L188.893 77.0338L188.448 77.9C187.915 78.9942 187.027 79.4957 185.828 79.4957C184.629 79.4957 183.696 79.0854 182.586 78.0824L178.855 84.237C181.253 86.1062 183.652 86.9724 186.627 86.9724C191.469 86.9724 194.755 84.6929 196.665 79.8148L206.792 52.9167Z" fill="black"/>
<path d="M218.148 52.5064C212.063 52.5064 207.844 55.6065 207.844 60.8038C207.844 69.2835 220.191 67.9158 220.191 70.7424C220.191 71.5174 219.392 71.8822 218.192 71.8822C215.527 71.8822 212.463 70.8336 209.443 68.8276L206.689 74.6176C209.842 76.9426 213.795 78.128 218.059 78.128C224.366 78.128 228.674 75.0279 228.674 69.9218C228.674 61.4421 216.06 62.673 216.06 59.892C216.06 59.117 216.771 58.7067 217.881 58.7067C219.791 58.7067 222.501 59.5729 225.787 61.3053L228.763 55.5154C225.476 53.555 221.79 52.5064 218.148 52.5064Z" fill="black"/>
<path d="M237.076 41.1089C234.366 41.1089 232.457 43.0693 232.457 45.8503C232.457 48.6313 234.366 50.5917 237.076 50.5917C239.785 50.5917 241.695 48.6313 241.695 45.8503C241.695 43.0693 239.785 41.1089 237.076 41.1089ZM241.517 77.7177V52.9167H232.545V77.7177H241.517Z" fill="black"/>
<path d="M257.739 52.5976C250.099 52.5976 245.08 57.7037 245.08 65.4084C245.08 73.0219 250.055 78.0368 257.65 78.0368C262.98 78.0368 267.066 75.7117 268.931 71.6086L261.958 68.007C261.203 69.8762 259.871 70.7424 258.138 70.7424C255.74 70.7424 254.141 68.5997 254.141 65.3628C254.141 62.2171 255.74 60.0744 258.138 60.0744C259.826 60.0744 261.159 60.9862 262.002 62.5362L268.887 59.0714C266.844 54.9683 262.802 52.5976 257.739 52.5976Z" fill="black"/>
<path d="M281.258 52.5064C275.173 52.5064 270.953 55.6065 270.953 60.8038C270.953 69.2835 283.301 67.9158 283.301 70.7424C283.301 71.5174 282.501 71.8822 281.302 71.8822C278.637 71.8822 275.572 70.8336 272.552 68.8276L269.798 74.6176C272.952 76.9426 276.905 78.128 281.169 78.128C287.476 78.128 291.784 75.0279 291.784 69.9218C291.784 61.4421 279.17 62.673 279.17 59.892C279.17 59.117 279.881 58.7067 280.991 58.7067C282.901 58.7067 285.61 59.5729 288.897 61.3053L291.873 55.5154C288.586 53.555 284.9 52.5064 281.258 52.5064Z" fill="black"/>
<rect x="199.989" y="26.9132" width="0.623993" height="14.1958" fill="black"/>
<rect x="200.184" y="26.4452" width="0.623993" height="3.75918" rx="0.311996" transform="rotate(46.0823 200.184 26.4452)" fill="black"/>
<rect width="0.623993" height="3.75918" rx="0.311996" transform="matrix(-0.693624 0.720337 0.720337 0.693624 200.267 26.4452)" fill="black"/>
<rect width="0.623993" height="14.1958" transform="matrix(1 0 0 -1 198.586 110.06)" fill="black"/>
<rect width="0.623993" height="3.75918" rx="0.311996" transform="matrix(0.693624 -0.720337 -0.720337 -0.693624 198.78 110.528)" fill="black"/>
<rect x="198.863" y="110.528" width="0.623993" height="3.75918" rx="0.311996" transform="rotate(-133.918 198.863 110.528)" fill="black"/>
</svg>
