<svg width="19" height="28" viewBox="0 0 19 28" fill="none" xmlns="http://www.w3.org/2000/svg">
<path fill-rule="evenodd" clip-rule="evenodd" d="M2.86152 0.633816C3.46052 0.287983 4.22646 0.493214 4.57229 1.09221L9.53773 9.6926L14.4884 1.11784C14.8342 0.518845 15.6001 0.313613 16.1991 0.659446L17.534 1.43014C18.133 1.77597 18.3382 2.54191 17.9924 3.14091L11.8738 13.7387L18.252 24.7862C18.5979 25.3852 18.3926 26.1512 17.7936 26.497L16.4588 27.2677C15.8598 27.6135 15.0938 27.4083 14.748 26.8093L9.53773 17.7848L4.31266 26.8349C3.96683 27.4339 3.20089 27.6392 2.60189 27.2933L1.26702 26.5226C0.66802 26.1768 0.462787 25.4109 0.80862 24.8119L7.2017 13.7387L1.06825 3.11528C0.722415 2.51628 0.927648 1.75034 1.52665 1.4045L2.86152 0.633816Z" fill="#FF2B2B"/>
</svg>
