<svg width="855" height="836" viewBox="0 0 855 836" fill="none" xmlns="http://www.w3.org/2000/svg">
<path d="M409.523 663.735C351.185 665.899 289.101 709.807 237.371 692.294C185.365 674.687 172.515 618.117 147.335 574.969C122.017 531.587 87.1527 491.111 89.7591 439.356C92.4714 385.5 128.321 335.025 161.893 285.892C199.919 230.242 230.189 159.346 297.639 135.123C365.144 110.881 425.915 157.274 492.622 167.122C557.051 176.634 639.975 152.206 683.02 192.017C726.122 231.882 694.983 303.945 702.616 361.344C709.881 415.979 743.518 465.207 726.803 521.278C708.914 581.289 672.596 649.567 608.059 678.543C543.125 707.699 478.478 661.177 409.523 663.735Z" fill="#FF4D4D"/>
<path d="M409.523 663.735C351.185 665.899 289.101 709.807 237.371 692.294C185.365 674.687 172.515 618.117 147.335 574.969C122.017 531.587 87.1527 491.111 89.7591 439.356C92.4714 385.5 128.321 335.025 161.893 285.892C199.919 230.242 230.189 159.346 297.639 135.123C365.144 110.881 425.915 157.274 492.622 167.122C557.051 176.634 639.975 152.206 683.02 192.017C726.122 231.882 694.983 303.945 702.616 361.344C709.881 415.979 743.518 465.207 726.803 521.278C708.914 581.289 672.596 649.567 608.059 678.543C543.125 707.699 478.478 661.177 409.523 663.735Z" fill="url(#paint0_linear)"/>
<defs>
<linearGradient id="paint0_linear" x1="453.123" y1="248.965" x2="321.032" y2="706.426" gradientUnits="userSpaceOnUse">
<stop stop-color="#FFCD1B"/>
<stop offset="1" stop-color="white" stop-opacity="0"/>
</linearGradient>
</defs>
</svg>
